<svg width="15" height="15" viewBox="0 0 15 15" fill="none" xmlns="http://www.w3.org/2000/svg">
<path fill-rule="evenodd" clip-rule="evenodd" d="M9 15H6H4V14H6V10.7439C4.25221 10.1262 3 8.45933 3 6.5V0H12V6.5C12 8.45933 10.7478 10.1262 9 10.7439V14H11V15H9ZM8 14V10.0368L8.66675 9.8011C10.0536 9.31094 11 7.99534 11 6.5V1H4V6.5C4 7.99534 4.94644 9.31094 6.33325 9.8011L7 10.0368V14H8Z" fill="#404040"/>
<path fill-rule="evenodd" clip-rule="evenodd" d="M4.00745 6.50905V1.00905L0 1V5C0 7.64617 2.79073 9.82127 6.14237 9.99747C4.83942 9.1723 4.00745 7.91609 4.00745 6.50905ZM3.00745 2.00679V6.50905C3.00745 7.11001 3.12551 7.69169 3.34693 8.23785C1.9241 7.48938 1 6.28145 1 5V2.00226L3.00745 2.00679Z" fill="#404040"/>
<path fill-rule="evenodd" clip-rule="evenodd" d="M10.9877 6.50905V1.00905L14.9951 1V5C14.9951 7.64617 12.2265 9.82127 8.87487 9.99747C10.1778 9.1723 10.9877 7.91609 10.9877 6.50905ZM11.9877 2.00679V6.50905C11.9877 7.11294 11.8709 7.69683 11.6513 8.24445C13.0735 7.49736 13.9951 6.28747 13.9951 5V2.00226L11.9877 2.00679Z" fill="#404040"/>
</svg>
