<svg id="checkmark" viewBox="0 0 16 16" xmlns="http://www.w3.org/2000/svg"><path d="M8 0a8 8 0 1 0 0 16A8 8 0 0 0 8 0zm0 .75A7.245 7.245 0 0 1 15.25 8 7.245 7.245 0 0 1 8 15.25 7.245 7.245 0 0 1 .75 8 7.245 7.245 0 0 1 8 .75zm4.523 5l-.726-.734a.394.394 0 0 0-.274-.114.403.403 0 0 0-.277.114l-4.559 4.52-1.925-1.942a.39.39 0 0 0-.278-.117.378.378 0 0 0-.273.113l-.73.726a.375.375 0 0 0-.118.274c0 .101.043.203.114.273l2.93 2.953c.07.07.171.114.273.114.101 0 .203-.04.273-.114l5.563-5.515a.384.384 0 0 0 .004-.547zm0 0"/></svg>