<svg width="21" height="16" viewBox="0 0 21 16" fill="none" xmlns="http://www.w3.org/2000/svg">
<path fill-rule="evenodd" clip-rule="evenodd" d="M11 3.5C11 5.433 12.567 7 14.5 7C16.433 7 18 5.433 18 3.5C18 1.567 16.433 0 14.5 0C12.567 0 11 1.567 11 3.5ZM17 3.5C17 4.88071 15.8807 6 14.5 6C13.1193 6 12 4.88071 12 3.5C12 2.11929 13.1193 1 14.5 1C15.8807 1 17 2.11929 17 3.5Z" fill="#404040"/>
<path d="M11.7557 14.2517L11.2572 14.5365C12.2857 14.8382 13.3738 15 14.4998 15C16.9038 15 19.1354 14.2624 20.9808 13.0012C20.9934 12.8358 20.9998 12.6686 20.9998 12.5C20.9998 8.91015 18.0897 6 14.4998 6C12.4999 6 10.7109 6.90323 9.51855 8.32402L10.3233 8.92121C11.332 7.74512 12.8289 7 14.4998 7C17.5195 7 19.9708 9.4335 19.9996 12.4464C18.362 13.4557 16.4727 14 14.4998 14C13.7394 14 12.9913 13.9191 12.2653 13.7619L12.2598 13.8644L12.2653 13.7619L11.7557 14.2517Z" fill="#404040"/>
<path fill-rule="evenodd" clip-rule="evenodd" d="M3 4.5C3 6.433 4.567 8 6.5 8C8.433 8 10 6.433 10 4.5C10 2.567 8.433 1 6.5 1C4.567 1 3 2.567 3 4.5ZM9 4.5C9 5.88071 7.88071 7 6.5 7C5.11929 7 4 5.88071 4 4.5C4 3.11929 5.11929 2 6.5 2C7.88071 2 9 3.11929 9 4.5Z" fill="#404040"/>
<path fill-rule="evenodd" clip-rule="evenodd" d="M0 13.5C0 13.6686 0.00642213 13.8358 0.0190352 14.0012C1.86444 15.2624 4.09608 16 6.5 16C8.90392 16 11.1356 15.2624 12.981 14.0012C12.9936 13.8358 13 13.6686 13 13.5C13 9.91015 10.0899 7 6.5 7C2.91015 7 0 9.91015 0 13.5ZM11.9997 13.4464C10.3621 14.4557 8.47282 15 6.5 15C4.52718 15 2.63788 14.4557 1.00026 13.4464C1.02904 10.4335 3.48033 8 6.5 8C9.51967 8 11.971 10.4335 11.9997 13.4464Z" fill="#404040"/>
</svg>
