<svg width="50" height="74" xmlns="http://www.w3.org/2000/svg" id="esrb-adult">
  <g id="RATING-/-ESRB-/-A" fill="none" fill-rule="evenodd">
    <g id="Page-1" transform="translate(1)">
      <path id="Fill-1" fill="#FEFEFE" d="M0 0V73.42H48.62V0z"/>
      <path id="Fill-2" fill="#231F20" d="M.7 72.63h47.21V.8H.71z"/>
      <path id="Fill-3" fill="#FEFEFE" d="M3.08 15.25H45.2V3.35H3.1z"/>
      <path id="Fill-4" fill="#FEFEFE" d="M3.06 61.65H45.2v-43.8H3.06z"/>
      <path id="Fill-5" fill="#FEFEFE" d="M3.07 70.04v-5.81h8.46v1.36H6.47v.83h4.28v1.35H6.47v.91h5.26v1.36z"/>
      <g id="Group-46" transform="translate(3.67 5.58)">
        <path d="M15.24 60.34c-.05-.2-.24-.33-.5-.4-.23-.07-.53-.1-.87-.1-.75 0-1.08.12-1.08.33 0 .86 5.96.32 5.96 2.44 0 1.35-2 2-4.85 2-2.74 0-4.52-.9-4.6-1.94h3.26c.07.2.27.36.56.46.28.1.63.14.97.14.85 0 1.41-.15 1.41-.42 0-.89-5.97-.28-5.97-2.5 0-1.23 1.9-1.85 4.5-1.85 2.88 0 4.2.82 4.44 1.84h-3.23z" id="Fill-6" fill="#FEFEFE"/>
        <path d="M23.84 62.43v2.03h-3.4v-5.82h4.9c3.45 0 4.6.53 4.6 1.66 0 .68-.54 1.23-1.75 1.43 1.1.22 1.76.36 1.76 1.53 0 .76-.04 1.02.36 1.02v.18h-3.45c-.08-.13-.17-.5-.17-1.02 0-.76-.23-1-1.8-1h-1.05zm0-1.27h1.34c1.05 0 1.61-.15 1.61-.55 0-.41-.57-.6-1.36-.6h-1.59v1.15z" id="Fill-8" fill="#FEFEFE"/>
        <path d="M32.02 64.46v-5.82h4.96c2.34 0 4.2.32 4.2 1.47 0 .6-.7 1.03-1.36 1.26 1.12.17 1.72.7 1.72 1.33 0 1.3-1.76 1.76-4.46 1.76h-5.06zm3.4-2.43v1.07h1.48c.85 0 1.48-.1 1.48-.53 0-.5-.8-.54-1.88-.54h-1.08zm0-2.03v.98h1.42c.67 0 1.17-.18 1.17-.51 0-.46-.67-.47-1.39-.47h-1.2z" id="Fill-10" fill="#FEFEFE"/>
        <path d="M35.66 52.62c0-1.19 1.02-2.15 2.3-2.15 1.28 0 2.3.96 2.3 2.15 0 1.2-1.02 2.16-2.3 2.16-1.28 0-2.3-.96-2.3-2.16zm4.2 0c0-.98-.85-1.77-1.9-1.77-1.05 0-1.9.8-1.9 1.77 0 .98.85 1.78 1.9 1.78 1.05 0 1.9-.8 1.9-1.78zm-2.39.15v1.09h-.42v-2.54h.88c.5 0 1 .13 1 .7 0 .3-.18.53-.54.6.36.07.41.24.46.5.04.25.06.51.16.74h-.54c-.04-.14-.08-.31-.09-.45-.03-.22-.03-.43-.15-.55-.11-.1-.25-.08-.4-.1h-.36zm.46-.4c.39-.01.49-.17.49-.36 0-.19-.1-.3-.44-.3h-.5v.66h.45z" id="Fill-12" fill="#231F20"/>
        <path d="M29.92 34c-.5.25-1.05.46-1.68.62-4.33 1.08-7.41-1.29-8.6-5.44-.88-3.05-.35-5.73 1.7-7.38l-5-7.09-10.92 2.73L3.2 53.57l10.53-2.63-.04-4.68 10.7-2.68 2.54 4.07 10.7-2.67L29.92 34zm-16.16 4.83l-.1-12.73 6.89 11.04-6.79 1.69z" id="Fill-14" fill="#231F20"/>
        <path d="M22.27 28.53c.82 2.85 2.48 5 5.44 4.25.4-.1.76-.24 1.07-.4l-6.19-8.79c-.93 1.21-.88 3.03-.32 4.94" id="Fill-16" fill="#231F20"/>
        <path d="M24.7 22.3c2.97-.74 4.63 1.42 5.44 4.26.71 2.46.6 4.76-1.36 5.82L29.92 34c3-1.5 3.88-4.55 2.85-8.1-1.2-4.15-4.27-6.52-8.6-5.44a7.34 7.34 0 0 0-2.83 1.34l1.25 1.78a3.61 3.61 0 0 1 2.1-1.28" id="Fill-18" fill="#231F20"/>
        <path d="M2.17 1.64l-.38 2.92h.78l-.4-2.92zM.58 7.1L1.68.34h1.08L3.83 7.1h-.87l-.21-1.5H1.62L1.4 7.1H.58z" id="Fill-20" fill="#231F20"/>
        <path d="M5.06 6.06h.4c.12 0 .23-.05.3-.13a.9.9 0 0 0 .19-.4c.04-.2.07-.44.09-.73a19.16 19.16 0 0 0-.05-2.72c-.03-.21-.1-.38-.17-.51a.36.36 0 0 0-.33-.2h-.43v4.69zM4.24.34h1.38c.26 0 .48.07.65.22.17.15.3.37.39.66.1.29.15.64.19 1.05.03.42.05.89.05 1.4v.62l-.03.74c-.02.25-.05.5-.1.75s-.12.47-.22.66c-.1.2-.23.35-.38.47a.92.92 0 0 1-.59.19H4.24V.34z" id="Fill-22" fill="#231F20"/>
        <path d="M10.22.34v4.79c0 .26-.02.5-.07.75-.04.25-.12.47-.22.67-.1.2-.24.35-.41.47-.17.13-.39.19-.64.19-.45 0-.79-.19-1-.57a2.97 2.97 0 0 1-.34-1.51V.33h.83v4.7c0 .42.04.72.14.9.09.18.2.27.36.27.19 0 .32-.1.4-.3.09-.2.13-.49.13-.86V.34h.82z" id="Fill-24" fill="#231F20"/>
        <path id="Fill-26" fill="#231F20" d="M10.9 7.1V.34h.82v5.63h1.24V7.1z"/>
        <path id="Fill-28" fill="#231F20" d="M15.35.34v1.12h-.92V7.1h-.82V1.46h-.92V.34z"/>
        <path d="M18.18 5.25c0 .44-.04.79-.13 1.04-.08.26-.19.46-.32.6a.92.92 0 0 1-.45.26c-.16.04-.32.06-.48.06a1 1 0 0 1-.62-.18 1.1 1.1 0 0 1-.36-.48c-.08-.2-.14-.44-.17-.7a6.03 6.03 0 0 1-.02-.84h.83v.46c.01.14.03.27.07.37.02.11.07.2.13.26.07.07.16.1.27.1.14 0 .24-.07.3-.21.08-.15.11-.33.11-.56 0-.2-.04-.37-.12-.52-.08-.15-.19-.3-.3-.43l-.4-.4a2.65 2.65 0 0 1-.7-1.09 2.68 2.68 0 0 1-.14-.86c0-.27.02-.51.07-.74.04-.23.1-.43.2-.6a1.1 1.1 0 0 1 1.03-.56c.4 0 .7.16.9.48.19.33.27.84.25 1.55h-.8a4.68 4.68 0 0 0-.07-.7.64.64 0 0 0-.12-.23.25.25 0 0 0-.2-.1.35.35 0 0 0-.31.2c-.08.11-.11.3-.11.53 0 .2.04.4.12.54.08.15.19.29.3.41l.4.38a2.3 2.3 0 0 1 .7 1.07c.1.24.14.54.14.9" id="Fill-30" fill="#231F20"/>
        <path d="M21.3 6.2c.12 0 .2-.05.28-.15.07-.1.12-.24.16-.44.04-.2.06-.46.07-.77a35.83 35.83 0 0 0 0-2.24 4.96 4.96 0 0 0-.07-.77c-.04-.2-.09-.35-.16-.45a.32.32 0 0 0-.28-.14.32.32 0 0 0-.28.14c-.07.1-.12.25-.16.45-.03.2-.06.45-.07.77a29.54 29.54 0 0 0 .07 3c.04.2.1.35.16.45.07.1.17.15.28.15m0 1c-.34 0-.6-.09-.78-.29-.19-.2-.32-.46-.41-.78-.08-.33-.13-.7-.15-1.12a34.02 34.02 0 0 1 0-2.6c.02-.41.07-.78.15-1.1.09-.33.22-.59.4-.79.2-.2.45-.3.8-.3.33 0 .6.1.78.3.18.2.32.46.4.78.09.33.13.7.15 1.12a40.14 40.14 0 0 1 0 2.59c-.02.42-.06.79-.15 1.12-.08.32-.22.59-.4.78-.19.2-.45.3-.79.3" id="Fill-32" fill="#231F20"/>
        <path id="Fill-34" fill="#231F20" d="M23.32 7.1V.34h1.12l1.04 4.68h.01V.34h.77V7.1h-1.08L24.1 2.15V7.1z"/>
        <path id="Fill-36" fill="#231F20" d="M26.96 7.1V.34h.83v5.63h1.23V7.1z"/>
        <path id="Fill-38" fill="#231F20" d="M29.7 4.76L28.68.34h.9l.6 2.85.62-2.85h.84l-1.1 4.42v2.33h-.82z"/>
        <path d="M33.15 1.35A2.97 2.97 0 0 0 33.9.3h.73v6.8h-.83V1.86a4.08 4.08 0 0 1-.64.76V1.35z" id="Fill-40" fill="#231F20"/>
        <path d="M36.52 1.2c-.07 0-.12.04-.16.1a.7.7 0 0 0-.1.23l-.03.28a5.78 5.78 0 0 0 .04.87c.01.1.04.17.08.24.05.06.1.09.17.09s.12-.03.16-.1a.7.7 0 0 0 .1-.23l.03-.3a4.1 4.1 0 0 0-.04-.85.75.75 0 0 0-.1-.23.18.18 0 0 0-.15-.1m0 2.86c-.09 0-.16.04-.2.13-.04.09-.08.2-.1.32-.02.13-.03.26-.03.4v.35a4.54 4.54 0 0 0 .05.61c.03.1.06.17.1.23.05.06.1.09.18.09.07 0 .13-.03.18-.09a.64.64 0 0 0 .1-.23l.04-.3.01-.3V4.9c0-.14-.01-.27-.03-.4a1.08 1.08 0 0 0-.1-.32c-.05-.09-.11-.13-.2-.13m0 3.12a.91.91 0 0 1-.83-.43 2.66 2.66 0 0 1-.27-1.4 7.62 7.62 0 0 1 .1-1.11c.03-.16.1-.3.16-.42a.92.92 0 0 1 .3-.3v-.03a.6.6 0 0 1-.27-.2c-.07-.1-.12-.2-.16-.34a1.9 1.9 0 0 1-.08-.42 6.03 6.03 0 0 1-.02-.52c0-.62.09-1.07.27-1.36a.89.89 0 0 1 .8-.43c.35 0 .62.14.8.43.18.29.27.74.27 1.36l-.02.52c-.02.15-.05.3-.09.42-.04.13-.09.24-.16.33a.6.6 0 0 1-.26.21v.02c.12.08.22.18.3.3.07.13.12.27.16.43.05.16.07.33.08.52.02.19.02.38.02.6 0 .63-.09 1.1-.28 1.39a.92.92 0 0 1-.82.43" id="Fill-42" fill="#231F20"/>
        <path id="Fill-44" fill="#231F20" d="M38.8 1.65h.6v1.84h.92v1.04h-.92v1.84h-.6V4.53h-.93V3.5h.93z"/>
      </g>
    </g>
  </g>
</svg>