<svg width="50" height="74" xmlns="http://www.w3.org/2000/svg" id="esrb-mature">
  <g id="RATING-/-ESRB-/-M" fill="none" fill-rule="evenodd">
    <g id="Page-1" transform="translate(1)">
      <path id="Fill-1" fill="#FEFEFE" d="M0 0V73.42H48.61V0z"/>
      <path id="Fill-2" fill="#231F20" d="M.7 72.63h47.2V.8H.7z"/>
      <path id="Fill-3" fill="#FEFEFE" d="M3.08 15.26H45.2V3.34H3.1z"/>
      <path id="Fill-4" fill="#FEFEFE" d="M3.06 61.65H45.2v-43.8H3.06z"/>
      <path id="Fill-5" fill="#FEFEFE" d="M3.07 70.04v-5.81h8.46v1.36H6.47v.83h4.28v1.36H6.47v.9h5.26v1.36z"/>
      <g id="Group-34" transform="translate(3.67 5.58)">
        <path d="M15.24 60.34c-.05-.2-.24-.33-.5-.4-.23-.07-.53-.1-.87-.1-.75 0-1.08.12-1.08.34 0 .86 5.96.32 5.96 2.43 0 1.35-2 2-4.85 2-2.74 0-4.52-.9-4.6-1.94h3.26c.07.2.27.36.56.46.28.1.63.14.97.14.85 0 1.41-.15 1.41-.42 0-.88-5.97-.28-5.97-2.5 0-1.23 1.9-1.85 4.5-1.85 2.88 0 4.2.82 4.44 1.84h-3.23z" id="Fill-6" fill="#FEFEFE"/>
        <path d="M23.84 62.43v2.03h-3.4v-5.82h4.9c3.45 0 4.6.54 4.6 1.67 0 .67-.54 1.23-1.75 1.42 1.1.22 1.76.36 1.76 1.53 0 .76-.04 1.02.36 1.02v.18h-3.45c-.08-.13-.17-.5-.17-1.02 0-.76-.23-1-1.8-1h-1.05zm0-1.26h1.34c1.05 0 1.61-.16 1.61-.56s-.57-.6-1.36-.6h-1.59v1.16z" id="Fill-8" fill="#FEFEFE"/>
        <path d="M32.02 64.46v-5.82h4.96c2.34 0 4.2.32 4.2 1.47 0 .6-.7 1.04-1.36 1.26 1.12.17 1.72.71 1.72 1.33 0 1.3-1.76 1.76-4.46 1.76h-5.06zm3.4-2.43v1.07h1.48c.85 0 1.48-.1 1.48-.53 0-.5-.8-.54-1.88-.54h-1.08zm0-2.03v.98h1.42c.67 0 1.17-.18 1.17-.51 0-.46-.67-.47-1.39-.47h-1.2z" id="Fill-10" fill="#FEFEFE"/>
        <path d="M35.66 52.62c0-1.19 1.02-2.15 2.3-2.15 1.28 0 2.3.96 2.3 2.15 0 1.2-1.02 2.16-2.3 2.16-1.28 0-2.3-.96-2.3-2.16zm4.2 0c0-.98-.85-1.77-1.9-1.77-1.05 0-1.9.8-1.9 1.77 0 .98.85 1.79 1.9 1.79 1.05 0 1.9-.8 1.9-1.79zm-2.39.15v1.09h-.42v-2.54h.88c.5 0 1 .13 1 .7 0 .3-.18.53-.54.6.36.07.41.24.46.51.04.24.06.5.16.73h-.54c-.04-.14-.08-.3-.09-.45-.03-.22-.03-.43-.15-.55-.11-.09-.25-.08-.4-.09h-.36zm.46-.4c.39 0 .49-.17.49-.36 0-.19-.1-.3-.44-.3h-.5v.66h.45z" id="Fill-12" fill="#231F20"/>
        <path id="Fill-14" fill="#231F20" d="M.92 23.11l12.92-3.5 7.36 17.47.07-.02-2.22-18.86 12.92-3.5 8.06 30.51-7.88 2.13-5.76-21.81-.06.02 2.44 22.7-8.53 2.32-9.08-20.9h-.07l5.76 21.82-7.87 2.13z"/>
        <path id="Fill-16" fill="#231F20" d="M.58 7.07V.33h1.9l.88 4.59h.02l.94-4.6h1.84v6.75H5v-5.2h-.02L3.9 7.07H2.78l-1.04-5.2h-.01v5.2z"/>
        <path d="M8.97 1.63h-.02l-.54 2.91h1.13l-.57-2.91zM6.7 7.07L8.26.33h1.56l1.53 6.74h-1.24l-.32-1.5H8.18l-.32 1.5H6.69z" id="Fill-18" fill="#231F20"/>
        <path id="Fill-20" fill="#231F20" d="M14.8.33v1.12H13.5v5.63H12.3V1.45h-1.32V.33z"/>
        <path d="M19.17.33V5.1c0 .26-.03.5-.1.76-.06.24-.17.46-.32.66s-.34.35-.59.47c-.24.13-.55.19-.9.19-.66 0-1.14-.19-1.46-.57a2.26 2.26 0 0 1-.47-1.5V.31h1.18v4.7c0 .42.07.71.2.9.13.17.3.26.53.26.26 0 .45-.1.57-.3.12-.2.18-.49.18-.86V.32h1.18z" id="Fill-22" fill="#231F20"/>
        <path d="M21.3 3.24h.52c.11 0 .21-.03.29-.09a.67.67 0 0 0 .18-.24c.05-.1.09-.2.1-.32l.03-.34c0-.32-.05-.55-.16-.68a.54.54 0 0 0-.44-.2h-.53v1.87zm0 3.83h-1.2V.33h2.2c.4 0 .72.15.96.45.24.3.36.74.36 1.31 0 .43-.08.8-.24 1.1-.16.3-.43.48-.8.56v.02l.26.05c.11.03.22.08.34.17.1.09.2.22.3.39.08.17.12.4.12.71v.45a20.6 20.6 0 0 0 .06 1.17c.02.17.04.3.07.36h-1.16c-.08-.2-.12-.42-.12-.64v-.66-.57c0-.18-.04-.34-.09-.48a.66.66 0 0 0-.25-.32.9.9 0 0 0-.51-.12h-.3v2.8z" id="Fill-24" fill="#231F20"/>
        <path id="Fill-26" fill="#231F20" d="M24.49 7.07V.33h3.08v1.04h-1.9v1.66h1.75v1.04h-1.75v1.97h1.96v1.03z"/>
        <path d="M30.03 1.34c.2-.13.4-.29.58-.46.18-.16.34-.36.48-.59h1.05v6.78h-1.18V1.86a9.82 9.82 0 0 1-.92.76V1.33z" id="Fill-28" fill="#231F20"/>
        <path id="Fill-30" fill="#231F20" d="M36.3 1.58l-1.33 5.5h-1.23l1.5-5.74h-1.87V.3h2.93z"/>
        <path id="Fill-32" fill="#231F20" d="M38.13 1.64H39v1.84h1.32V4.5H39v1.84h-.87V4.51H36.8V3.48h1.33z"/>
      </g>
    </g>
  </g>
</svg>