<svg viewBox="0 0 16 14" xmlns="http://www.w3.org/2000/svg"><path d="M.007 3.582l.999 5.992A.5.5 0 001.5 10h9.993a.502.502 0 00.504-.445L12.941 2H15.5a.5.5 0 000-1h-2.993a.5.5 0 00-.503.438L11.059 9H1.924L1.09 4h.485a.5.5 0 000-1H.346c-.186.026-.287.143-.294.28a.498.498 0 00-.045.302zM9.5 14a1.5 1.5 0 100-3 1.5 1.5 0 000 3zm-6 0a1.5 1.5 0 110-3 1.5 1.5 0 010 3zm0-1a.5.5 0 100-1 .5.5 0 000 1zm6 0a.5.5 0 110-1 .5.5 0 010 1zM10.173.658l.73.684-4.742 5.064-2.527-2.71.732-.681L6.162 4.94 10.173.658z" fill="#FFF" fill-rule="evenodd"/></svg>