<svg xmlns="http://www.w3.org/2000/svg" viewBox="0 0 32 32" id="gog"><g fill-rule="evenodd"><path d="M25.26 15.52c0 .6-.5 1.1-1.1 1.1H19.5V15.2h3.93c.24 0 .43-.19.43-.42V10.1a.42.42 0 00-.42-.43h-2.11a.42.42 0 00-.42.42v2.13c0 .23.18.42.41.42h1.7v1.42h-2.43c-.6 0-1.09-.5-1.09-1.1v-3.6c0-.62.49-1.1 1.09-1.1h3.58c.6 0 1.09.48 1.09 1.1v6.15zm0 8.21h-1.39v-4.32h-.97a.41.41 0 00-.41.41v3.91H21.1v-4.32h-.97a.41.41 0 00-.41.41v3.92h-1.38v-4.65c0-.6.48-1.08 1.07-1.08h5.84v5.72zm-7.97-9.66h-3.58c-.6 0-1.09-.5-1.09-1.1v-3.6c0-.62.49-1.1 1.09-1.1h3.58c.6 0 1.09.48 1.09 1.1v3.6c0 .6-.49 1.1-1.09 1.1zm-.06 8.58c0 .6-.48 1.08-1.07 1.08h-3.53c-.6 0-1.07-.48-1.07-1.08V19.1c0-.6.48-1.08 1.07-1.08h3.53c.59 0 1.07.49 1.07 1.08v3.56zm-5.73-7.13c0 .6-.49 1.1-1.09 1.1H5.74V15.2h3.93c.24 0 .43-.19.43-.42V10.1a.42.42 0 00-.42-.43H7.56a.42.42 0 00-.42.42v2.13c0 .23.18.42.41.42h1.7v1.42H6.82c-.6 0-1.09-.5-1.09-1.1v-3.6c0-.62.49-1.1 1.1-1.1h3.57c.6 0 1.09.48 1.09 1.1v6.15zm-1.05 3.89h-2.9a.41.41 0 00-.42.42v2.1c0 .22.18.41.41.41h2.9v1.4H6.83c-.6 0-1.07-.5-1.07-1.09V19.1c0-.6.48-1.08 1.07-1.08h3.63v1.4zM26.4 4H4.6A1.6 1.6 0 003 5.6v20.8c0 .88.71 1.6 1.59 1.6H26.4A1.6 1.6 0 0028 26.4V5.6c0-.88-.71-1.6-1.59-1.6z"/><path d="M16.6 9.65c.23 0 .42.19.42.42v2.11c0 .24-.19.43-.42.43h-2.12a.42.42 0 01-.42-.43v-2.11c0-.23.19-.42.42-.42h2.12M15.47 19.32c.23 0 .42.19.42.42v2.08c0 .23-.19.42-.42.42h-2.08a.41.41 0 01-.42-.42v-2.08c0-.23.19-.42.41-.42h2.09"/></g></svg>
