<svg width="16" height="15" viewBox="0 0 16 15" xmlns="http://www.w3.org/2000/svg">
<path fill-rule="nonzero" clip-rule="evenodd" d="M0 14.0635L2.93343 14.9997L3.97417 13.9632L2.00602 12.0029L0 14.0635ZM3.65834 7.04566C3.3427 7.32311 3.21887 7.75861 3.34157 8.15969L3.72468 9.41203L2.22949 10.9015L5.05459 13.7152L6.54773 12.2281L7.80248 12.6106C8.20557 12.7334 8.64358 12.6103 8.92248 12.2954L9.96615 11.0778L4.87727 6.0094L3.65834 7.04566ZM15.4986 2.34678L13.6431 0.498823C13.0416 -0.1003 12.076 -0.130417 11.4378 0.43011L5.59412 5.3997L10.5782 10.364L15.5675 4.54356C16.1306 3.90789 16.1004 2.94619 15.4986 2.34678Z" />
</svg>
