<svg width="18px" height="18px" viewBox="0 0 18 18" version="1.1" xmlns="http://www.w3.org/2000/svg" xmlns:xlink="http://www.w3.org/1999/xlink">
    <defs>
        <path d="M19.875,9.56251018 C19.875,8.95032173 19.4835937,8.42971546 18.9375,8.23659016 L18.9375,4.87500291 C18.9375,3.83947396 18.0980273,3 17.0625,3 C15.1586426,4.64062755 12.9014355,6.75000582 9.09375,6.75000582 L4.40625,6.75000582 C3.62958984,6.75000582 3,7.37959664 3,8.156258 L3,10.9687624 C3,11.7454237 3.62958984,12.3750145 4.40625,12.3750145 L5.6737207,12.3750145 C5.12463867,14.2690605 5.74634766,15.7845609 6.22491211,17.2804909 C6.27477539,17.4363505 6.37734375,17.5703253 6.5155957,17.6578352 C7.12438477,18.0432362 8.51818359,18.1165371 9.26285156,17.8087437 C9.73294922,17.6144172 9.84761719,17.0053342 9.48322266,16.6504313 C8.94099609,16.1223251 8.60033203,15.569082 8.90329102,14.8674794 C8.9516606,14.7556565 8.94013842,14.6269496 8.87267578,14.5254964 C8.39487305,13.8024777 8.76776367,12.7059526 9.70813477,12.3940868 C13.1485254,12.6060794 15.2634082,14.5746566 17.0625,16.1250204 C18.0980273,16.1250204 18.9375,15.2855464 18.9375,14.2500175 L18.9375,10.8884302 C19.4835937,10.6953049 19.875,10.1746986 19.875,9.56251018 Z M17.0625,13.659831 C15.462627,12.3420848 13.3994238,10.9369752 10.5,10.5841817 L10.5,8.54080938 C13.3994238,8.18801586 15.462627,6.78293556 17.0625,5.46516008 L17.0625,13.659831 Z" id="path-1"></path>
    </defs>
    <g id="Symbols" stroke="none" stroke-width="1" fill-rule="evenodd">
        <g id="atom-/-news-/-title">
            <g id="bullhorn" transform="translate(-2.004551, -1.023413)">
                <mask id="mask-2" fill="white">
                    <use xlink:href="#path-1"></use>
                </mask>
                <use id="Shape" fill-rule="nonzero" transform="translate(11.437500, 10.500000) rotate(-22.000000) translate(-11.437500, -10.500000) " xlink:href="#path-1"></use>
            </g>
        </g>
    </g>
</svg>
