<svg width="21" height="17" viewBox="0 0 21 17" fill="none" xmlns="http://www.w3.org/2000/svg">
<path d="M13.1743 6.74024C13.5832 6.90769 14.0308 7 14.5 7C16.433 7 18 5.433 18 3.5C18 1.567 16.433 0 14.5 0C12.8999 0 11.5506 1.07371 11.1333 2.53992L12.0714 2.9042C12.3387 1.81115 13.3246 1 14.5 1C15.8807 1 17 2.11929 17 3.5C17 4.88071 15.8807 6 14.5 6C14.1878 6 13.8889 5.94277 13.6134 5.83822L13.492 6.46716L13.1743 6.74024Z" fill="#404040"/>
<path d="M9.90654 2.69313C9.54221 1.14911 8.1553 0 6.5 0C4.567 0 3 1.567 3 3.5C3 5.433 4.567 7 6.5 7C6.95807 7 7.39558 6.912 7.79656 6.75199L7.487 6.52032L7.51349 6.05756L7.51178 5.78679C7.20245 5.92386 6.86012 6 6.5 6C5.11929 6 4 4.88071 4 3.5C4 2.11929 5.11929 1 6.5 1C7.68746 1 8.68155 1.82789 8.93657 2.93796L9.42163 2.65405L9.90654 2.69313Z" fill="#404040"/>
<path d="M13.4292 6.08776C13.7775 6.03003 14.1352 6 14.4999 6C18.0897 6 20.9999 8.91015 20.9999 12.5C20.9999 12.6686 20.9934 12.8358 20.9808 13.0012C19.3463 14.1183 17.4087 14.8246 15.3168 14.9714L16.3351 14.3621L16.4042 13.8279C17.6824 13.5939 18.898 13.1254 19.9996 12.4464C19.9708 9.4335 17.5195 7 14.4999 7C14.1461 7 13.8002 7.03339 13.4651 7.0972L13.4292 6.08776Z" fill="#404040"/>
<path d="M7.41851 6.06439C7.11844 6.02195 6.81178 6 6.5 6C2.91015 6 0 8.91015 0 12.5C0 12.6686 0.00642213 12.8358 0.0190352 13.0012C1.50406 14.0161 3.2392 14.6919 5.11295 14.9172L4.28107 14.2911L4.33701 13.7771C3.15342 13.5295 2.02733 13.0794 1.00026 12.4464C1.02904 9.4335 3.48033 7 6.5 7C6.85364 7 7.19949 7.03338 7.53457 7.09715L7.41851 6.06439Z" fill="#404040"/>
<path fill-rule="evenodd" clip-rule="evenodd" d="M7 5.5C7 7.433 8.567 9 10.5 9C12.433 9 14 7.433 14 5.5C14 3.567 12.433 2 10.5 2C8.567 2 7 3.567 7 5.5ZM13 5.5C13 6.88071 11.8807 8 10.5 8C9.11929 8 8 6.88071 8 5.5C8 4.11929 9.11929 3 10.5 3C11.8807 3 13 4.11929 13 5.5Z" fill="#404040"/>
<path fill-rule="evenodd" clip-rule="evenodd" d="M4 14.5C4 14.6686 4.00642 14.8358 4.01904 15.0012C5.86444 16.2624 8.09608 17 10.5 17C12.9039 17 15.1356 16.2624 16.981 15.0012C16.9936 14.8358 17 14.6686 17 14.5C17 10.9101 14.0899 8 10.5 8C6.91015 8 4 10.9101 4 14.5ZM15.9997 14.4464C14.3621 15.4557 12.4728 16 10.5 16C8.52718 16 6.63788 15.4557 5.00026 14.4464C5.02904 11.4335 7.48033 9 10.5 9C13.5197 9 15.971 11.4335 15.9997 14.4464Z" fill="#404040"/>
</svg>
