<svg width="16" height="14" viewBox="0 0 16 14" fill="none" xmlns="http://www.w3.org/2000/svg">
<path fill-rule="evenodd" clip-rule="evenodd" d="M9.12818 0.031993C8.62702 0.111162 8.17736 0.297512 7.77919 0.589827C7.38103 0.88336 7.06576 1.23901 6.83339 1.65678C6.60102 2.07576 6.48421 2.47404 6.48421 2.85283C6.48421 2.932 6.49552 3.05745 6.51813 3.22919C7.03436 3.22919 7.50537 3.09886 7.93368 2.837C8.36074 2.57635 8.70866 2.20974 8.97369 1.73838C9.23871 1.26581 9.37185 0.809063 9.37185 0.364501C9.37185 0.279243 9.36431 0.157445 9.34924 0.000325521C9.24625 0.0149413 9.1734 0.0259031 9.12818 0.031993ZM9.29425 3.05729C8.79309 3.05729 8.33589 3.13159 7.92391 3.28262L7.66893 3.37884L7.31473 3.50794C7.10874 3.58589 6.90149 3.62609 6.6955 3.62609C6.55482 3.62609 6.36642 3.5798 6.13154 3.48602L5.86526 3.37884L5.61154 3.28262C5.24226 3.13159 4.84786 3.05729 4.42709 3.05729C3.26902 3.05729 2.35337 3.43974 1.67887 4.20463C1.00312 4.97074 0.666504 5.92807 0.666504 7.08027C0.666504 7.97427 0.831046 8.85852 1.15887 9.73425C1.4867 10.61 1.97153 11.4285 2.61337 12.1909C3.2552 12.9522 3.85559 13.3334 4.41704 13.3334C4.68207 13.3334 4.94709 13.2834 5.21211 13.1823L5.54497 13.0545L5.80999 12.9582C6.1868 12.8291 6.52593 12.7646 6.82738 12.7646C7.12255 12.7646 7.3926 12.7999 7.63627 12.8718L7.97792 13.0106L8.18767 13.0861C8.63734 13.2518 8.99657 13.3334 9.26159 13.3334C9.59318 13.3334 9.94111 13.2006 10.3066 12.9363C10.6721 12.6708 11.0791 12.2226 11.5287 11.5905C11.9797 10.9571 12.3113 10.3371 12.5248 9.72938C11.9721 9.45046 11.5765 9.16911 11.3416 8.88776C11.1055 8.60518 10.9221 8.30556 10.794 7.99132C10.6646 7.67708 10.5993 7.32996 10.5993 6.95117C10.5993 6.4725 10.7085 6.02672 10.9258 5.61505C11.1431 5.20459 11.5551 4.79413 12.1593 4.38732C11.4371 3.50064 10.4825 3.05729 9.29425 3.05729Z" fill="#404040"/>
</svg>
