<svg width="15" height="15" viewBox="0 0 15 15" fill="none" xmlns="http://www.w3.org/2000/svg">
<path fill-rule="evenodd" clip-rule="evenodd" d="M12 3H11.109L11.087 2.977L11.064 3H8V4H10.054L7.525 6.502L8.51 7.475L11 5.011V7H12V4.021L12.023 3.998L12 3.972V3ZM14 12.75C14 13.44 13.44 14 12.75 14H2.25C1.56 14 1 13.44 1 12.75V2.25C1 1.56 1.56 1 2.25 1H12.75C13.44 1 14 1.56 14 2.25V12.75ZM13 0H2C0.896 0 0 0.896 0 2V13C0 14.104 0.896 15 2 15H13C14.104 15 15 14.104 15 13V2C15 0.896 14.104 0 13 0ZM6.491 7.526L4 9.99V8H3V10.98L2.977 11.003L3 11.028V12H3.891L3.913 12.023L3.937 12H7V11H4.947L7.475 8.499L6.491 7.526Z" fill="#404040"/>
</svg>
