<svg xmlns="http://www.w3.org/2000/svg" viewBox="0 0 30 16"><path d="M21.06 0c4.488 0 8.146 3.2 8.146 7.093 0 1.913-.922 3.76-2.49 5.08.154.462.338.924.676 1.287.37.594.339 1.32-.061 1.88-.246.33-.584.561-.984.627-.092.033-.154.033-.246.033-.153 0-.307-.033-.46-.066-.985-.33-2.03-.957-3.106-1.847a10.19 10.19 0 01-1.414.099c-2.644 0-4.95-1.056-6.456-2.739-1.507 1.65-3.843 2.739-6.456 2.739-.462 0-.954-.033-1.415-.1-1.106.858-3.443 1.584-4.15 1.584h-.062c-.215-.033-.46-.165-.584-.33-.369-.528-.061-1.055.185-1.484.307-.528.553-1.023.492-1.518C.984 10.986 0 9.105 0 7.093 0 3.167 3.658 0 8.147 0c2.644 0 4.95 1.056 6.456 2.738C16.11 1.088 18.446 0 21.06 0zm.06 1.55c-2.336 0-4.365.957-5.595 2.442.554.923.861 2.012.861 3.134a6.207 6.207 0 01-.86 3.134c1.23 1.484 3.289 2.441 5.595 2.441.492 0 .984-.033 1.475-.132h.123c.154 0 .308.066.43.165 1.015.89 2 1.485 2.89 1.781l.124-.066c.03-.033.03-.098 0-.131-.43-.66-.707-1.419-.892-2.244-.061-.297.03-.627.277-.792 1.445-1.088 2.275-2.606 2.336-4.156 0-3.068-3.043-5.575-6.763-5.575zM8.27 9.6c-.43 0-.8.396-.8.858 0 .462.37.857.8.857.43 0 .8-.362.8-.857 0-.462-.37-.858-.8-.858zm15.305-4.539c.246-.314.629-.314.875 0a.937.937 0 010 1.117l-2.927 3.736a.5.5 0 01-.438.245c-.164 0-.328-.105-.438-.245l-1.669-2.13a.937.937 0 010-1.117c.247-.314.63-.314.876 0l1.231 1.571zM8.178 3.035c-1.537 0-2.337 1.122-2.49 2.31-.031.263.153.461.368.461h.585a.373.373 0 00.369-.33c.061-.462.338-1.022 1.168-1.022.645 0 .922.362 1.014.593a.96.96 0 01-.061.957 2.276 2.276 0 01-.554.56c-.491.397-.86.76-.953 1.848a.38.38 0 00.37.43h.583c.185 0 .37-.166.37-.364.03-.462.122-.56.399-.758a2.91 2.91 0 00.86-.858c.493-.693.554-1.617.155-2.474-.4-.858-1.23-1.353-2.183-1.353z" fill-rule="nonzero"/></svg>