<svg width="74" height="74" xmlns="http://www.w3.org/2000/svg" id="usk-12">
  <g id="RATING-/-USK-/-12+" fill="none" fill-rule="evenodd">
    <g id="Page-1">
      <g id="Group-9">
        <path d="M73.23 67.06c0 3.4-2.76 6.17-6.17 6.17H6.94a6.17 6.17 0 0 1-6.17-6.17V6.94C.77 3.54 3.53.77 6.94.77h60.12c3.4 0 6.17 2.76 6.17 6.17v60.12z" id="Fill-1" fill="#28C864"/>
        <path d="M6.94 1.54a5.4 5.4 0 0 0-5.4 5.4v60.12a5.4 5.4 0 0 0 5.4 5.4h60.12a5.4 5.4 0 0 0 5.4-5.4V6.94a5.4 5.4 0 0 0-5.4-5.4H6.94zM67.06 74H6.94A6.95 6.95 0 0 1 0 67.06V6.94A6.95 6.95 0 0 1 6.94 0h60.12A6.95 6.95 0 0 1 74 6.94v60.12A6.95 6.95 0 0 1 67.06 74z" id="Fill-3" fill="#00A03C"/>
        <path d="M68.92 34.03a4.2 4.2 0 0 1 0 5.94L39.97 68.92a4.2 4.2 0 0 1-5.94 0L5.08 39.97a4.2 4.2 0 0 1 0-5.94L34.03 5.08a4.2 4.2 0 0 1 5.94 0l28.95 28.95z" id="Fill-5" fill="#00A03C"/>
        <path d="M37 4.63a3.4 3.4 0 0 0-2.42 1L5.63 34.58a3.4 3.4 0 0 0 0 4.84l28.95 28.95c.64.65 1.5 1 2.42 1a3.4 3.4 0 0 0 2.42-1l28.95-28.95a3.4 3.4 0 0 0 0-4.85L39.42 5.64a3.4 3.4 0 0 0-2.42-1m0 66.29a4.94 4.94 0 0 1-3.51-1.46L4.54 40.51a4.93 4.93 0 0 1 0-7.02L33.49 4.54a5.09 5.09 0 0 1 7.02 0l28.95 28.95a4.93 4.93 0 0 1 0 7.02L40.51 69.46A4.94 4.94 0 0 1 37 70.92" id="Fill-7" fill="#000"/>
      </g>
      <g id="Group-20" transform="translate(20.04 20.04)" fill="#000">
        <path d="M2.47 1.19h2v5.38c0 .85.03 1.4.08 1.66.09.4.3.73.62.97.32.25.76.37 1.32.37.57 0 1-.11 1.29-.35.29-.23.46-.51.52-.85.06-.34.09-.9.09-1.69v-5.5h2V6.4c0 1.2-.05 2.04-.16 2.53-.1.5-.3.9-.6 1.25-.29.33-.68.6-1.17.8-.49.2-1.12.3-1.9.3a5.5 5.5 0 0 1-2.17-.32c-.49-.22-.87-.5-1.16-.86A2.75 2.75 0 0 1 2.67 9c-.13-.56-.2-1.4-.2-2.51v-5.3z" id="Fill-10"/>
        <path d="M12.55 7.89l1.96-.2c.11.66.35 1.14.7 1.45.37.3.85.46 1.46.46.65 0 1.13-.14 1.46-.4.33-.28.5-.6.5-.97a.92.92 0 0 0-.21-.6c-.14-.16-.38-.3-.72-.43-.24-.08-.77-.22-1.6-.43a5.45 5.45 0 0 1-2.27-.98 2.59 2.59 0 0 1-.49-3.42c.29-.44.7-.78 1.24-1 .54-.24 1.2-.35 1.96-.35 1.24 0 2.18.27 2.81.82a2.9 2.9 0 0 1 1 2.18l-2.01.1c-.09-.52-.27-.88-.55-1.1-.29-.23-.7-.34-1.27-.34-.59 0-1.04.12-1.37.36a.72.72 0 0 0-.32.61c0 .24.1.44.3.6.25.22.86.44 1.84.67.98.23 1.7.47 2.17.71.46.25.83.59 1.1 1.01.26.43.39.96.39 1.59a2.92 2.92 0 0 1-1.82 2.7 5.6 5.6 0 0 1-2.16.36 4.3 4.3 0 0 1-2.89-.87 3.79 3.79 0 0 1-1.2-2.53" id="Fill-12"/>
        <path id="Fill-14" d="M22.9 11.12V1.19h2v4.4l4.06-4.4h2.7L27.9 5.05l3.95 6.07h-2.6l-2.73-4.66-1.63 1.66v3z"/>
        <path d="M11.15 37.05H6.71V20.3a15.3 15.3 0 0 1-5.74 3.36v-4.03c1.16-.38 2.42-1.1 3.78-2.16a8.2 8.2 0 0 0 2.8-3.7h3.6v23.27z" id="Fill-16"/>
        <path d="M29.56 32.92v4.13H13.99c.17-1.56.67-3.04 1.51-4.44.85-1.4 2.51-3.25 5-5.55 2-1.87 3.23-3.13 3.68-3.8.61-.91.92-1.82.92-2.72 0-.99-.27-1.75-.8-2.28a2.98 2.98 0 0 0-2.2-.8c-.93 0-1.67.28-2.22.84-.54.56-.86 1.48-.95 2.78l-4.42-.44c.26-2.45 1.09-4.2 2.48-5.27a8.33 8.33 0 0 1 5.22-1.6c2.29 0 4.08.62 5.39 1.86a6.07 6.07 0 0 1 1.96 4.6c0 1.04-.19 2.03-.56 2.98-.38.94-.97 1.93-1.78 2.96-.54.69-1.5 1.67-2.91 2.96a47.15 47.15 0 0 0-2.66 2.56c-.38.42-.68.83-.91 1.23h8.82z" id="Fill-18"/>
      </g>
    </g>
  </g>
</svg>