<svg width="74" height="74" xmlns="http://www.w3.org/2000/svg" id="usk-0">
  <g id="RATING-/-USK-/-0+" fill="none" fill-rule="evenodd">
    <g id="Page-1">
      <g id="Group-9">
        <path d="M73.23 67.06c0 3.4-2.76 6.17-6.17 6.17H6.94a6.17 6.17 0 0 1-6.17-6.17V6.94C.77 3.54 3.53.77 6.94.77h60.12c3.4 0 6.17 2.76 6.17 6.17v60.12z" id="Fill-1" fill="#FFF"/>
        <path d="M6.94 1.54a5.4 5.4 0 0 0-5.4 5.4v60.12a5.4 5.4 0 0 0 5.4 5.4h60.12a5.4 5.4 0 0 0 5.4-5.4V6.94a5.4 5.4 0 0 0-5.4-5.4H6.94zM67.06 74H6.94A6.95 6.95 0 0 1 0 67.06V6.94A6.95 6.95 0 0 1 6.94 0h60.12A6.95 6.95 0 0 1 74 6.94v60.12A6.95 6.95 0 0 1 67.06 74z" id="Fill-3" fill="#969696"/>
        <path d="M68.92 34.03a4.2 4.2 0 0 1 0 5.94L39.97 68.9a4.2 4.2 0 0 1-5.94 0L5.08 39.97a4.2 4.2 0 0 1 0-5.94L34.03 5.08a4.2 4.2 0 0 1 5.94 0l28.95 28.95z" id="Fill-5" fill="#FFF"/>
        <path d="M37 4.63a3.4 3.4 0 0 0-2.42 1L5.63 34.58a3.4 3.4 0 0 0 0 4.84l28.95 28.95a3.4 3.4 0 0 0 4.84 0l28.95-28.95a3.4 3.4 0 0 0 0-4.85L39.42 5.64a3.4 3.4 0 0 0-2.42-1m0 66.29a4.94 4.94 0 0 1-3.51-1.46L4.54 40.51a4.94 4.94 0 0 1 0-7.02L33.49 4.54a5.09 5.09 0 0 1 7.02 0l28.95 28.95a4.93 4.93 0 0 1 0 7.02L40.51 69.46A4.94 4.94 0 0 1 37 70.92" id="Fill-7" fill="#000"/>
      </g>
      <g id="Group-18" transform="translate(21.58 20.04)" fill="#000">
        <path d="M.93 1.19h2v5.38c0 .85.03 1.4.08 1.66.09.4.3.73.62.97.32.25.76.37 1.32.37.57 0 1-.11 1.29-.35.29-.23.46-.51.52-.85.06-.34.09-.9.09-1.69v-5.5h2V6.4c0 1.2-.05 2.04-.16 2.53-.11.5-.3.9-.6 1.25-.3.33-.68.6-1.17.8-.49.2-1.12.3-1.9.3a5.5 5.5 0 0 1-2.17-.32c-.49-.22-.87-.5-1.16-.86A2.75 2.75 0 0 1 1.13 9C1 8.44.93 7.6.93 6.5v-5.3z" id="Fill-10"/>
        <path d="M11.01 7.89l1.95-.2c.12.66.36 1.14.72 1.45.36.3.84.46 1.45.46.65 0 1.13-.14 1.46-.4.33-.28.5-.6.5-.97a.92.92 0 0 0-.21-.6c-.14-.16-.38-.3-.73-.43-.23-.08-.77-.22-1.6-.43a5.45 5.45 0 0 1-2.26-.98 2.59 2.59 0 0 1-.49-3.42c.29-.44.7-.78 1.24-1 .54-.24 1.2-.35 1.96-.35 1.24 0 2.18.27 2.81.82a2.9 2.9 0 0 1 1 2.18l-2.01.1c-.09-.52-.27-.88-.55-1.1-.29-.23-.71-.34-1.27-.34-.59 0-1.04.12-1.37.36a.72.72 0 0 0-.32.61c0 .24.1.44.3.6.25.22.86.44 1.84.67.98.23 1.7.47 2.17.71.46.25.83.59 1.1 1.01.25.43.39.96.39 1.59a2.93 2.93 0 0 1-1.82 2.7 5.6 5.6 0 0 1-2.16.36 4.3 4.3 0 0 1-2.9-.87 3.79 3.79 0 0 1-1.2-2.53" id="Fill-12"/>
        <path id="Fill-14" d="M21.36 11.12V1.19h2v4.4l4.05-4.4h2.7l-3.74 3.86 3.94 6.07h-2.59l-2.73-4.66-1.63 1.66v3z"/>
        <path d="M15.48 17.46c-.54 0-1.02.17-1.44.51-.42.35-.75.96-.98 1.85-.3 1.14-.46 3.08-.46 5.8 0 2.72.14 4.58.41 5.6.27 1.02.62 1.7 1.04 2.03.41.34.89.5 1.43.5.53 0 1.01-.16 1.44-.5.42-.35.74-.96.97-1.85.31-1.14.46-3.06.46-5.78s-.13-4.59-.4-5.6c-.28-1.02-.63-1.7-1.04-2.05-.42-.34-.9-.51-1.43-.51m0-3.68c2.24 0 4 .8 5.26 2.4 1.5 1.9 2.26 5.04 2.26 9.44 0 4.38-.76 7.53-2.28 9.45a6.32 6.32 0 0 1-5.24 2.37 6.63 6.63 0 0 1-5.46-2.6c-1.38-1.73-2.07-4.82-2.07-9.27 0-4.36.76-7.5 2.28-9.42a6.32 6.32 0 0 1 5.25-2.37" id="Fill-16"/>
      </g>
    </g>
  </g>
</svg>