<?xml version="1.0" encoding="UTF-8"?>
<svg width="586px" height="321px" viewBox="0 0 586 321" version="1.1" xmlns="http://www.w3.org/2000/svg" xmlns:xlink="http://www.w3.org/1999/xlink">
    <g id="LOGO-/-CD-PROJEKT" stroke="none" stroke-width="1" fill="none" fill-rule="evenodd">
        <path d="M130.1998,258.4 L130.5998,260.5 L151.0998,272.6 L156.2998,275.6 L153.4998,268.3 C170.3998,273.3 184.1998,273.6 193.3998,269.3 C177.4998,274 137.8998,260.6 130.1998,258.4 Z M67.4998,162.8 L49.8998,176.1 L62.4998,148.4 C64.4998,152.6 66.1998,157.5 67.4998,162.8 Z M149.0998,137.9 L94.1998,151.3 L94.1998,151.2 L94.1998,151.3 L201.3998,104.9 L113.0998,115.7 L160.3998,81.2 L109.6998,101 L117.3998,85.6 L81.1998,111.7 L80.8998,111.1 L132.1998,-5.68e-14 L48.5998,98.9 L48.0998,45 L17.3998,117.1 L15.7998,95.9 L0.6998,151.1 C0.6998,151.1 2.6998,149.6 5.4998,148.8 C5.6998,148.7 5.8998,148.7 6.1998,148.6 L6.2998,148.6 C6.4998,148.6 6.6998,148.5 6.9998,148.5 L7.0998,148.5 C7.2998,148.5 7.4998,148.4 7.7998,148.4 C7.9998,148.4 8.2998,148.4 8.4998,148.3 L8.5998,148.3 L9.2998,148.3 L9.3998,148.3 C9.5998,148.3 9.7998,148.3 9.9998,148.4 L10.0998,148.4 C10.2998,148.4 10.5998,148.5 10.7998,148.5 L10.9998,148.5 C11.1998,148.6 11.4998,148.6 11.6998,148.7 C16.8998,150.6 21.2998,148.7 21.2998,148.7 C21.2998,148.7 26.1998,151.8 26.1998,154.4 C26.1998,154.4 19.7998,154.8 19.7998,151.9 C19.7998,151.9 11.5998,149 0.1998,153.2 L24.3998,163.6 C24.3998,163.5 23.0998,159 24.4998,157.4 C24.8998,156.9 25.6998,156.7 26.8998,157.1 C27.2998,157.3 27.6998,157.2 27.8998,157 C29.7998,155.1 20.6998,138.2 20.6998,138.2 C20.6998,138.2 12.4998,137.4 5.3998,144.8 C4.8998,145.3 4.3998,145.8 3.9998,146.4 C4.6998,145.1 6.9998,141.5 10.7998,138.3 C13.0998,136.4 15.9998,134.6 19.3998,133.7 C20.2998,131.5 19.1998,132.9 21.0998,131.7 C21.9998,125.8 25.3998,110.5 36.9998,97.4 C37.7998,96.5 38.5998,95.7 39.3998,94.8 C39.3998,94.8 36.3998,100.4 36.3998,104.3 C36.4998,104.2 39.3998,99.8 43.4998,95.8 C43.4998,95.8 43.4998,95.9 43.3998,96 C42.5998,97.6 37.0998,109.4 37.6998,112.8 L37.6998,112.9 L48.8998,102.7 C48.5998,103.1 38.3998,116.9 37.3998,121.6 L54.2998,109.5 C54.1998,109.6 52.1998,112.5 51.2998,114.1 C50.6998,115.2 50.5998,115.6 50.5998,115.7 L50.5998,115.8 L59.6998,111.9 C59.6998,111.9 59.2998,112.4 58.6998,113.1 L55.2998,116.5 L54.4998,117.4 L48.2998,123.6 L48.1998,123.7 L43.4998,128.5 L40.4998,131.6 C40.4998,131.6 37.9998,134.2 37.6998,135.5 C37.3998,136.8 38.7998,137.6 38.7998,137.6 C40.0998,138.3 41.0998,139.4 41.6998,140.7 C41.9998,141.5 42.1998,142.3 42.1998,143.2 C42.1998,145 41.4998,146.6 40.1998,147.8 C38.9998,149 37.2998,149.7 35.3998,149.7 C33.6998,149.7 32.1998,149.1 30.9998,148.1 C31.1998,148.4 34.4998,152.6 40.5998,149.3 L48.1998,143.8 L48.4998,143.5 L56.2998,137.8 C58.0998,140 59.8998,142.6 61.4998,145.6 C56.8998,150 48.8998,157.7 41.0998,166 C36.3998,171 31.6998,176.2 27.6998,181.2 L30.4998,168 L30.6998,166.9 L30.5998,166.9 C30.5998,166.9 30.4998,166.9 30.4998,167 C30.4998,167 30.3998,167 30.3998,167.1 C30.3998,167.1 30.3998,167.2 30.2998,167.2 L30.1998,167.3 C30.1998,167.3 30.1998,167.4 30.0998,167.4 L29.9998,167.5 L29.8998,167.6 L29.7998,167.7 C29.7998,167.8 29.6998,167.8 29.6998,167.8 C29.5998,167.8 29.5998,167.9 29.4998,167.9 L29.3998,168 C29.2998,168.1 29.2998,168.1 29.1998,168.2 C29.0998,168.2 29.0998,168.3 28.9998,168.3 C28.9998,168.4 28.8998,168.4 28.7998,168.5 C28.7998,168.5 28.6998,168.6 28.5998,168.7 C28.4998,168.8 28.3998,168.8 28.3998,168.9 C28.2998,169 28.2998,169 28.1998,169 C28.0998,169.1 28.0998,169.2 27.9998,169.3 C27.8998,169.3 27.8998,169.4 27.8998,169.4 C27.8998,169.4 27.7998,169.5 27.6998,169.5 C27.5998,169.6 27.4998,169.7 27.3998,169.8 C27.2998,169.8 27.2998,169.9 27.1998,170 C27.0998,170.1 26.9998,170.2 26.8998,170.3 C26.7998,170.4 26.7998,170.5 26.6998,170.5 C26.5998,170.6 26.5998,170.7 26.4998,170.7 L26.3998,170.8 L26.2998,170.9 C26.1998,171 26.1998,171 26.0998,171.1 C25.9998,171.2 25.9998,171.3 25.8998,171.3 C25.8998,171.3 25.8998,171.4 25.7998,171.4 C25.7998,171.4 25.6998,171.4 25.6998,171.5 C25.6998,171.6 25.5998,171.6 25.4998,171.7 C25.3998,171.8 25.2998,171.9 25.1998,172 C25.0998,172.1 24.9998,172.2 24.9998,172.3 C24.8998,172.4 24.7998,172.5 24.6998,172.6 C24.5998,172.7 24.4998,172.8 24.3998,172.9 C24.2998,173 24.1998,173.2 24.0998,173.3 C23.9998,173.4 23.8998,173.5 23.7998,173.6 C23.6998,173.7 23.5998,173.9 23.4998,174 C23.3998,174.1 23.2998,174.2 23.1998,174.3 C23.0998,174.5 22.9998,174.6 22.8998,174.8 C22.7998,174.9 22.6998,175 22.6998,175.1 C22.5998,175.3 22.3998,175.5 22.2998,175.7 C22.2998,175.8 22.1998,175.9 22.0998,175.9 C21.8998,176.2 21.6998,176.5 21.4998,176.8 C21.2998,177.1 21.0998,177.4 20.8998,177.7 C20.8998,177.8 20.7998,177.9 20.6998,178 C20.5998,178.2 20.3998,178.4 20.2998,178.7 C20.1998,178.8 20.1998,178.9 20.0998,179 C19.9998,179.2 19.7998,179.4 19.6998,179.6 C19.5998,179.7 19.5998,179.9 19.4998,180 C19.3998,180.2 19.1998,180.4 19.0998,180.7 C18.9998,180.8 18.8998,181 18.8998,181.1 C18.7998,181.3 18.5998,181.6 18.4998,181.8 C18.3998,181.9 18.2998,182.1 18.2998,182.2 C18.1998,182.5 17.9998,182.7 17.8998,182.9 C17.7998,183 17.7998,183.2 17.6998,183.3 C17.0998,184.4 16.4998,185.6 15.8998,186.9 L12.7998,187.4 C13.3998,185.8 13.9998,184.3 14.6998,183 L9.5998,190.1 L14.6998,189.6 C10.3998,199.6 7.1998,212.6 7.1998,231.2 L11.2998,228.6 C14.8998,249.3 31.9998,258.4 31.9998,258.4 L31.9998,258.3 C41.3998,264.5 52.8998,268.8 65.4998,270.5 C67.2998,270.7 68.6998,270.9 68.9998,270.9 C69.1998,270.9 69.3998,271 69.6998,271 C76.4998,271.6 83.1998,271.4 89.4998,270.4 L89.4998,271.1 C89.4998,275.2 91.7998,278.6 94.6998,278.9 C88.6998,289 83.8998,302.5 83.8998,302.6 C83.6998,303.2 83.1998,304.4 82.6998,304.7 C81.1998,305 81.0998,305.1 79.4998,305.6 C78.9998,305.1 74.1998,304.2 69.3998,306 C66.6998,307.2 63.9998,309.4 62.1998,313 C64.1998,311.4 67.7998,308.9 70.7998,309.2 C67.2998,311.2 61.1998,315 60.4998,320.5 C60.4998,320.5 81.5998,305.7 91.8998,308.5 C91.8998,308.5 90.3998,310.2 93.9998,316.6 L95.5998,310.7 C97.4998,304.9 90.2998,304.1 87.1998,304 L87.1998,303.9 C87.1998,303.9 87.4998,303 88.0998,301.4 C89.8998,296.8 93.9998,286.6 98.5998,279.3 C98.6998,279.1 98.6998,279 98.7998,278.8 L97.8998,277.6 C97.8998,277.6 98.4998,276.9 98.7998,276.4 C99.3998,275.4 100.1998,273.8 100.2998,271.7 C100.2998,270 99.8998,267.9 98.6998,265.3 L101.3998,264 C101.4998,264.3 101.6998,264.7 101.7998,265 C101.7998,265.1 101.8998,265.2 101.8998,265.3 C101.9998,265.5 102.0998,265.7 102.0998,266 C102.0998,266.1 102.1998,266.2 102.1998,266.3 C102.2998,266.5 102.2998,266.8 102.3998,267 C102.3998,267.1 102.4998,267.2 102.4998,267.2 L117.8998,262.5 L114.4998,259.7 L114.3998,259.5 L114.2998,259.4 L55.8998,206.6 C72.0998,214.5 90.9998,223.6 123.0998,238.5 C154.6998,253.1 174.6998,261.5 184.9998,265.8 C185.0998,265.9 185.1998,265.9 185.2998,265.9 C186.7998,266.5 188.0998,267 189.1998,267.5 C191.3998,268.4 193.4998,269.2 193.5998,269.2 C193.7998,269.1 193.9998,269 194.1998,269 L76.1998,188.2 L149.0998,137.9 Z M36.5998,146.9 C36.0998,147.1 35.5998,147.2 35.0998,147.2 C33.4998,147.2 31.8998,146.2 31.2998,144.6 C31.1998,144.5 31.1998,144.3 31.0998,144.1 L29.8998,144.5 C30.8998,147.5 33.9998,149.1 36.6998,148.1 C37.3998,147.9 37.9998,147.5 38.4998,147 C39.9998,145.6 40.5998,143.2 39.8998,141 L37.0998,141.9 C37.2998,142.3 37.3998,142.8 37.3998,143.2 C37.3998,143.6 37.2998,144 37.1998,144.3 L38.4998,145.1 C38.2998,145.4 37.9998,145.8 37.6998,146 C37.3998,146.5 36.9998,146.7 36.5998,146.9 Z M54.2998,285.7 C58.8998,280.7 64.3998,275.1 67.5998,272.4 C66.6998,272.3 65.1998,272.1 63.6998,271.9 C60.2998,275 55.9998,279.5 52.0998,283.7 C47.1998,289 43.0998,293.6 43.0998,293.7 C42.9998,293.7 42.9998,293.8 42.8998,293.9 C39.6998,294.8 34.1998,296.3 30.5998,297.3 C25.1998,298.8 20.3998,298.4 20.3998,301.9 C20.3998,301.9 14.7998,304.9 16.0998,309.3 C16.0998,309.3 27.2998,300.4 36.7998,298.9 C36.7998,298.9 30.9998,302.7 31.4998,307.8 C31.4998,307.8 39.3998,296 48.4998,303.2 C48.4998,303.2 44.3998,297.6 46.0998,294.6 C47.7998,292.9 50.7998,289.4 54.2998,285.7 Z" id="Fill-1" fill="#B2B2B2"></path>
        <path d="M468.7999,173.1002 L468.9999,172.9002 L474.9999,166.8002 L475.8999,165.9002 L450.2999,165.9002 L450.2999,210.1002 L468.8999,210.1002 L469.0999,209.9992 L474.8999,203.9002 L475.7999,202.9992 L457.7999,202.9992 L457.7999,189.3002 L463.2999,189.3002 L463.3999,189.1002 L469.4999,182.9992 L470.3999,182.1002 L457.6999,182.1002 L457.6999,173.2002 L468.7999,173.2002 L468.7999,173.1002 Z M422.1999,170.6002 L421.9999,170.8002 L421.9999,194.4002 C421.9999,197.9992 421.5999,200.4992 420.8999,201.8002 C420.1999,203.1002 419.0999,203.7002 417.3999,203.7002 C416.0999,203.7002 414.7999,203.2002 413.2999,202.2002 L412.7999,201.9002 L412.4999,202.4002 L409.2999,207.9992 L408.9999,208.4992 L409.3999,208.8002 C411.7999,210.3002 414.4999,210.9992 417.2999,210.9992 C421.0999,210.9992 424.0999,209.6002 426.3999,206.9992 C427.5999,205.7002 428.3999,203.9992 428.8999,202.1002 C429.3999,200.4002 429.5999,197.9002 429.5999,194.4992 L429.5999,165.6002 L428.6999,166.2002 L422.1999,170.6002 Z M515.3999,166.1002 L499.4999,182.4002 L499.4999,165.4992 L498.6999,166.1002 L492.1999,170.7002 L491.9999,170.9002 L491.9999,210.7002 L492.8999,210.1002 L499.3999,205.4992 L499.5999,205.3002 L499.5999,191.9992 L500.3999,191.2002 L515.4999,209.9002 L515.7999,210.3002 L516.1999,209.9992 L521.7999,206.2002 L522.2999,205.9002 L521.8999,205.4002 L505.7999,185.9992 L524.8999,166.8002 L525.7999,165.9002 L515.5999,165.9002 L515.3999,166.1002 Z M386.6999,199.2002 C383.6999,202.2002 379.9999,203.7002 375.5999,203.7002 C371.5999,203.7002 367.9999,202.2002 364.9999,199.2002 C361.8999,196.3002 360.2999,192.4002 360.2999,187.8002 C360.2999,183.4002 361.7999,179.7002 364.7999,176.8002 C367.7999,173.8002 371.4999,172.3002 375.7999,172.3002 C380.0999,172.3002 383.7999,173.8002 386.6999,176.8002 C389.6999,179.8002 391.1999,183.6002 391.1999,187.9992 C391.1999,192.4002 389.6999,196.1002 386.6999,199.2002 Z M375.8999,165.1002 C369.5999,165.1002 364.0999,167.4002 359.5999,171.8002 C355.0999,176.2002 352.7999,181.6002 352.7999,187.8002 C352.7999,194.8002 355.2999,200.6002 360.2999,204.9992 C364.7999,208.9002 369.9999,210.9002 375.6999,210.9002 C382.0999,210.9002 387.6999,208.6002 392.1999,204.2002 C396.6999,199.8002 398.9999,194.4002 398.9999,187.9992 C398.9999,181.7002 396.6999,176.3002 392.1999,171.8002 C387.5999,167.4002 382.1999,165.1002 375.8999,165.1002 Z M536.0999,173.1002 L545.9999,173.1002 L545.9999,210.6002 L546.7999,209.9992 L553.2999,205.4002 L553.4999,205.2002 L553.4999,173.1002 L563.3999,173.1002 L563.3999,165.9002 L535.9999,165.9002 L535.9999,173.1002 L536.0999,173.1002 Z M167.7999,172.3002 C170.5999,172.3002 173.3999,173.1002 175.9999,174.7002 L176.4999,174.9992 L176.7999,174.4992 L179.9999,169.1002 L180.2999,168.6002 L179.7999,168.3002 C176.0999,166.2002 172.1999,165.1002 168.2999,165.1002 C161.0999,165.1002 155.0999,167.8002 150.5999,173.2002 C146.8999,177.6002 144.9999,182.6002 144.9999,188.2002 C144.9999,194.4002 147.2999,199.9002 151.6999,204.3002 C156.1999,208.7002 161.5999,210.9002 167.8999,210.9002 C172.0999,210.9002 176.0999,209.8002 179.8999,207.7002 L180.1999,207.4992 L180.1999,207.1002 L180.0999,206.9992 L176.8999,201.4992 L176.5999,200.9992 L176.0999,201.3002 C175.1999,201.9002 174.2999,202.3002 173.5999,202.7002 C172.0999,203.4002 170.1999,203.8002 167.9999,203.8002 C163.7999,203.8002 160.0999,202.3002 157.1999,199.3002 C154.2999,196.3002 152.7999,192.6002 152.7999,188.2002 C152.7999,183.8002 154.2999,179.9992 157.1999,176.9992 C159.8999,173.8002 163.4999,172.3002 167.7999,172.3002 Z M217.4999,199.1002 C215.9999,200.4002 214.2999,201.4992 212.3999,202.1002 C210.5999,202.7002 208.1999,202.9992 205.2999,202.9992 L202.8999,202.9992 L202.8999,173.2002 L205.2999,173.2002 C210.6999,173.2002 214.7999,174.4992 217.4999,176.9992 C220.5999,179.8002 222.0999,183.6002 222.0999,188.1002 C222.0999,192.4992 220.5999,196.2002 217.4999,199.1002 Z M215.3999,167.3002 C212.7999,166.4002 209.2999,165.9992 204.9999,165.9992 L195.3999,165.9992 L195.3999,210.2002 L204.8999,210.2002 C209.2999,210.2002 212.6999,209.8002 215.1999,208.9992 C217.7999,208.2002 220.2999,206.7002 222.6999,204.6002 C227.3999,200.4002 229.7999,194.9002 229.7999,188.1002 C229.7999,181.4002 227.4999,175.9002 222.8999,171.7002 C220.5999,169.6002 218.0999,168.1002 215.3999,167.3002 Z M320.3999,186.2002 L320.3999,185.8002 L320.3999,173.2002 L320.3999,172.6002 L322.6999,172.6002 C328.6999,172.6002 331.6999,174.8002 331.6999,179.2002 C331.6999,183.9002 328.5999,186.3002 322.4999,186.3002 L320.3999,186.3002 L320.3999,186.2002 Z M328.8999,191.6002 C331.4999,190.9002 333.6999,189.4992 335.2999,187.4002 C337.0999,185.1002 337.9999,182.4002 337.9999,179.2002 C337.9999,175.2002 336.4999,171.8002 333.5999,169.4002 C330.9999,167.2002 326.6999,166.1002 320.8999,166.1002 L312.7999,166.1002 L312.7999,210.8002 L313.5999,210.2002 L320.0999,205.6002 L320.2999,205.4002 L320.2999,192.6002 L320.6999,192.6002 L332.8999,209.9992 L333.1999,210.4002 L333.5999,210.1002 L338.7999,206.3002 L339.1999,205.9992 L338.8999,205.6002 L328.8999,191.6002 Z M280.1999,186.2002 L278.0999,186.2002 L278.0999,172.4992 L280.3999,172.4992 C286.3999,172.4992 289.3999,174.7002 289.3999,179.1002 C289.4999,183.8002 286.3999,186.2002 280.1999,186.2002 Z M286.7999,166.7002 C284.8999,166.2002 282.0999,165.9002 278.4999,165.9002 L270.5999,165.9002 L270.5999,210.6002 L271.3999,209.9992 L277.8999,205.4002 L278.0999,205.2002 L278.0999,192.6002 L280.5999,192.6002 C285.1999,192.6002 288.8999,191.4002 291.5999,188.9992 C294.3999,186.6002 295.7999,183.3002 295.7999,179.2002 C295.7999,175.4002 294.4999,172.2002 291.8999,169.6002 C290.4999,168.3002 288.7999,167.2002 286.7999,166.7002 Z M577.9001,166.3006 C574.3001,166.3006 571.3001,169.1996 571.3001,172.8996 C571.3001,176.4996 574.2001,179.4996 577.9001,179.4996 C581.5001,179.4996 584.5001,176.4996 584.5001,172.8996 C584.4001,169.1996 581.5001,166.3006 577.9001,166.3006 Z M577.9001,180.6006 C573.6001,180.6006 570.2001,177.1006 570.2001,172.8996 C570.2001,168.6006 573.7001,165.1996 577.9001,165.1996 C582.2001,165.1996 585.6001,168.6006 585.6001,172.8996 C585.6001,177.1006 582.2001,180.6006 577.9001,180.6006 Z M580.0001,177.3006 L577.7001,173.8006 L576.2001,173.8006 L576.2001,177.3006 L574.9001,177.3006 L574.9001,168.3996 L578.5001,168.3996 C580.0001,168.3996 581.4001,169.4996 581.4001,171.1006 C581.4001,173.1006 579.6001,173.6996 579.1001,173.6996 L581.5001,177.1996 L580.0001,177.1996 L580.0001,177.3006 Z M578.5001,169.4996 L576.1001,169.4996 L576.1001,172.6006 L578.5001,172.6006 C579.3001,172.6006 580.1001,171.9996 580.1001,171.1006 C580.1001,170.1006 579.3001,169.4996 578.5001,169.4996 Z" id="Fill-6" fill="#FFFFFF"></path>
    </g>
</svg>