<svg style="height: 0; width: 0; position: absolute; visibility: hidden;" xmlns="http://www.w3.org/2000/svg" xmlns:xlink="http://www.w3.org/1999/xlink"><defs><style>
    .sprite-symbol-usage {display: none;}
    .sprite-symbol-usage:target {display: inline;}
  </style><symbol viewBox="0 0 16 13" id="button-add-to-cart">
    <g id="button-add-to-cart_Symbols" stroke="none" stroke-width="1" fill-rule="evenodd">
        <g id="button-add-to-cart_Game-/-overlay" transform="translate(-249.000000, -201.000000)">
            <path d="M264.993119,203.582252 L263.994476,209.574145 C263.958676,209.815152 263.750896,210.000053 263.49993,210.000053 C263.498106,210.000102 260.166998,210.000102 253.506607,210.000053 C253.242571,210.000053 253.030598,209.805544 253.003016,209.555489 L252.058592,202.000053 L249.499997,202.000053 C249.223856,202.000053 249,201.776195 249,201.500053 C249,201.22391 249.223856,201.000053 249.499997,201.000053 L252.493348,201.000053 C252.744892,200.996406 252.96419,201.182618 252.996117,201.438035 C252.996332,201.439492 253.311414,203.960164 253.941364,209.000053 L263.076369,209.000053 L263.909698,204.000053 L263.424534,204.000053 C263.148393,204.000053 262.924537,203.776195 262.924537,203.500053 C262.924537,203.22391 263.148393,203.000053 263.424534,203.000053 L264.490505,203.000053 C264.494413,202.999983 264.54892,202.999983 264.654024,203.000053 C264.840411,203.026192 264.94132,203.143292 264.948475,203.279059 C264.993255,203.36976 265.011018,203.474858 264.993119,203.582252 Z M255.499969,214 C254.671547,214 253.999978,213.328427 253.999978,212.5 C253.999978,211.671573 254.671547,211 255.499969,211 C256.328392,211 256.999961,211.671573 256.999961,212.5 C256.999961,213.328427 256.328392,214 255.499969,214 Z M261.499936,214 C260.671513,214 259.999944,213.328427 259.999944,212.5 C259.999944,211.671573 260.671513,211 261.499936,211 C262.328358,211 262.999928,211.671573 262.999928,212.5 C262.999928,213.328427 262.328358,214 261.499936,214 Z M261.5,213 C261.776142,213 262,212.776142 262,212.5 C262,212.223858 261.776142,212 261.5,212 C261.223858,212 261,212.223858 261,212.5 C261,212.776142 261.223858,213 261.5,213 Z M255.5,213 C255.223858,213 255,212.776142 255,212.5 C255,212.223858 255.223858,212 255.5,212 C255.776142,212 256,212.223858 256,212.5 C256,212.776142 255.776142,213 255.5,213 Z M257.999955,203 L257.999955,201 L258.99995,201 L258.99995,203 L260.999939,203 L260.999939,204 L258.99995,204 L258.99995,206 L257.999955,206 L257.999955,204 L255.999967,204 L255.999967,203 L257.999955,203 Z" id="button-add-to-cart_Combined-Shape" transform="translate(257.000000, 207.500000) scale(-1, 1) translate(-257.000000, -207.500000) " />
        </g>
    </g>
</symbol><symbol viewBox="0 0 16 14" id="button-in-cart">
    <g id="button-in-cart_Symbols" stroke="none" stroke-width="1" fill-rule="evenodd">
        <g id="button-in-cart_Game-/-overlay" transform="translate(-249.000000, -200.000000)">
            <path d="M249.006881,203.582252 L250.005524,209.574145 C250.041324,209.815152 250.249104,210.000053 250.50007,210.000053 C250.501894,210.000102 253.833002,210.000102 260.493393,210.000053 C260.757429,210.000053 260.969402,209.805544 260.996984,209.555489 L261.941408,202.000053 L264.500003,202.000053 C264.776144,202.000053 265,201.776195 265,201.500053 C265,201.22391 264.776144,201.000053 264.500003,201.000053 L261.506652,201.000053 C261.255108,200.996406 261.03581,201.182618 261.003883,201.438035 C261.003668,201.439492 260.688586,203.960164 260.058636,209.000053 L250.923631,209.000053 L250.090302,204.000053 L250.575466,204.000053 C250.851607,204.000053 251.075463,203.776195 251.075463,203.500053 C251.075463,203.22391 250.851607,203.000053 250.575466,203.000053 L249.509495,203.000053 C249.505587,202.999983 249.45108,202.999983 249.345976,203.000053 C249.159589,203.026192 249.05868,203.143292 249.051525,203.279059 C249.006745,203.36976 248.988982,203.474858 249.006881,203.582252 Z M258.500031,214 C259.328453,214 260.000022,213.328427 260.000022,212.5 C260.000022,211.671573 259.328453,211 258.500031,211 C257.671608,211 257.000039,211.671573 257.000039,212.5 C257.000039,213.328427 257.671608,214 258.500031,214 Z M252.500064,214 C251.671642,214 251.000072,213.328427 251.000072,212.5 C251.000072,211.671573 251.671642,211 252.500064,211 C253.328487,211 254.000056,211.671573 254.000056,212.5 C254.000056,213.328427 253.328487,214 252.500064,214 Z M252.5,213 C252.776142,213 253,212.776142 253,212.5 C253,212.223858 252.776142,212 252.5,212 C252.223858,212 252,212.223858 252,212.5 C252,212.776142 252.223858,213 252.5,213 Z M258.5,213 C258.223858,213 258,212.776142 258,212.5 C258,212.223858 258.223858,212 258.5,212 C258.776142,212 259,212.223858 259,212.5 C259,212.776142 258.776142,213 258.5,213 Z M259.173136,200.658223 L259.903036,201.341777 L255.1605,206.40586 L252.634313,203.696697 L253.365687,203.01472 L255.162081,204.94123 L259.173136,200.658223 Z" id="button-in-cart_Combined-Shape" />
        </g>
    </g>
</symbol><symbol viewBox="0 0 11 10" id="in-cart">
    <g id="in-cart_Symbols" stroke="none" stroke-width="1">
        <g id="in-cart_ribbon-/-5.-in-cart" transform="translate(-16.000000, -6.000000)">
            <path d="M21.2675171,14.0000817 C21.0823472,14.0000829 20.9040031,14.0000841 20.7324848,14.000085 C20.3866875,13.4022368 19.7403174,13 19,13 C18.2781459,13 17.6456117,13.3824235 17.2939452,13.9557226 C17.1421642,13.8869543 17.0308409,13.7445786 17.0055242,13.5741447 C16.3397621,10.2462163 16.006881,8.58225214 16.006881,8.58225214 C15.9889821,8.47485778 16.0067447,8.36975967 16.0515251,8.27905932 C16.0586802,8.14329154 16.1595893,8.02619214 16.3459755,8.00005264 C16.4510802,7.99998346 16.5055868,7.99998346 16.5094953,8.00005264 C21.9928665,8.01533368 24.7344407,8.02363009 24.7342177,8.02494189 C24.9138798,6.96778196 25.0037684,6.43881308 25.0038833,6.43803528 C25.0358103,6.18261802 25.2551083,5.99640582 25.5066516,6.00005264 L26.5000028,6.00005264 C26.7761436,6.00005264 27,6.22391027 27,6.50005264 C27,6.77619502 26.7761436,7.00005264 26.5000028,7.00005264 L25.9414082,7.00005264 L24.9969839,13.5554891 C24.977352,13.7334723 24.864302,13.8833146 24.705553,13.954905 C24.3537869,13.38206 23.7215109,13 23,13 C22.2596839,13 21.6133149,13.4022353 21.2675171,14.0000817 Z M23,14 C23.5522847,14 24,14.4477153 24,15 C24,15.5522847 23.5522847,16 23,16 C22.4477153,16 22,15.5522847 22,15 C22,14.4477153 22.4477153,14 23,14 Z M19,14 C19.5522847,14 20,14.4477153 20,15 C20,15.5522847 19.5522847,16 19,16 C18.4477153,16 18,15.5522847 18,15 C18,14.4477153 18.4477153,14 19,14 Z" id="in-cart_icon_in-cart" />
        </g>
    </g>
</symbol><symbol viewBox="0 0 10 10" id="in-library">
    <g id="in-library_Symbols" stroke="none" stroke-width="1">
        <g id="in-library_ribbon-/-6.-in-library" transform="translate(-16.000000, -6.000000)">
            <path d="M21,11.5454545 L19.1818182,9.63636364 L17.8181818,11.0909091 L21,14.3636364 L26,7.72727273 C26,7.72727273 26,7.72727273 26,7.81818182 L26,14.1818182 C26,15.1818182 25.1818182,16 24.1818182,16 L17.8181818,16 C16.8181818,16 16,15.1818182 16,14.1818182 L16,7.81818182 C16,6.81818182 16.8181818,6 17.8181818,6 L24.1818182,6 C24.5454545,6 24.8181818,6.09090909 25.0909091,6.27272727 L21,11.5454545 Z" id="in-library_icon_in-library" />
        </g>
    </g>
</symbol><symbol viewBox="0 0 10 10" id="is-upcoming">
    <g id="is-upcoming_Symbols" stroke="none" stroke-width="1">
        <g id="is-upcoming_ribbon-/-2.-soon" transform="translate(-16.000000, -6.000000)">
            <path d="M25.6615721,9.91763367 L16.3384279,9.91763367 C16.1528384,9.91763367 16,10.0638444 16,10.2198025 L16,15.1909673 C16,15.6393469 16.4039301,16 16.9061135,16 L25.0938865,16 C25.5960699,16 26,15.6393469 26,15.1909673 L26,10.2198025 C26,10.0638444 25.8471616,9.91763367 25.6615721,9.91763367 Z M19.4061135,14.3819346 C19.4061135,14.4989032 19.3187773,14.5866296 19.1768559,14.5866296 L18.2707424,14.5866296 C18.139738,14.5866296 18.0414847,14.5086506 18.0414847,14.3819346 L18.0414847,13.5729019 C18.0414847,13.4461859 18.128821,13.3682069 18.2707424,13.3682069 L19.1768559,13.3682069 C19.3078603,13.3682069 19.4061135,13.4461859 19.4061135,13.5729019 L19.4061135,14.3819346 Z M19.4061135,12.3544792 C19.4061135,12.4714477 19.3187773,12.5591742 19.1768559,12.5591742 L18.2707424,12.5591742 C18.139738,12.5591742 18.0414847,12.4811951 18.0414847,12.3544792 L18.0414847,11.5454465 C18.0414847,11.4187305 18.128821,11.3407514 18.2707424,11.3407514 L19.1768559,11.3407514 C19.3078603,11.3407514 19.4061135,11.4187305 19.4061135,11.5454465 L19.4061135,12.3544792 Z M21.6768559,14.3819346 C21.6768559,14.4989032 21.5895197,14.5866296 21.4475983,14.5866296 L20.5414847,14.5866296 C20.4104803,14.5866296 20.3122271,14.5086506 20.3122271,14.3819346 L20.3122271,13.5729019 C20.3122271,13.4461859 20.3995633,13.3682069 20.5414847,13.3682069 L21.4475983,13.3682069 C21.5786026,13.3682069 21.6768559,13.4461859 21.6768559,13.5729019 L21.6768559,14.3819346 Z M21.6768559,12.3544792 C21.6768559,12.4714477 21.5895197,12.5591742 21.4475983,12.5591742 L20.5414847,12.5591742 C20.4104803,12.5591742 20.3122271,12.4811951 20.3122271,12.3544792 L20.3122271,11.5454465 C20.3122271,11.4187305 20.3995633,11.3407514 20.5414847,11.3407514 L21.4475983,11.3407514 C21.5786026,11.3407514 21.6768559,11.4187305 21.6768559,11.5454465 L21.6768559,12.3544792 Z M23.9585153,14.3819346 C23.9585153,14.4989032 23.871179,14.5866296 23.7292576,14.5866296 L22.8231441,14.5866296 C22.6921397,14.5866296 22.5938865,14.5086506 22.5938865,14.3819346 L22.5938865,13.5729019 C22.5938865,13.4461859 22.6812227,13.3682069 22.8231441,13.3682069 L23.7292576,13.3682069 C23.860262,13.3682069 23.9585153,13.4461859 23.9585153,13.5729019 L23.9585153,14.3819346 Z M23.9585153,12.3544792 C23.9585153,12.4714477 23.871179,12.5591742 23.7292576,12.5591742 L22.8231441,12.5591742 C22.6921397,12.5591742 22.5938865,12.4811951 22.5938865,12.3544792 L22.5938865,11.5454465 C22.5938865,11.4187305 22.6812227,11.3407514 22.8231441,11.3407514 L23.7292576,11.3407514 C23.860262,11.3407514 23.9585153,11.4187305 23.9585153,11.5454465 L23.9585153,12.3544792 Z M25.0938865,7.01372772 C25.5960699,7.01372772 26,7.38412824 26,7.8325078 L26,8.33937167 C26,8.49532978 25.8471616,8.64154051 25.6615721,8.64154051 L16.3384279,8.64154051 C16.1637555,8.64154051 16,8.50507716 16,8.33937167 L16,7.82276042 C16,7.37438085 16.4039301,7.01372772 16.9061135,7.01372772 L18.0524017,7.01372772 L18.0524017,6.60433768 C18.0524017,6.26317931 18.3689956,6 18.7292576,6 C19.1113537,6 19.4061135,6.28267408 19.4061135,6.60433768 L19.4061135,7.01372772 L22.6048035,7.01372772 L22.6048035,6.60433768 C22.6048035,6.26317931 22.9213974,6 23.2816594,6 C23.6637555,6 23.9585153,6.28267408 23.9585153,6.60433768 L23.9585153,7.01372772 L25.0938865,7.01372772 Z" id="is-upcoming_icon_soon" />
        </g>
    </g>
</symbol><symbol viewBox="0 0 11 10" id="is-wishlisted">
    <g id="is-wishlisted_Symbols" stroke="none" stroke-width="1">
        <g id="is-wishlisted_ribbon-/-4.-wishlisted" transform="translate(-16.000000, -6.000000)">
            <path d="M21.4866357,16 C21.3992738,16 21.2994317,15.9634237 21.2370304,15.9024631 L17.5428725,12.4886717 C16.8938988,11.8912582 16.4196488,11.1719236 16.1825238,10.4038206 C15.6708331,8.73350122 16.332287,7.5996348 16.9687804,6.92906864 C17.517912,6.36823148 18.2667278,6.03904446 19.0155436,6.00246812 C20.2136488,5.95369967 21.0373462,6.63645795 21.4866357,7.27044777 C21.8984843,6.70961062 22.6722607,5.95369967 23.9826883,6.00246812 C24.7315041,6.03904446 25.4803198,6.36823148 26.0294514,6.92906864 C26.6784251,7.58744269 27.3273988,8.73350122 26.815708,10.4038206 C26.578583,11.1719236 26.1168133,11.9034504 25.4678396,12.4886717 L21.7362409,15.9024631 C21.6613593,15.9634237 21.5739975,16 21.4866357,16 Z" id="is-wishlisted_icon_wishlisted" />
        </g>
    </g>
</symbol><symbol viewBox="0 0 13 12" id="linux">
    <g id="linux_atom-/-icon-/-os-/-linux" stroke="none" stroke-width="1" fill-rule="evenodd">
        <path d="M10.9003304,7.69355061 C10.6596012,7.87303635 10.1079301,7.54397917 9.83710977,7.36449343 C9.69621223,7.25991973 9.52013377,7.2134796 9.34562098,7.23486485 C9.28145739,7.82788907 9.12230494,8.40689605 8.87419296,8.94995075 L8.72373721,9.29895079 C9.23528676,9.44852223 10.0276871,9.71775083 10.0276871,10.0069223 C10.0372269,10.0630291 10.0372269,10.1203298 10.0276871,10.1764366 C10.0075632,10.4186591 9.88947314,10.6424092 9.70042137,10.7965205 C9.51136961,10.9506318 9.26752488,11.0219238 9.02464871,10.9940938 L6.71766053,10.9940938 C6.40193648,11.0019896 6.10091043,10.8615975 5.90519947,10.6151795 L5.14289033,10.6151795 C4.94717938,10.8615975 4.64615333,11.0019896 4.33042928,10.9940938 L2.01341071,10.9940938 C1.77053454,11.0219238 1.52668981,10.9506318 1.33763805,10.7965205 C1.14858629,10.6424092 1.03049626,10.4186591 1.01037237,10.1764366 C1.0054401,10.1167085 1.0054401,10.056679 1.01037237,9.99695087 C1.01037237,9.69780798 1.79274228,9.42857937 2.31432221,9.2690365 L2.16386646,8.89012217 C1.89921079,8.36374991 1.73914568,7.79157945 1.69243844,7.20495056 C1.51792565,7.18356531 1.34184719,7.23000544 1.20094966,7.33457914 C0.92009892,7.51406488 0.378458216,7.84312206 0.137729014,7.66363632 C-0.103000188,7.48415059 0.00733402979,7.33457914 0.197911315,7.11520769 C0.388488599,6.89583624 2.203988,5.40012179 2.203988,5.0012646 C2.203988,4.60240741 2.33438298,3.20640726 2.37450451,3.00697867 C2.81900919,1.7503202 4.04580559,0.937262942 5.38361954,1.01269273 L5.5240449,1.01269273 C6.87535815,0.886056238 8.1310104,1.71823766 8.53315993,3.00697867 C8.53315993,3.16652154 8.67358529,4.55255026 8.72373721,5.0012646 C8.77388913,5.44997893 10.5693278,6.89583624 10.7298139,7.11520769 C10.8903,7.33457914 11.1410596,7.53400774 10.9003304,7.69355061 Z M6.88817705,4.8317503 C7.25413183,4.66103821 7.46783709,4.27542898 7.41747025,3.87669499 C7.36710341,3.477961 7.06412774,3.15685236 6.66707711,3.08139112 C6.27002648,3.00592989 5.86926786,3.1932907 5.67450066,3.54543587 L5.51401452,3.38589299 L5.36355877,3.54543587 C5.18355107,3.18050526 4.7834552,2.97682958 4.3803882,3.044936 C3.97732121,3.11304242 3.66738455,3.43669263 3.61876925,3.84025378 C3.57015396,4.24381493 3.79445115,4.63106772 4.16994314,4.79186458 L6.88817705,4.8317503 Z M4.72161423,4.93146459 C4.7166705,4.89840817 4.7166705,4.86480672 4.72161423,4.8317503 C4.72161423,4.8317503 4.72161423,4.8317503 4.72161423,4.8317503 C4.72786963,4.78828627 4.74512634,4.74711358 4.77176615,4.71209314 C4.8749804,4.61656232 4.99366704,4.53902666 5.12282957,4.48275026 L5.89516909,4.48275026 C6.01386352,4.54155157 6.12224502,4.61899292 6.21614136,4.71209314 C6.24951854,4.73970385 6.27104276,4.77893298 6.27632366,4.82177887 C6.28083567,4.8582032 6.28083567,4.89504026 6.27632366,4.93146459 L4.72161423,4.93146459 Z M6.27632366,5.0012646 C6.27961647,5.02441613 6.27961647,5.04791308 6.27632366,5.07106461 C6.27632366,5.07106461 5.92526024,5.56963609 5.80489564,5.70923611 C5.68453104,5.84883612 5.57419682,5.81892183 5.57419682,5.81892183 C5.47949323,5.8308953 5.38616599,5.78837173 5.33346762,5.70923611 C5.21310302,5.56963609 4.84197883,5.07106461 4.84197883,5.07106461 C3.88832689,6.07262721 3.360161,7.40135449 3.36751247,8.78043645 C3.36751247,8.84026502 3.36751247,8.9000936 3.36751247,8.96989361 C3.54805937,8.96989361 3.42769477,9.20920792 3.65839359,9.20920792 C4.57115848,9.20920792 5.25322455,9.54823653 5.343498,9.98697944 C5.43520825,10.1262834 5.43520825,10.3063613 5.343498,10.4456652 L5.83498679,10.4456652 C5.71063324,10.2949324 5.71063324,10.0778837 5.83498679,9.92715086 C5.99547292,9.51832224 6.62738708,9.20920792 7.49000005,9.20920792 C7.73072925,9.20920792 7.61036465,8.93000789 7.78088117,8.96989361 C7.78929984,8.9070185 7.78929984,8.84331155 7.78088117,8.78043645 C7.83827393,7.35621602 7.27102317,5.97734865 6.22617174,5.0012646 L6.27632366,5.0012646 Z M5.89516909,4.24343594 C5.79486526,4.24343594 5.70459181,4.07392164 5.70459181,3.85455019 C5.70459181,3.63517873 5.79486526,3.46566443 5.89516909,3.46566443 C5.99547292,3.46566443 6.09577676,3.63517873 6.09577676,3.85455019 C6.09577676,4.07392164 5.95535139,4.24343594 5.84501717,4.24343594 L5.89516909,4.24343594 Z M5.24319417,4.24343594 C5.13285995,4.24343594 5.0425865,4.07392164 5.0425865,3.85455019 C5.0425865,3.63517873 5.13285995,3.46566443 5.24319417,3.46566443 C5.35352839,3.46566443 5.44380184,3.63517873 5.44380184,3.85455019 C5.44380184,4.07392164 5.30337647,4.24343594 5.19304225,4.24343594 L5.24319417,4.24343594 Z" id="linux_linux" fill-rule="nonzero" />
    </g>
</symbol><symbol viewBox="0 0 13 12" id="mac">
    <g id="mac_atom-/-icon-/-os-/-apple" stroke="none" stroke-width="1" fill-rule="evenodd">
        <path d="M8.25506918,2.51515152 C7.8632998,2.51063595 7.4737615,2.57218239 7.10430972,2.6969697 L6.89316119,2.77777778 L6.58699583,2.88888889 C6.42242671,2.95242164 6.24711057,2.98665367 6.06968195,2.98989899 C5.90478243,2.97832672 5.74362441,2.93720915 5.59459777,2.86868687 L5.34121954,2.77777778 L5.13007101,2.6969697 C4.81459689,2.57578108 4.47762366,2.5140439 4.13767295,2.51515152 C3.26918925,2.47596072 2.42949584,2.81814619 1.85726888,3.44444444 C1.2758091,4.11155987 0.971399297,4.96013903 1.00211735,5.82828283 C1.00349294,6.57969816 1.14285852,7.32503769 1.41385698,8.03030303 C1.7022169,8.76399619 2.11608141,9.44670725 2.63851842,10.0505051 C2.97636724,10.5639174 3.53158866,10.9106848 4.1587878,11 C4.38701574,10.9954657 4.61244383,10.9509598 4.82390565,10.8686869 L5.10895616,10.7676768 L5.33066211,10.6868687 C5.60363354,10.5855398 5.89307535,10.5308379 6.18581364,10.5252525 C6.41453975,10.5228092 6.64233798,10.5534584 6.86148892,10.6161616 L7.14653942,10.7272727 L7.32601567,10.7878788 C7.60991446,10.9081434 7.91362466,10.9799338 8.2233969,11 C8.5493582,10.9855957 8.86117505,10.8683921 9.1102207,10.6666667 C9.51951041,10.3462998 9.87549481,9.96823979 10.1659633,9.54545455 C10.5174766,9.07340276 10.7982115,8.5566061 11,8.01010101 C10.6247397,7.84211535 10.2875725,7.60531989 10.0076019,7.31313131 C9.8176241,7.08556093 9.66131297,6.83403909 9.54307518,6.56565657 C9.43509935,6.29133252 9.38139885,6.00018525 9.38471379,5.70707071 C9.38285633,5.32111797 9.4769415,4.94027384 9.65920687,4.5959596 C9.92196053,4.18357526 10.2839315,3.83725294 10.7149495,3.58585859 C10.1479464,2.8656091 9.24977136,2.45478174 8.30785631,2.48484848 L8.25506918,2.51515152 Z M8.11782264,5.38289951e-15 C7.70436761,0.0653484811 7.31334701,0.224694223 6.9776206,0.464646465 C6.65359449,0.706683914 6.38423124,1.00907327 6.18581364,1.35353535 C6.00127777,1.66158186 5.8996943,2.00869555 5.8902057,2.36363636 C5.88312315,2.46790348 5.88312315,2.57250056 5.8902057,2.67676768 C6.31174874,2.67866299 6.72528167,2.56661905 7.08319487,2.35353535 C7.44728911,2.12216155 7.74783944,1.81035275 7.95946124,1.44444444 C8.16627077,1.09601416 8.2787737,0.703651826 8.28674146,0.303030303 C8.28674146,0.232323232 8.28674146,0.131313131 8.28674146,0 L8.09670778,0 L8.11782264,5.38289951e-15 Z" id="mac_apple" fill-rule="nonzero" />
    </g>
</symbol><symbol viewBox="0 0 13 12" id="windows">
    <g id="windows_atom-/-icon-/-os-/-windows" stroke="none" stroke-width="1" fill-rule="evenodd">
        <path d="M10.5668627,1.77275888 C10.0217162,2.0338357 9.43620347,2.20002513 8.83540696,2.26420783 C8.22521313,2.25901492 7.62246731,2.12933833 7.06391758,1.88308415 C6.96383343,1.75269973 6.81370722,2.07364599 6.81370722,2.07364599 L5.99301722,5.43355212 C5.90294149,5.68429138 5.99301722,5.7444688 5.99301722,5.7444688 C6.60132727,6.09892675 7.29106527,6.28900564 7.99470014,6.29609518 C8.68042928,6.22616754 9.35367728,6.06424647 9.99638305,5.8146758 C10.1942127,5.68266292 10.3476913,5.49390465 10.4367533,5.27307899 C10.6269132,4.38044721 10.9872161,1.8329363 10.9872161,1.8329363 C11.0873002,1.55210832 10.5668627,1.77275888 10.5668627,1.77275888 Z M9.67611378,6.62707101 C9.13282427,7.00642209 8.47441677,7.18378748 7.81454867,7.12854954 C7.16584231,7.09616149 6.53730629,6.8919746 5.99301722,6.53680488 C5.89293308,6.40642046 5.74280686,6.73739629 5.74280686,6.73739629 L4.99217577,10.177539 C4.89209162,10.4483374 4.99217577,10.4483374 4.99217577,10.4483374 C5.6291195,10.8127857 6.35048308,11.0030195 7.08393441,10.9999638 C7.70989363,10.9109744 8.321995,10.7424592 8.90546586,10.4984852 C9.10596954,10.3694479 9.2602223,10.1797376 9.3458361,9.95688842 L10.066442,6.63710058 C10.1965513,6.43650917 9.67611378,6.62707101 9.67611378,6.62707101 Z M4.99217577,6.50671616 C4.38022374,6.12367589 3.70077551,5.86153537 2.99049285,5.73443923 C2.38365141,5.80197303 1.78186374,5.90918365 1.18897823,6.05538549 C0.993564451,6.1900444 0.840743987,6.37799324 0.748607989,6.5969823 C0.558448112,7.48961408 0.0179937251,10.0672137 0.0179937251,10.0672137 C-0.10210725,10.3380121 0.418330308,10.1173616 0.418330308,10.1173616 C0.952986606,9.73485128 1.59294645,9.52808929 2.24987017,9.52561689 C2.91476481,9.59582869 3.54626581,9.85313559 4.07140162,10.2678051 C4.17148577,10.3981895 4.32161199,10.0672137 4.32161199,10.0672137 L4.99217577,6.81763285 C5.07224308,6.56689359 4.99217577,6.50671616 4.99217577,6.50671616 Z M1.35912128,5.43355212 C1.94662128,5.11639676 2.62028196,4.99685052 3.28073687,5.09254672 C3.91551767,5.13249306 4.52766676,5.34390564 5.05222625,5.70435052 C5.1523104,5.83473494 5.30243662,5.51378868 5.30243662,5.51378868 L6.15315185,1.90314329 C6.24322759,1.64237446 6.15315185,1.59222661 6.15315185,1.59222661 C5.49696702,1.20800808 4.75131366,1.00390372 3.99133431,1.00048194 C3.34451947,0.989250085 2.70947291,1.17457214 2.16980286,1.53204918 C1.97197324,1.66406206 1.81849464,1.85282033 1.72943262,2.07364599 C1.5793064,2.9562482 0.988809938,5.37337469 0.988809938,5.37337469 C0.848692134,5.65420267 1.35912128,5.43355212 1.35912128,5.43355212 Z" id="windows_windows" />
    </g>
</symbol></defs><use id="button-add-to-cart-usage" xlink:href="#button-add-to-cart" class="sprite-symbol-usage" /><use id="button-in-cart-usage" xlink:href="#button-in-cart" class="sprite-symbol-usage" /><use id="in-cart-usage" xlink:href="#in-cart" class="sprite-symbol-usage" /><use id="in-library-usage" xlink:href="#in-library" class="sprite-symbol-usage" /><use id="is-upcoming-usage" xlink:href="#is-upcoming" class="sprite-symbol-usage" /><use id="is-wishlisted-usage" xlink:href="#is-wishlisted" class="sprite-symbol-usage" /><use id="linux-usage" xlink:href="#linux" class="sprite-symbol-usage" /><use id="mac-usage" xlink:href="#mac" class="sprite-symbol-usage" /><use id="windows-usage" xlink:href="#windows" class="sprite-symbol-usage" /></svg>