<svg style="height: 0; width: 0; position: absolute;" xmlns="http://www.w3.org/2000/svg" xmlns:xlink="http://www.w3.org/1999/xlink"><defs><style>
    .sprite-symbol-usage {display: none;}
    .sprite-symbol-usage:target {display: inline;}
  </style><symbol viewBox="0 0 7 5" id="icon-arrow"><path d="M3.5 3.08l-2.43-3-.91.81L3.5 4.93 6.84.89 5.93.07z" /></symbol><symbol viewBox="0 0 24 24" id="icon-cart"><path d="m3.00386757 21c0 1.657 1.343 3 3 3s3-1.343 3-3-1.343-3-3-3-3 1.343-3 3zm4 0c0 .551-.449 1-1 1s-1-.449-1-1 .449-1 1-1 1 .449 1 1zm7.00334203 0c0-1.657 1.343-3 3-3s3 1.343 3 3-1.343 3-3 3-3-1.343-3-3zm4 0c0-.551-.449-1-1-1s-1 .449-1 1 .449 1 1 1 1-.449 1-1zm1.9974894-5h-17.559899l-2.445-11h2.99656964c.55228475 0 1 .44771525 1 1s-.44771525 1-1 1h-.50356964l1.556 7h14.331l2-14h2.6202c.5522847 0 1 .44771525 1 1s-.4477153 1-1 1h-.8862zm-5.004899-11v2h-3v3h-2v-3h-3v-2h3v-3h2v3z" fill-rule="evenodd" /></symbol><symbol viewBox="0 0 40 40" id="icon-chevron-circled"><path d="M20 38a18 18 0 1 1 0-36 18 18 0 0 1 0 36zm4.2-18.1l-7.8-7.8c.4.4 1 .4 1.4 0l-1.4 1.4c.4-.4.4-1 0-1.4l5.7 5.7a3 3 0 0 1 0 4.2l-5.7 5.7c.4-.4.4-1 0-1.4l1.4 1.4a1 1 0 0 0-1.4 0l7.8-7.8z" stroke-width="4" fill-rule="evenodd" /></symbol><symbol viewBox="0 0 15 13" id="icon-comment">
    <path d="M7.33870968,0 C3.28521925,0 0,2.7015625 0,6.03571429 C0,7.475 0.613470262,8.79241071 1.63400958,9.82834821 C1.27567414,11.2908482 0.0774004536,12.59375 0.0630670363,12.6082589 C0,12.675 -0.0172001008,12.7736607 0.0200667843,12.8607143 C0.0573336694,12.9477679 0.137600806,13 0.229334677,13 C2.12994582,13 3.5546875,12.0772321 4.25989163,11.5084821 C5.19729713,11.8654018 6.23790323,12.0714286 7.33870968,12.0714286 C11.3922001,12.0714286 14.6774194,9.36986607 14.6774194,6.03571429 C14.6774194,2.7015625 11.3922001,0 7.33870968,0 Z" id="icon-comment_Shape" />
</symbol><symbol viewBox="0 0 18 18" id="icon-compass">
    <defs>
        <path d="M9,18 C13.9705627,18 18,13.9705627 18,9 C18,4.02943725 13.9705627,0 9,0 C4.02943725,0 0,4.02943725 0,9 C0,13.9705627 4.02943725,18 9,18 Z M7.05650647,6.43582549 L13.3771904,4.0616552 C13.8735247,3.87522254 14.125034,4.12569428 13.9383187,4.6227864 L11.5641609,10.9435038 C11.4705622,11.1926916 11.1934591,11.4702826 10.9434935,11.5641745 L4.62280957,13.9383448 C4.12647533,14.1247775 3.874966,13.8743057 4.06168135,13.3772136 L6.43583907,7.05649618 C6.52943777,6.80730843 6.80654087,6.52971736 7.05650647,6.43582549 Z M9,10 C9.55228475,10 10,9.55228475 10,9 C10,8.44771525 9.55228475,8 9,8 C8.44771525,8 8,8.44771525 8,9 C8,9.55228475 8.44771525,10 9,10 Z" id="icon-compass_path-1" />
    </defs>
    <g id="icon-compass_atom-/-icon-/-header-/-discover" stroke="none" stroke-width="1" fill-rule="evenodd">
        
        <use id="icon-compass_discover" fill-rule="nonzero" xlink:href="#icon-compass_path-1" />
    </g>
</symbol><mask id="icon-compass_mask-2" fill="white">
            <use xlink:href="#icon-compass_path-1" />
        </mask><symbol viewBox="0 0 57 69.5" id="icon-connect-gog"><style>#icon-connect-gog .st1{fill-rule:evenodd;clip-rule:evenodd;fill:#fff}</style><g id="icon-connect-gog_Page-1"><g id="icon-connect-gog_GOG-Connect-banner" transform="translate(-1185 -18)"><g transform="translate(1225 57)" id="icon-connect-gog_gog_connect-desktop"><g id="icon-connect-gog_Group-25"><g id="icon-connect-gog_Group-3" transform="translate(0 .989)"><defs><filter id="icon-connect-gog_Adobe_OpacityMaskFilter" filterUnits="userSpaceOnUse" x="-39.9" y="-39.8" width="56.5" height="53.8"><feColorMatrix values="1 0 0 0 0 0 1 0 0 0 0 0 1 0 0 0 0 0 1 0"></feColorMatrix></filter></defs><path id="icon-connect-gog_Fill-1" d="M10.5-14c0 1.4-1.1 2.5-2.5 2.5H-2.5v-3.2h8.9c.5 0 .9-.4.9-1v-10.5c0-.5-.4-.9-.9-.9H1.6c-.5 0-.9.4-.9.9v4.8c0 .5.4.9.9.9h3.8v3.2H-.1c-1.4 0-2.5-1.1-2.5-2.5v-8.1c0-1.4 1.1-2.5 2.5-2.5H8c1.4 0 2.5 1.1 2.5 2.5V-14zm0 18.4H7.3v-9.7H5.2c-.5 0-.9.4-.9.9v8.8H1.1v-9.7h-2.2c-.5 0-.9.4-.9.9v8.8h-3.1V-6c0-1.3 1.1-2.4 2.4-2.4h13.2V4.4zm-18-21.7h-8.1c-1.4 0-2.5-1.1-2.5-2.5v-8.1c0-1.4 1.1-2.5 2.5-2.5h8.1c1.4 0 2.5 1.1 2.5 2.5v8.1c-.1 1.4-1.2 2.5-2.5 2.5zM-7.7 2c0 1.3-1.1 2.4-2.4 2.4h-8c-1.3 0-2.4-1.1-2.4-2.4v-8c0-1.3 1.1-2.4 2.4-2.4h8c1.3 0 2.4 1.1 2.4 2.4v8zm-12.9-16c0 1.4-1.1 2.5-2.5 2.5h-10.6v-3.2h8.9c.5 0 .9-.4.9-1v-10.5c0-.5-.4-.9-.9-.9h-4.8c-.5 0-.9.4-.9.9v4.8c0 .5.4.9.9.9h3.8v3.2h-5.5c-1.4 0-2.5-1.1-2.5-2.5v-8.1c0-1.4 1.1-2.5 2.5-2.5h8.1c1.4 0 2.5 1.1 2.5 2.5V-14zM-23-5.3h-6.6c-.5 0-.9.4-.9.9V.3c0 .5.4.9.9.9H-23v3.1h-8.2c-1.3 0-2.4-1.1-2.4-2.4v-8c0-1.3 1.1-2.4 2.4-2.4h8.2v3.2zm36.1-34.5h-49.4c-2 0-3.6 1.6-3.6 3.6v46.6c0 2 1.6 3.6 3.6 3.6h49.4c2 0 3.6-1.6 3.6-3.6v-46.6c0-2-1.6-3.6-3.6-3.6z" mask="url(#icon-connect-gog_mask-2_1_)" fill-rule="evenodd" clip-rule="evenodd" fill="#fff" /></g><path id="icon-connect-gog_Fill-4" class="st1" d="M-9.2-26.1c.5 0 .9.4.9.9v4.8c0 .5-.4.9-.9.9H-14c-.5 0-.9-.4-.9-.9v-4.8c0-.5.4-.9.9-.9h4.8" /><path id="icon-connect-gog_Fill-6" class="st1" d="M-11.7-4.3c.5 0 .9.4.9.9v4.7c0 .5-.4.9-.9.9h-4.7c-.5 0-.9-.4-.9-.9v-4.7c0-.5.4-.9.9-.9h4.7" /><g id="icon-connect-gog_Group-10" transform="translate(0 60.989)"><defs><filter id="icon-connect-gog_Adobe_OpacityMaskFilter_1_" filterUnits="userSpaceOnUse" x="-39.9" y="-39.2" width="7.1" height="8.3"><feColorMatrix values="1 0 0 0 0 0 1 0 0 0 0 0 1 0 0 0 0 0 1 0"></feColorMatrix></filter></defs><path id="icon-connect-gog_Fill-8" d="M-34-31.1c-.5.1-1 .2-1.5.2-.7 0-1.2-.1-1.8-.3-.5-.2-1-.5-1.4-.9-.4-.4-.7-.8-.9-1.3s-.3-1.1-.3-1.7c0-.6.1-1.2.3-1.7.2-.5.5-1 .8-1.3.4-.4.8-.6 1.3-.8.5-.2 1.1-.3 1.7-.3.3 0 .6 0 .9.1.3 0 .5.1.8.2.2.1.5.2.7.3.2.1.4.3.6.4l-.3.5c0 .1-.1.1-.2.1s-.2 0-.3-.1c-.1-.1-.2-.1-.3-.2-.1-.1-.3-.1-.4-.2-.2-.1-.4-.1-.6-.2-.2 0-.5-.1-.8-.1-.5 0-.9.1-1.2.2-.4.2-.7.4-1 .6s-.5.6-.6 1c-.1.4-.2.8-.2 1.3s.1 1 .2 1.4c.1.4.4.7.6 1 .3.3.6.5 1 .6.4.1.8.2 1.3.2h.5c.2 0 .3-.1.5-.1s.3-.1.4-.1c.1-.1.3-.1.4-.2V-34H-35c-.1 0-.1 0-.2-.1 0 0-.1-.1-.1-.2v-.6h2.5v3.1c-.3.4-.8.6-1.2.7" mask="url(#icon-connect-gog_mask-4_1_)" fill-rule="evenodd" clip-rule="evenodd" fill="#fff" /></g><path id="icon-connect-gog_Fill-11" class="st1" d="M-24.2 26c0-.5-.1-1-.2-1.4-.1-.4-.3-.7-.6-1-.3-.3-.6-.5-.9-.6-.4-.1-.8-.2-1.2-.2-.4 0-.8.1-1.2.2-.4.1-.7.4-.9.6-.3.3-.4.6-.6 1-.1.4-.2.9-.2 1.4 0 .5.1.9.2 1.3s.3.7.6 1c.3.3.6.5.9.6.4.1.8.2 1.2.2.4 0 .8-.1 1.2-.2.4-.1.7-.4.9-.6.3-.3.4-.6.6-1 .2-.4.2-.8.2-1.3m1.2 0c0 .6-.1 1.2-.3 1.7-.2.5-.5.9-.8 1.3-.4.4-.8.7-1.3.9-.5.2-1 .3-1.6.3-.6 0-1.1-.1-1.6-.3-.5-.2-.9-.5-1.3-.9s-.6-.8-.8-1.3c-.2-.5-.3-1.1-.3-1.7 0-.6.1-1.2.3-1.7.2-.5.5-.9.8-1.3.4-.4.8-.7 1.3-.9.5-.2 1-.3 1.6-.3.6 0 1.1.1 1.6.3.5.2.9.5 1.3.9s.6.8.8 1.3c.2.5.3 1.1.3 1.7" /><g id="icon-connect-gog_Group-15" transform="translate(18 60.989)"><defs><filter id="icon-connect-gog_Adobe_OpacityMaskFilter_2_" filterUnits="userSpaceOnUse" x="-39.5" y="-39.2" width="7.1" height="8.3"><feColorMatrix values="1 0 0 0 0 0 1 0 0 0 0 0 1 0 0 0 0 0 1 0"></feColorMatrix></filter></defs><path id="icon-connect-gog_Fill-13" d="M-33.7-31.1c-.5.1-1 .2-1.5.2-.7 0-1.2-.1-1.8-.3-.5-.2-1-.5-1.4-.9-.4-.4-.7-.8-.9-1.3-.2-.5-.3-1.1-.3-1.7 0-.6.1-1.2.3-1.7.2-.5.5-1 .8-1.3.4-.4.8-.6 1.3-.8.5-.2 1.1-.3 1.7-.3.3 0 .6 0 .9.1.3 0 .5.1.8.2.2.1.5.2.7.3.2.1.4.3.6.4l-.3.5c0 .1-.1.1-.2.1s-.2 0-.3-.1c-.1-.1-.2-.1-.3-.2s-.3-.1-.4-.2c-.2-.1-.4-.1-.6-.2-.2 0-.5-.1-.8-.1-.5 0-.9.1-1.2.2-.4.2-.7.4-1 .6s-.5.6-.6 1c-.1.4-.2.8-.2 1.3s.1 1 .2 1.4c.1.4.4.7.6 1 .3.3.6.5 1 .6.4.1.8.2 1.3.2h.5c.2 0 .3-.1.5-.1s.3-.1.4-.1c.1-.1.3-.1.4-.2V-34h-1.3c-.1 0-.1 0-.2-.1 0 0-.1-.1-.1-.2v-.6h2.5v3.1c-.2.4-.6.6-1.1.7" mask="url(#icon-connect-gog_mask-6_1_)" fill-rule="evenodd" clip-rule="evenodd" fill="#fff" /></g><path id="icon-connect-gog_Fill-16" class="st1" d="M-12.5 29.4c0-.1 0-.2.1-.3 0-.1.1-.2.1-.2l.2-.2c.1 0 .2-.1.3-.1.1 0 .2 0 .3.1.1 0 .2.1.2.2l.2.2c0 .1.1.2.1.3 0 .1 0 .2-.1.3 0 .1-.1.2-.2.2l-.2.2c-.1 0-.2.1-.3.1-.1 0-.2 0-.3-.1-.1 0-.2-.1-.2-.2-.1-.1-.1-.1-.1-.2s-.1-.2-.1-.3" /><path id="icon-connect-gog_Fill-18" class="st1" d="M-3.4 28.4c.1 0 .1 0 .2.1l.4.5c-.3.4-.7.7-1.2.9-.5.2-1.1.3-1.7.3-.6 0-1.1-.1-1.6-.3-.5-.2-.9-.5-1.2-.9-.3-.4-.6-.8-.8-1.3-.2-.5-.3-1.1-.3-1.7 0-.6.1-1.2.3-1.7.2-.5.5-1 .8-1.3.4-.4.8-.7 1.3-.9.5-.2 1-.3 1.6-.3.6 0 1.1.1 1.5.3.4.2.8.4 1.2.8l-.4.5-.1.1h-.1c-.1 0-.2 0-.3-.1-.1-.1-.2-.2-.4-.2-.2-.1-.4-.2-.6-.2-.2-.1-.5-.1-.9-.1s-.8.1-1.2.2c-.4.1-.7.4-.9.6-.3.3-.4.6-.6 1-.1.3-.1.8-.1 1.3s.1 1 .2 1.4c.1.4.3.7.6 1 .3.3.6.5.9.6.3.1.7.2 1.1.2h.7c.2 0 .4-.1.5-.1.2-.1.3-.1.5-.2.1-.1.3-.2.4-.3 0-.2.1-.2.2-.2" /><path id="icon-connect-gog_Fill-20" class="st1" d="M5.1 26c0-.5-.1-1-.2-1.4-.1-.4-.3-.7-.6-1-.3-.3-.6-.5-.9-.6-.4-.1-.8-.2-1.2-.2-.4 0-.8.1-1.2.2-.4.1-.7.4-.9.6-.3.3-.4.6-.6 1-.2.4-.2.9-.2 1.4 0 .5.1.9.2 1.3s.3.7.6 1c.2.3.5.5.9.7.4.1.8.2 1.2.2.4 0 .8-.1 1.2-.2.4-.1.7-.4.9-.6.3-.3.4-.6.6-1 .1-.5.2-.9.2-1.4m1.1 0c0 .6-.1 1.2-.3 1.7-.2.5-.5.9-.8 1.3-.4.4-.8.7-1.3.9-.5.2-1 .3-1.6.3-.6 0-1.1-.1-1.6-.3-.6-.3-1-.6-1.3-.9-.4-.4-.6-.8-.8-1.3-.2-.5-.3-1.1-.3-1.7 0-.6.1-1.2.3-1.7.2-.5.5-.9.8-1.3.4-.4.8-.7 1.3-.9.5-.2 1-.3 1.6-.3.6 0 1.1.1 1.6.3.5.2.9.5 1.3.9s.6.8.8 1.3c.2.5.3 1.1.3 1.7" /><g id="icon-connect-gog_Group-24" transform="translate(48 60.989)"><defs><filter id="icon-connect-gog_Adobe_OpacityMaskFilter_3_" filterUnits="userSpaceOnUse" x="-39.8" y="-39.1" width="8.5" height="8.2"><feColorMatrix values="1 0 0 0 0 0 1 0 0 0 0 0 1 0 0 0 0 0 1 0"></feColorMatrix></filter></defs><path id="icon-connect-gog_Fill-22" d="M-35.7-33.6c0 .1.1.2.1.3 0-.1.1-.2.1-.3 0-.1.1-.2.1-.3l2.8-5c0-.1.1-.1.2-.2s.1 0 .2 0h.8v8.2h-1v-6-.3-.3l-2.8 5.1c-.1.2-.2.3-.4.3h-.2c-.2 0-.3-.1-.4-.3l-2.9-5.1v6.6h-1v-8.2h1c.1 0 .1.1.2.2l2.8 5c.4.1.4.2.4.3" mask="url(#icon-connect-gog_mask-8_1_)" fill-rule="evenodd" clip-rule="evenodd" fill="#fff" /></g></g></g></g></g></symbol><mask maskUnits="userSpaceOnUse" x="-39.9" y="-39.8" width="56.5" height="53.8" id="icon-connect-gog_mask-2_1_"><g filter="url(#icon-connect-gog_Adobe_OpacityMaskFilter)"><path id="icon-connect-gog_path-1_1_" class="st1" d="M-39.9-39.8h56.6V14h-56.6z" /></g></mask><mask maskUnits="userSpaceOnUse" x="-39.9" y="-39.2" width="7.1" height="8.3" id="icon-connect-gog_mask-4_1_"><g filter="url(#icon-connect-gog_Adobe_OpacityMaskFilter_1_)"><path id="icon-connect-gog_path-3_1_" class="st1" d="M-39.9-39.2h7.2v8.3h-7.2z" /></g></mask><mask maskUnits="userSpaceOnUse" x="-39.5" y="-39.2" width="7.1" height="8.3" id="icon-connect-gog_mask-6_1_"><g filter="url(#icon-connect-gog_Adobe_OpacityMaskFilter_2_)"><path id="icon-connect-gog_path-5_1_" class="st1" d="M-39.5-39.2h7.1v8.3h-7.1z" /></g></mask><mask maskUnits="userSpaceOnUse" x="-39.8" y="-39.1" width="8.5" height="8.2" id="icon-connect-gog_mask-8_1_"><g filter="url(#icon-connect-gog_Adobe_OpacityMaskFilter_3_)"><path id="icon-connect-gog_path-7_1_" class="st1" d="M-39.8-39.1h8.5v8.2h-8.5z" /></g></mask><symbol viewBox="0 0 86.6 69.7" id="icon-connect-steam"><style>#icon-connect-steam .st0{fill-rule:evenodd;clip-rule:evenodd;fill:#fff}</style><g id="icon-connect-steam_Page-1"><g id="icon-connect-steam_GOG-Connect-banner" transform="translate(-1031 -19)"><g transform="translate(1068 57)" id="icon-connect-steam_gog_connect-desktop"><g id="icon-connect-steam_Group-19"><path id="icon-connect-steam_Fill-1" class="st0" d="M5.8-38c-11.1 0-20.2 8.5-21.1 19.4L-3.9-14c1-.7 2.1-1 3.4-1h.3l5-7.3v-.1c0-4.4 3.6-7.9 8-7.9s8 3.6 8 7.9-3.6 7.9-8 7.9h-.2L5.4-9.3v.3c0 3.3-2.7 6-6 6-2.9 0-5.3-2.1-5.9-4.8l-8.1-3.3C-12-2.4-3.9 4.1 5.8 4.1c11.7 0 21.2-9.4 21.2-21C27-28.6 17.5-38 5.8-38" /><path id="icon-connect-steam_Fill-3" class="st0" d="M-2-6l-2.6-1.1c.5 1 1.3 1.8 2.3 2.2C0-4 2.6-5 3.6-7.3c.5-1.1.5-2.3 0-3.4s-1.3-2-2.4-2.4c-1.1-.5-2.3-.4-3.3-.1l2.7 1.1c1.6.7 2.4 2.6 1.7 4.3C1.6-6.1-.3-5.3-2-6" /><path id="icon-connect-steam_Fill-5" class="st0" d="M8.8-22.4c0-2.2 1.8-4 4-4s4 1.8 4 4-1.8 4-4 4-4-1.8-4-4m9.3 0c0-2.9-2.4-5.3-5.3-5.3s-5.3 2.4-5.3 5.3 2.4 5.3 5.3 5.3 5.3-2.3 5.3-5.3" /><path id="icon-connect-steam_Fill-7" class="st0" d="M47 17.5h.4c.3 0 .4-.2.4-.4s-.1-.3-.4-.3H47v.7zm.4-1c.6 0 .8.3.8.6s-.2.5-.4.6l.5 1h-.4l-.4-.8H47v.8h-.3v-2.2h.7zm-1.8 1.1c0 1.1.8 1.9 1.8 1.9s1.8-.7 1.8-1.9c0-1.1-.8-1.8-1.8-1.8-1-.1-1.8.6-1.8 1.8zm4 0c0 1.4-1 2.2-2.2 2.2-1.2 0-2.2-.9-2.2-2.2 0-1.4 1-2.2 2.2-2.2 1.2 0 2.2.8 2.2 2.2z" /><path id="icon-connect-steam_Fill-9" class="st0" d="M-25.6 16.9l-1.4 2.5c-1.1-.8-2.6-1.2-3.9-1.2-1.5 0-2.4.6-2.4 1.7 0 1.3 1.6 1.6 4 2.5 2.6.9 4.1 2 4.1 4.3 0 3.2-2.6 5.1-6.2 5.1-1.8 0-3.9-.5-5.6-1.5l1-2.8c1.3.7 3 1.1 4.4 1.1 1.9 0 2.9-.7 2.9-1.8 0-1.2-1.4-1.6-3.7-2.3-2.6-.9-4.4-2-4.4-4.6 0-3 2.4-4.6 5.8-4.6 2.4 0 4.3.8 5.4 1.6" /><path id="icon-connect-steam_Fill-11" class="st0" d="M-14.3 18.4v13.1h-3.3V18.4h-4.9v-2.8h13v2.8z" /><path id="icon-connect-steam_Fill-13" class="st0" d="M-2.7 18.4V22h6.4v2.9h-6.4v3.7h7.4v2.9H-6V15.6H4.7v2.8z" /><path id="icon-connect-steam_Fill-15" class="st0" d="M15.3 19.4l-2.2 6.4h4.4l-2.2-6.4zm-3.1 9l-1.1 3.1H7.6l6-15.9H17l6.1 15.9h-3.6l-1.1-3.1h-6.2z" /><path id="icon-connect-steam_Fill-17" class="st0" d="M40 21.7L35.6 31h-1.9l-4.3-9.2v9.7h-3.2V15.6h3.2L34.8 27 40 15.6h3.2v15.9H40z" /></g></g></g></g></symbol><symbol viewBox="0 0 32 32" id="icon-curated">
    <g id="icon-curated_icon2" stroke-width="1" fill-rule="evenodd">
        <path d="M11,11 L11,14 L8,14 C6.34314575,14 5,15.3431458 5,17 L5,21 C5,22.6568542 6.34314575,24 8,24 L24,24 C25.6568542,24 27,22.6568542 27,21 L27,17 C27,15.3431458 25.6568542,14 24,14 L21,14 L21,11 C21,9.34314575 19.6568542,8 18,8 L14,8 C12.3431458,8 11,9.34314575 11,11 Z" id="icon-curated_Combined-Shape" stroke-width="2" />
        <path d="M16,12 L16,13.9367299" id="icon-curated_Path-3" stroke-width="2" stroke-linecap="round" stroke-linejoin="round" />
    </g>
</symbol><symbol viewBox="0 0 18 18" id="icon-discount-stamp">
    <defs>
        <path d="M17.9195153,6.2199594 C18.0454739,6.59435971 18.0043697,7.00206914 17.8059533,7.34637193 L16.8487874,9 L17.8140649,10.6536281 C18.0133693,10.9979091 18.054482,11.40619 17.9275583,11.7807044 C17.8006346,12.1552188 17.5171039,12.462242 17.1448599,12.6282545 L15.3562575,13.4258869 L15.1169661,15.3032411 C15.0677109,15.6946185 14.850873,16.0486689 14.5184751,16.2804499 C14.1860771,16.5122309 13.7681156,16.6008262 13.3648658,16.5249804 L11.4302551,16.1631277 L10.0715662,17.5482844 C9.79191751,17.8363768 9.4000319,18 8.98968487,18 C8.57933785,18 8.18745224,17.8363768 7.90780352,17.5482844 L6.56330991,16.1631277 L4.63681078,16.523035 C4.2338728,16.5988887 3.81620193,16.510549 3.48386738,16.2791812 C3.15153282,16.0478134 2.93447935,15.6942646 2.88471051,15.3032411 L2.64541904,13.4258869 L0.856816689,12.6282545 C0.484572725,12.462242 0.201041967,12.1552188 0.0741182659,11.7807044 C-0.0528054349,11.40619 -0.0116926817,10.9979091 0.187611727,10.6536281 L1.14477761,9 L0.187611727,7.34637193 C-0.0122184183,7.00307034 -0.0545155892,6.59558842 0.0708197586,6.22122301 C0.196155106,5.84685761 0.477872679,5.53921234 0.848705114,5.37174548 L2.63730747,4.57411312 L2.87659894,2.6967589 C2.92585409,2.30538146 3.14269203,1.95133113 3.47508994,1.7195501 C3.80748785,1.48776907 4.22544944,1.39917377 4.6286992,1.47501957 L6.56330991,1.8368723 L7.91591509,0.451715617 C8.19556381,0.163623163 8.58744942,-1.72790207e-16 8.99779645,0 C9.40814348,1.72790207e-16 9.80002908,0.163623163 10.0796778,0.451715617 L11.4302551,1.8368723 L13.3567542,1.47696502 C13.7596922,1.4011113 14.1773631,1.48945096 14.5096976,1.7208188 C14.8420322,1.95218663 15.0590857,2.30573543 15.1088545,2.6967589 L15.348146,4.57411312 L17.1367483,5.37174548 C17.5087146,5.53846902 17.7920918,5.84553928 17.9195153,6.2199594 Z M11.993525,6.20311045 C12.1269032,6.02943426 12.1542537,5.81165116 12.0700726,5.62259081 C11.9858915,5.43353047 11.8029679,5.30191566 11.5902073,5.27732439 C11.3774467,5.25273313 11.1671725,5.33890142 11.0385929,5.50337051 L6.00480555,11.8148406 C5.80603883,12.0690878 5.85974959,12.4297769 6.1247719,12.6204623 C6.3897942,12.8111477 6.76576949,12.7596206 6.96453623,12.5053735 L11.993525,6.20311045 Z M11.5880388,9.07572706 C10.5391637,9.0832459 9.69081087,9.8971069 9.68297337,10.9033373 L9.68297337,11.2831304 C9.68297335,11.9360726 10.0460768,12.5394162 10.635506,12.8658873 C11.2249353,13.1923584 11.9511422,13.1923584 12.5405715,12.8658873 C13.1300008,12.5394162 13.4931042,11.9360726 13.4931042,11.2831304 L13.4931042,10.9033373 C13.4852667,9.8971069 12.6369138,9.0832459 11.5880388,9.07572706 Z M12.2934408,11.2854321 C12.2934408,11.6591755 11.9776216,11.9621543 11.5880388,11.9621543 C11.198456,11.9621543 10.8826367,11.6591755 10.8826367,11.2854321 L10.8826367,10.9033373 C10.8826367,10.529594 11.198456,10.2266151 11.5880388,10.2266151 C11.9776216,10.2266151 12.2934408,10.529594 12.2934408,10.9033373 L12.2934408,11.2854321 Z M8.32015581,6.72561363 C8.32015581,5.71625236 7.46722898,4.89800338 6.41509042,4.89800338 C5.36295185,4.89800338 4.51002502,5.71625236 4.51002502,6.72561363 L4.51002502,7.10540669 C4.51002502,8.11476796 5.36295185,8.93301694 6.41509042,8.93301694 C7.46722898,8.93301694 8.32015581,8.11476796 8.32015581,7.10540669 L8.32015581,6.72561363 Z M5.70968837,7.10540669 L5.70968837,6.72561363 C5.70968837,6.35187029 6.02550762,6.04889145 6.41509042,6.04889145 C6.80467321,6.04889145 7.12049246,6.35187029 7.12049246,6.72561363 L7.12049246,7.10540669 C7.12049246,7.47915003 6.80467321,7.78212887 6.41509042,7.78212887 C6.02550762,7.78212887 5.70968837,7.47915003 5.70968837,7.10540669 Z" id="icon-discount-stamp_path-1" />
    </defs>
    <g id="icon-discount-stamp_atom-/-icon-/-header-/-on-sale" stroke="none" stroke-width="1" fill-rule="evenodd">
        
        <use id="icon-discount-stamp_on-sale" fill-rule="nonzero" xlink:href="#icon-discount-stamp_path-1" />
    </g>
</symbol><mask id="icon-discount-stamp_mask-2" fill="white">
            <use xlink:href="#icon-discount-stamp_path-1" />
        </mask><symbol viewBox="0 0 18 18" id="icon-fire">
    <defs>
        <path id="icon-fire_path-1" d="M15,12.8632091 C15,15.7002059 11.6978603,18 7.62438464,18 C3.55199083,18 0.786865294,16.5825127 0.232325644,13.5048867 C0.00254760973,12.2291705 -0.625988359,10.5935218 2.0346336,6.82096985 C2.26246437,7.62329152 2.97862756,9.34589028 4.38044667,9.79142479 C3.63658896,6.64257629 0.567039985,3.57618423 10.3799902,0 C9.560838,4.14574049 9.32218903,5.45673095 10.2776502,9.07066092 C10.4479283,6.55517693 11.4479604,4.41670099 12.8919704,3.83995506 C12.6329833,9.68447855 15,9.10795731 15,12.8632091 Z" />
    </defs>
    <g stroke="none" stroke-width="1" fill-rule="evenodd">
        <g transform="translate(2.000000, 0.000000)">
            
            <use fill-rule="nonzero" xlink:href="#icon-fire_path-1" />
            <g id="icon-fire_atom---fill---solid---dark-gray" mask="url(#icon-fire_mask-2)">
            </g>
        </g>
    </g>
</symbol><mask id="icon-fire_mask-2" fill="white">
                <use xlink:href="#icon-fire_path-1" />
            </mask><symbol viewBox="29.401 29.478 30.388 23.868" id="icon-good-old-games">
    <path d="M59.04,33.02l-3.95-3.12c-1.01-0.79-2.65-0.44-3.67,0.79l-4.98,5.97c-0.51,0.62-1.18,1.01-1.84,1.15 c-0.66,0.15-1.33,0.06-1.84-0.33l-4.98-3.74c-1.02-0.77-2.66-0.39-3.67,0.86l-3.95,4.89c-1.02,1.26-1.01,2.92,0.02,3.71l12.8,9.75 c0.45,0.35,1.03,0.45,1.61,0.37c0.59-0.18,1.17-0.54,1.61-1.09l12.8-15.5C60.04,35.49,60.05,33.82,59.04,33.02z M34.9,37.62 c0-0.25,0.2-0.5,0.45-0.55l1.26-0.28c0.25-0.06,0.45,0.1,0.45,0.35v1.27c0,0.25-0.2,0.49-0.45,0.55l-1.26,0.28 c-0.25,0.06-0.45-0.1-0.45-0.35V37.62z M34.5,41.56l-1.26,0.28c-0.25,0.06-0.45-0.1-0.45-0.35v-1.27c0-0.25,0.2-0.49,0.45-0.55 l1.26-0.28c0.25-0.06,0.45,0.1,0.45,0.35v1.27C34.95,41.26,34.75,41.51,34.5,41.56z M37.06,42.67c0,0.25-0.2,0.49-0.45,0.55 l-1.26,0.28c-0.25,0.06-0.45-0.1-0.45-0.35v-1.27c0-0.25,0.2-0.49,0.45-0.55l1.26-0.28c0.25-0.06,0.45,0.1,0.45,0.35V42.67z M39.18,40.06c0,0.25-0.2,0.49-0.45,0.55l-1.26,0.28c-0.25,0.06-0.45-0.1-0.45-0.35v-1.27c0-0.25,0.2-0.5,0.45-0.55l1.26-0.28 c0.25-0.06,0.45,0.1,0.45,0.35V40.06z M50.67,35.05l0.89-1.1c0.18-0.22,0.46-0.28,0.63-0.14l0.89,0.7c0.17,0.14,0.17,0.42,0,0.64 l-0.89,1.1c-0.17,0.22-0.46,0.28-0.63,0.14l-0.89-0.7C50.49,35.55,50.49,35.27,50.67,35.05z M53.09,38.15l-0.89,1.1 c-0.17,0.22-0.46,0.28-0.63,0.14l-0.89-0.7c-0.17-0.14-0.17-0.42,0-0.64l0.89-1.1c0.17-0.22,0.46-0.28,0.63-0.14l0.89,0.7 C53.27,37.65,53.27,37.94,53.09,38.15z M56.09,37.49l-0.89,1.1c-0.17,0.22-0.46,0.28-0.63,0.14l-0.89-0.7 c-0.17-0.14-0.17-0.42,0-0.64l0.89-1.1c0.17-0.22,0.46-0.28,0.63-0.14l0.89,0.7C56.26,36.99,56.26,37.27,56.09,37.49z M56.09,34.47 l-0.89,1.1c-0.17,0.22-0.46,0.28-0.63,0.14l-0.89-0.7c-0.17-0.14-0.17-0.42,0-0.64l0.89-1.1c0.17-0.22,0.46-0.28,0.63-0.14 l0.89,0.7C56.26,33.97,56.26,34.26,56.09,34.47z" />
</symbol><symbol viewBox="0 0 64 64" id="icon-highlighter"><path d="M0 58.3L11.7 62l4.2-4.1L8 50l-8 8.3zm14.6-28.1a4.3 4.3 0 0 0-1.2 4.4l1.5 5-6 6L20.2 57l6-6 5 1.5a4.3 4.3 0 0 0 4.5-1.2l4.2-4.9L19.5 26l-4.9 4.2zM62 11.4L54.6 4a6.5 6.5 0 0 0-8.8-.3L22.4 23.6l20 19.9 19.9-23.3a6.4 6.4 0 0 0-.3-8.8z" fill-rule="evenodd" /></symbol><symbol viewBox="0 0 18 18" id="icon-megaphone">
    <defs>
        <path d="M19.875,9.56251018 C19.875,8.95032173 19.4835937,8.42971546 18.9375,8.23659016 L18.9375,4.87500291 C18.9375,3.83947396 18.0980273,3 17.0625,3 C15.1586426,4.64062755 12.9014355,6.75000582 9.09375,6.75000582 L4.40625,6.75000582 C3.62958984,6.75000582 3,7.37959664 3,8.156258 L3,10.9687624 C3,11.7454237 3.62958984,12.3750145 4.40625,12.3750145 L5.6737207,12.3750145 C5.12463867,14.2690605 5.74634766,15.7845609 6.22491211,17.2804909 C6.27477539,17.4363505 6.37734375,17.5703253 6.5155957,17.6578352 C7.12438477,18.0432362 8.51818359,18.1165371 9.26285156,17.8087437 C9.73294922,17.6144172 9.84761719,17.0053342 9.48322266,16.6504313 C8.94099609,16.1223251 8.60033203,15.569082 8.90329102,14.8674794 C8.9516606,14.7556565 8.94013842,14.6269496 8.87267578,14.5254964 C8.39487305,13.8024777 8.76776367,12.7059526 9.70813477,12.3940868 C13.1485254,12.6060794 15.2634082,14.5746566 17.0625,16.1250204 C18.0980273,16.1250204 18.9375,15.2855464 18.9375,14.2500175 L18.9375,10.8884302 C19.4835937,10.6953049 19.875,10.1746986 19.875,9.56251018 Z M17.0625,13.659831 C15.462627,12.3420848 13.3994238,10.9369752 10.5,10.5841817 L10.5,8.54080938 C13.3994238,8.18801586 15.462627,6.78293556 17.0625,5.46516008 L17.0625,13.659831 Z" id="icon-megaphone_path-1" />
    </defs>
    <g id="icon-megaphone_Symbols" stroke="none" stroke-width="1" fill-rule="evenodd">
        <g id="icon-megaphone_atom-/-news-/-title">
            <g id="icon-megaphone_bullhorn" transform="translate(-2.004551, -1.023413)">
                
                <use id="icon-megaphone_Shape" fill-rule="nonzero" transform="translate(11.437500, 10.500000) rotate(-22.000000) translate(-11.437500, -10.500000) " xlink:href="#icon-megaphone_path-1" />
            </g>
        </g>
    </g>
</symbol><mask id="icon-megaphone_mask-2" fill="white">
                    <use xlink:href="#icon-megaphone_path-1" />
                </mask><symbol viewBox="0 0 11 11" id="icon-owned">
<path d="M5.5,6.1L3.5,4L2,5.6l3.5,3.6L11,1.9c0,0,0,0,0,0.1v7c0,1.1-0.9,2-2,2H2c-1.1,0-2-0.9-2-2V2
    c0-1.1,0.9-2,2-2h7c0.4,0,0.7,0.1,1,0.3L5.5,6.1z" />
</symbol><symbol viewBox="0 0 32 32" id="icon-padlock">
    <g id="icon-padlock_icon1" stroke-width="1" fill-rule="evenodd">
        <rect id="icon-padlock_Rectangle-3-Copy" stroke-width="2" x="8" y="13" width="16" height="14" rx="7" />
        <circle id="icon-padlock_Oval" stroke-width="2" cx="16" cy="19" r="2" />
        <path d="M11.0142341,14.1204027 L11.0142341,9.00757707 C11.0142341,6.79843807 12.8050951,5.00757707 15.0142341,5.00757707 L17.0228915,5.00757707 C19.2277005,5.00757707 21.0150513,6.7949279 21.0150513,8.99973688" id="icon-padlock_Path-2" stroke-width="2" stroke-linecap="round" />
        <path d="M16.036648,21.0523254 L16.036648,22.9890552" id="icon-padlock_Path-3" stroke-width="2" stroke-linecap="round" stroke-linejoin="round" />
    </g>
</symbol><symbol viewBox="0 0 13 18" id="icon-padlock-alt">
        <path d="M9.5 13.458c.87 0 1.583-.712 1.583-1.583 0-.87-.712-1.583-1.583-1.583-.87 0-1.583.712-1.583 1.583 0 .87.712 1.583 1.583 1.583zm4.75-7.125h-.792V4.75A3.96 3.96 0 0 0 9.5.792 3.96 3.96 0 0 0 5.542 4.75v1.583H4.75c-.87 0-1.583.713-1.583 1.584v7.916c0 .871.712 1.584 1.583 1.584h9.5c.87 0 1.583-.713 1.583-1.584V7.917c0-.871-.712-1.584-1.583-1.584zM7.046 4.75c0-1.354 1.1-2.454 2.454-2.454s2.454 1.1 2.454 2.454v1.583H7.046V4.75zm7.204 11.083h-9.5V7.917h9.5v7.916z" fill-rule="nonzero" />
</symbol><symbol viewBox="0 0 21 14" id="icon-plug-left">
    <g id="icon-plug-left_Page-1" stroke="none" stroke-width="1" fill="none" fill-rule="evenodd">
        <g id="icon-plug-left_GOG-Connect-banner" transform="translate(-1165.000000, -85.000000)" fill="#FEFEFE">
            <g id="icon-plug-left_gog_connect-desktop" transform="translate(513.000000, 37.000000)">
                <g id="icon-plug-left_plugs" transform="translate(652.000000, 48.000000)">
                    <g id="icon-plug-left_plug-/-left-m">
                        <path d="M17,11 L17,14 L14,14 C13.4477153,14 13,13.5522847 13,13 C13,12.4477153 12.5522847,12 12,12 L10,12 C8.8954305,12 8,11.1045695 8,10 L8,8 L0,8 L0,6 L8,6 L8,4 C8,2.8954305 8.8954305,2 10,2 L12,2 C12.5522847,2 13,1.55228475 13,1 C13,0.44771525 13.4477153,1.01453063e-16 14,0 L17,0 L17,3 L20,3 C20.5522847,3 21,3.44771525 21,4 C21,4.55228475 20.5522847,5 20,5 L17,5 L17,9 L20,9 C20.5522847,9 21,9.44771525 21,10 C21,10.5522847 20.5522847,11 20,11 L17,11 Z" id="icon-plug-left_Combined-Shape" />
                    </g>
                </g>
            </g>
        </g>
    </g>
</symbol><symbol viewBox="0 0 17 14" id="icon-plug-right">
    <g id="icon-plug-right_Page-1" stroke="none" stroke-width="1" fill="none" fill-rule="evenodd">
        <g id="icon-plug-right_GOG-Connect-banner" transform="translate(-1194.000000, -85.000000)" fill="#FEFEFE">
            <g id="icon-plug-right_gog_connect-desktop" transform="translate(513.000000, 37.000000)">
                <g id="icon-plug-right_plugs" transform="translate(652.000000, 48.000000)">
                    <g id="icon-plug-right_plug-/-right-f" transform="translate(29.000000, 0.000000)">
                        <path d="M8,8 L0,8 L0,6 L8,6 L8,4 C8,2.8954305 8.8954305,2 10,2 L12,2 C12.5522847,2 13,1.55228475 13,1 C13,0.44771525 13.4477153,1.01453063e-16 14,0 L17,0 L17,14 L14,14 C13.4477153,14 13,13.5522847 13,13 C13,12.4477153 12.5522847,12 12,12 L10,12 C8.8954305,12 8,11.1045695 8,10 L8,8 Z" id="icon-plug-right_Combined-Shape-Copy" transform="translate(8.500000, 7.000000) scale(-1, 1) translate(-8.500000, -7.000000) " />
                    </g>
                </g>
            </g>
        </g>
    </g>
</symbol><symbol viewBox="0 0 18 18" id="icon-snapshots">
    <defs>
        <path d="M5.3001,3.9996 L6.0201,0.7806 L17.7301,3.4096 L16.0001,11.1306 L16.0001,3.9996 L5.3001,3.9996 Z M1.3302,9.2601 L2.9992,8.9301 L2.9992,14.0001 L14.5192,14.0001 L14.6702,14.7401 L2.9002,17.1001 L1.3302,9.2601 Z M4,13 L4,5 L15,5 L15,13 L4,13 Z" id="icon-snapshots_path-1" />
    </defs>
    <g id="icon-snapshots_atom-/-icon-/-header-/-curated" stroke="none" stroke-width="1" fill-rule="evenodd">
        
        <use id="icon-snapshots_Combined-Shape" xlink:href="#icon-snapshots_path-1" />
    </g>
</symbol><mask id="icon-snapshots_mask-2" fill="white">
            <use xlink:href="#icon-snapshots_path-1" />
        </mask><symbol viewBox="0 0 18 18" id="icon-star">
    <defs>
        <polygon id="icon-star_path-1" points="9 14.9252329 3.4376941 18 4.5 11.4875388 8.94839758e-14 6.8753882 6.21884705 5.92523292 9 0 11.7811529 5.92523292 18 6.8753882 13.5 11.4875388 14.5623059 18" />
    </defs>
    <g stroke="none" stroke-width="1" fill-rule="evenodd">
        
        <use xlink:href="#icon-star_path-1" />
    </g>
</symbol><mask id="icon-star_mask-2" fill="white">
            <use xlink:href="#icon-star_path-1" />
        </mask><symbol viewBox="0 0 32 32" id="icon-store">
<style type="text/css">
	#icon-store .st0{clip-path:url(#icon-store_SVGID_2_);fill:none;stroke:#86328A;stroke-width:4;stroke-miterlimit:10;}
	#icon-store .st1{fill:none;stroke:#86328A;stroke-width:2;stroke-miterlimit:10;}
</style>
<g>
	<g>
		<defs>
			<path id="icon-store_SVGID_1_" d="M28,9.5v1c0,1.7-1.3,3-3,3s-3-1.3-3-3c0,1.7-1.3,3-3,3c-1.7,0-3-1.3-3-3c0,1.7-1.3,3-3,3c-1.7,0-3-1.3-3-3
				c0,1.7-1.3,3-3,3s-3-1.3-3-3v-1v-2c0-1.7,1.3-3,3-3h18c1.7,0,3,1.3,3,3V9.5z" />
		</defs>
		
		<path class="st0" d="M28,9.5v1c0,1.7-1.3,3-3,3s-3-1.3-3-3c0,1.7-1.3,3-3,3c-1.7,0-3-1.3-3-3c0,1.7-1.3,3-3,3c-1.7,0-3-1.3-3-3
			c0,1.7-1.3,3-3,3s-3-1.3-3-3v-1v-2c0-1.7,1.3-3,3-3h18c1.7,0,3,1.3,3,3V9.5z" />
	</g>
	<path class="st1" d="M7,15.5v10c0,1.1,0.9,2,2,2h14c1.1,0,2-0.9,2-2v-10" />
	<path class="st1" d="M16,19.5L16,19.5c1.7,0,3,1.3,3,3v5h-6v-5C13,20.8,14.3,19.5,16,19.5z" />
</g>
</symbol><clipPath id="icon-store_SVGID_2_">
			<use xlink:href="#icon-store_SVGID_1_" style="overflow:visible;" />
		</clipPath><symbol viewBox="0 0 16 16" id="icon-success">
  <path d="M16,13 C16,17.4182903 12.4182903,21 8,21 C3.58170968,21 0,17.4182903 0,13 C0,8.58170968 3.58170968,5 8,5 C12.4182903,5 16,8.58170968 16,13 Z M7.1035625,16.8429052 L12.8535625,10.6742725 C13.0488125,10.4648072 13.0488125,10.1251636 12.8535625,9.91569832 L12.1464688,9.15712413 C11.9512188,8.94762529 11.634625,8.94762529 11.4393438,9.15712413 L6.75,14.1878452 L4.56065625,11.8391048 C4.36540625,11.6296395 4.0488125,11.6296395 3.85353125,11.8391048 L3.1464375,12.597679 C2.9511875,12.8071443 2.9511875,13.1467879 3.1464375,13.3562532 L6.3964375,16.8428717 C6.59171875,17.0523705 6.90828125,17.0523705 7.1035625,16.8429052 Z" transform="translate(0 -5)" />
</symbol><symbol viewBox="0 0 8 6" id="icon-tick"><defs><path d="M2.3 5.5c.4.3.9.3 1.2 0l3.6-4a1 1 0 0 0 0-1.2.8.8 0 0 0-1.1 0L3 3.5 1.3 2a.8.8 0 0 0-.8-.2c-.3.1-.5.3-.6.6 0 .3 0 .7.2.9l2.1 2.3z" id="icon-tick_a" /></defs><g fill="none" fill-rule="evenodd"><use fill="currentColor" xlink:href="#icon-tick_a" /><g mask="url(#icon-tick_b)"><path d="M0 0h8v6H0z" /></g></g></symbol><mask id="icon-tick_b"><use xlink:href="#icon-tick_a" /></mask></defs><use id="icon-arrow-usage" xlink:href="#icon-arrow" class="sprite-symbol-usage" /><use id="icon-cart-usage" xlink:href="#icon-cart" class="sprite-symbol-usage" /><use id="icon-chevron-circled-usage" xlink:href="#icon-chevron-circled" class="sprite-symbol-usage" /><use id="icon-comment-usage" xlink:href="#icon-comment" class="sprite-symbol-usage" /><use id="icon-compass-usage" xlink:href="#icon-compass" class="sprite-symbol-usage" /><use id="icon-connect-gog-usage" xlink:href="#icon-connect-gog" class="sprite-symbol-usage" /><use id="icon-connect-steam-usage" xlink:href="#icon-connect-steam" class="sprite-symbol-usage" /><use id="icon-curated-usage" xlink:href="#icon-curated" class="sprite-symbol-usage" /><use id="icon-discount-stamp-usage" xlink:href="#icon-discount-stamp" class="sprite-symbol-usage" /><use id="icon-fire-usage" xlink:href="#icon-fire" class="sprite-symbol-usage" /><use id="icon-good-old-games-usage" xlink:href="#icon-good-old-games" class="sprite-symbol-usage" /><use id="icon-highlighter-usage" xlink:href="#icon-highlighter" class="sprite-symbol-usage" /><use id="icon-megaphone-usage" xlink:href="#icon-megaphone" class="sprite-symbol-usage" /><use id="icon-owned-usage" xlink:href="#icon-owned" class="sprite-symbol-usage" /><use id="icon-padlock-usage" xlink:href="#icon-padlock" class="sprite-symbol-usage" /><use id="icon-padlock-alt-usage" xlink:href="#icon-padlock-alt" class="sprite-symbol-usage" /><use id="icon-plug-left-usage" xlink:href="#icon-plug-left" class="sprite-symbol-usage" /><use id="icon-plug-right-usage" xlink:href="#icon-plug-right" class="sprite-symbol-usage" /><use id="icon-snapshots-usage" xlink:href="#icon-snapshots" class="sprite-symbol-usage" /><use id="icon-star-usage" xlink:href="#icon-star" class="sprite-symbol-usage" /><use id="icon-store-usage" xlink:href="#icon-store" class="sprite-symbol-usage" /><use id="icon-success-usage" xlink:href="#icon-success" class="sprite-symbol-usage" /><use id="icon-tick-usage" xlink:href="#icon-tick" class="sprite-symbol-usage" /></svg>