<svg
        _ngcontent-gogcom-store-c26=""
        width={30}
        height={30}
        viewBox="0 0 30 30"
        fill="none"
        xmlns="http://www.w3.org/2000/svg"
        className="ng-star-inserted"
    >
        <mask
            _ngcontent-gogcom-store-c26=""
            id="path-1-outside-1_260_9103"
            maskUnits="userSpaceOnUse"
            x={0}
            y={0}
            width={30}
            height={30}
            fill="black"
        >
            <rect
                _ngcontent-gogcom-store-c26=""
                fill="white"
                width={30}
                height={30} />
            <path
                _ngcontent-gogcom-store-c26=""
                fillRule="evenodd"
                clipRule="evenodd"
                d="M15 27C8.37258 27 3 21.6274 3 15C3 8.37258 8.37258 3 15 3C21.6274 3 27 8.37258 27 15C27 21.6274 21.6274 27 15 27ZM14.5229 14.3944L18.7656 10.1517C19.0585 9.85883 19.0585 9.38395 18.7656 9.09106L17.7049 8.0304C17.412 7.73751 16.9372 7.73751 16.6443 8.0304L10.2803 14.3944C9.98742 14.6873 9.98742 15.1621 10.2803 15.455L16.6443 21.819C16.9372 22.1119 17.412 22.1119 17.7049 21.819L18.7656 20.7583C19.0585 20.4654 19.0585 19.9906 18.7656 19.6977L14.5229 15.455C14.2301 15.1621 14.2301 14.6873 14.5229 14.3944Z" />
        </mask>
        <path
            _ngcontent-gogcom-store-c26=""
            fill="white"
            fillRule="evenodd"
            clipRule="evenodd"
            d="M15 27C8.37258 27 3 21.6274 3 15C3 8.37258 8.37258 3 15 3C21.6274 3 27 8.37258 27 15C27 21.6274 21.6274 27 15 27ZM14.5229 14.3944L18.7656 10.1517C19.0585 9.85883 19.0585 9.38395 18.7656 9.09106L17.7049 8.0304C17.412 7.73751 16.9372 7.73751 16.6443 8.0304L10.2803 14.3944C9.98742 14.6873 9.98742 15.1621 10.2803 15.455L16.6443 21.819C16.9372 22.1119 17.412 22.1119 17.7049 21.819L18.7656 20.7583C19.0585 20.4654 19.0585 19.9906 18.7656 19.6977L14.5229 15.455C14.2301 15.1621 14.2301 14.6873 14.5229 14.3944Z" />
        <path
            _ngcontent-gogcom-store-c26=""
            fillRule="evenodd"
            clipRule="evenodd"
            d="M15 27C8.37258 27 3 21.6274 3 15C3 8.37258 8.37258 3 15 3C21.6274 3 27 8.37258 27 15C27 21.6274 21.6274 27 15 27ZM14.5229 14.3944L18.7656 10.1517C19.0585 9.85883 19.0585 9.38395 18.7656 9.09106L17.7049 8.0304C17.412 7.73751 16.9372 7.73751 16.6443 8.0304L10.2803 14.3944C9.98742 14.6873 9.98742 15.1621 10.2803 15.455L16.6443 21.819C16.9372 22.1119 17.412 22.1119 17.7049 21.819L18.7656 20.7583C19.0585 20.4654 19.0585 19.9906 18.7656 19.6977L14.5229 15.455C14.2301 15.1621 14.2301 14.6873 14.5229 14.3944Z"
            className="background" />
        <path
            _ngcontent-gogcom-store-c26=""
            d="M18.7656 9.09106L16.6443 11.2124L18.7656 9.09106ZM17.7049 8.0304L19.8263 5.90908V5.90908L17.7049 8.0304ZM10.2803 15.455L8.15899 17.5763L10.2803 15.455ZM16.6443 21.819L18.7656 19.6977L16.6443 21.819ZM18.7656 19.6977L20.8869 17.5763L18.7656 19.6977ZM14.5229 15.455L12.4016 17.5763L14.5229 15.455ZM15 24C10.0294 24 6 19.9706 6 15H0C0 23.2843 6.71573 30 15 30V24ZM6 15C6 10.0294 10.0294 6 15 6V0C6.71573 0 0 6.71573 0 15H6ZM15 6C19.9706 6 24 10.0294 24 15H30C30 6.71573 23.2843 0 15 0V6ZM24 15C24 19.9706 19.9706 24 15 24V30C23.2843 30 30 23.2843 30 15H24ZM16.6443 16.5157L20.8869 12.273L16.6443 8.0304L12.4016 12.273L16.6443 16.5157ZM20.8869 12.273C22.3514 10.8086 22.3514 8.43421 20.8869 6.96974L16.6443 11.2124C15.7656 10.3337 15.7656 8.90908 16.6443 8.0304L20.8869 12.273ZM20.8869 6.96974L19.8263 5.90908L15.5836 10.1517L16.6443 11.2124L20.8869 6.96974ZM19.8263 5.90908C18.3618 4.44461 15.9874 4.44461 14.5229 5.90908L18.7656 10.1517C17.8869 11.0304 16.4623 11.0304 15.5836 10.1517L19.8263 5.90908ZM14.5229 5.90908L8.15899 12.273L12.4016 16.5157L18.7656 10.1517L14.5229 5.90908ZM8.15899 12.273C6.69452 13.7375 6.69452 16.1119 8.15899 17.5763L12.4016 13.3337C13.2803 14.2124 13.2803 15.637 12.4016 16.5157L8.15899 12.273ZM8.15899 17.5763L14.5229 23.9403L18.7656 19.6977L12.4016 13.3337L8.15899 17.5763ZM14.5229 23.9403C15.9874 25.4048 18.3618 25.4048 19.8263 23.9403L15.5836 19.6977C16.4623 18.819 17.8869 18.819 18.7656 19.6977L14.5229 23.9403ZM19.8263 23.9403L20.8869 22.8796L16.6443 18.637L15.5836 19.6977L19.8263 23.9403ZM20.8869 22.8796C22.3514 21.4152 22.3514 19.0408 20.8869 17.5763L16.6443 21.819C15.7656 20.9403 15.7656 19.5157 16.6443 18.637L20.8869 22.8796ZM20.8869 17.5763L16.6443 13.3337L12.4016 17.5763L16.6443 21.819L20.8869 17.5763ZM16.6443 13.3337C17.5229 14.2124 17.5229 15.637 16.6443 16.5157L12.4016 12.273C10.9372 13.7375 10.9372 16.1119 12.4016 17.5763L16.6443 13.3337Z"
            mask="url(#path-1-outside-1_260_9103)"
            className="content" />
    </svg>