<?xml version="1.0" encoding="UTF-8"?>
<svg width="16px" height="16px" viewBox="0 0 16 16" version="1.1" xmlns="http://www.w3.org/2000/svg" xmlns:xlink="http://www.w3.org/1999/xlink">
    <g id="icon-/-download" stroke="none" stroke-width="1" fill="none" fill-rule="evenodd">
        <path d="M8.85471684,10.5193745 C8.67922478,10.8075583 8.36208598,11 8,11 C7.62665112,11 7.30108912,10.7954001 7.12932086,10.4922071 C7.05230261,10.4486397 6.97983278,10.3940463 6.91421356,10.3284271 L4.70710678,8.12132034 C4.31658249,7.73079605 4.31658249,7.09763107 4.70710678,6.70710678 C5.09763107,6.31658249 5.73079605,6.31658249 6.12132034,6.70710678 L7,7.58578644 L7,2 C7,1.44771525 7.44771525,1 8,1 C8.55228475,1 9,1.44771525 9,2 L9,7.62132034 L9.91421356,6.70710678 C10.3047379,6.31658249 10.9379028,6.31658249 11.3284271,6.70710678 C11.7189514,7.09763107 11.7189514,7.73079605 11.3284271,8.12132034 L9.12132034,10.3284271 C9.04125707,10.4084904 8.95099535,10.4721395 8.85471684,10.5193745 Z M14,13 L14,12 C14,11.4477153 14.4477153,11 15,11 C15.5522847,11 16,11.4477153 16,12 L16,14 C16,14.5522847 15.5522847,15 15,15 L1,15 C0.44771525,15 6.76353751e-17,14.5522847 0,14 L0,12 C-6.76353751e-17,11.4477153 0.44771525,11 1,11 C1.55228475,11 2,11.4477153 2,12 L2,13 L14,13 Z" id="Combined-Shape" fill="#FFFFFF"></path>
    </g>
</svg>