<svg xmlns="http://www.w3.org/2000/svg" viewBox="0 0 59 58"><path d="M25.5 37c2.466 0 4.5 2.034 4.5 4.5S27.966 46 25.5 46 21 43.966 21 41.5s2.034-4.5 4.5-4.5zm15 0c2.466 0 4.457 2.034 4.5 4.5 0 2.466-2.034 4.5-4.5 4.5S36 43.966 36 41.5s2.034-4.5 4.5-4.5zm-15 2.726c-.995 0-1.774.779-1.774 1.774s.779 1.774 1.774 1.774c.952 0 1.774-.822 1.774-1.774 0-.995-.779-1.774-1.774-1.774zm15 0c-.995 0-1.774.779-1.774 1.774s.779 1.774 1.774 1.774c.952 0 1.774-.822 1.774-1.774 0-.995-.779-1.774-1.774-1.774zM14.601 8a4.042 4.042 0 013.917 3.051l.8 3.093h25.646c1.222 0 2.4.585 3.159 1.546a3.81 3.81 0 01.758 3.386l-3.159 12.873C45.302 33.746 43.659 35 41.806 35H25.003a4.042 4.042 0 01-3.917-3.051l-5.137-20.313a1.39 1.39 0 00-1.348-1.045h-4.295A1.307 1.307 0 019 9.296C9 8.586 9.59 8 10.306 8z" fill="#FFF"/></svg>