<svg width="17" height="14" viewBox="0 0 17 14" fill="none" xmlns="http://www.w3.org/2000/svg">
<path fill-rule="evenodd" clip-rule="evenodd" d="M14.9601 3.96999C16.1972 4.8802 17 6.34635 17 8C17 10.7614 14.7614 13 12 13H11V12H12C14.2091 12 16 10.2091 16 8C16 6.71076 15.387 5.52559 14.3675 4.77547L14.0337 4.52988L13.9715 4.12018C13.7874 2.90845 12.7395 2 11.5 2C11.1962 2 10.9013 2.05376 10.6242 2.1574L10.0677 2.36557L9.61879 1.97633C8.89631 1.34992 7.97657 1 7 1C5.11517 1 3.49699 2.31449 3.09472 4.12973L3.01109 4.50711L2.69538 4.73013C1.63952 5.47601 1 6.68343 1 8C1 10.2091 2.79086 12 5 12H6V13H5C2.23858 13 0 10.7614 0 8C0 6.31161 0.836858 4.81868 2.11841 3.91337C2.61458 1.67443 4.61175 0 7 0C8.2521 0 9.39671 0.460242 10.2739 1.22078C10.6555 1.07804 11.0686 1 11.5 1C13.2528 1 14.7047 2.2885 14.9601 3.96999Z" fill="#404040"/>
<path d="M8 8V14H9V8H11L8.5 5L6 8H8Z" fill="#404040"/>
</svg>
