<svg width="18" height="15" viewBox="0 0 18 15" fill="none" xmlns="http://www.w3.org/2000/svg">
<mask id="mask0_402_669" style="mask-type:alpha" maskUnits="userSpaceOnUse" x="0" y="0" width="18" height="15">
<path fill-rule="evenodd" clip-rule="evenodd" d="M0.482896 5.988C1.4509 2.373 3.5369 0 5.4109 0C5.5979 0 5.7849 0.024 5.9659 0.073C6.4809 0.21 6.9169 0.534 7.2629 1.004H9.7639C10.1009 0.551 10.5249 0.239 11.0259 0.104C13.0269 -0.43 15.4959 2.063 16.5569 6.022C17.6169 9.98 16.8559 13.623 14.8549 14.16C13.4239 14.543 11.7459 13.232 10.5189 11.004H6.5059C5.2769 13.233 3.6019 14.543 2.1749 14.161C0.174896 13.625 -0.583104 9.966 0.482896 5.988Z" fill="white"/>
</mask>
<g mask="url(#mask0_402_669)">
<path fill-rule="evenodd" clip-rule="evenodd" d="M5.40923 1.00002C4.12423 1.00002 2.32823 2.96702 1.44823 6.24702C0.492227 9.81602 1.18023 12.859 2.43323 13.195C3.32323 13.434 4.63323 12.331 5.63123 10.521L5.91623 10.004H11.1092L11.3942 10.521C12.3922 12.332 13.7002 13.433 14.5962 13.193C15.1632 13.041 15.6412 12.284 15.8752 11.169C16.1602 9.80302 16.0562 8.02102 15.5912 6.28002C14.6532 2.78002 12.5542 0.734021 11.2852 1.07002C11.0132 1.14402 10.7772 1.31702 10.5652 1.60202L10.2652 2.00402H6.75823L6.45823 1.59702C6.24023 1.30102 5.98823 1.11302 5.70823 1.03802C5.61223 1.01302 5.51323 1.00002 5.40923 1.00002ZM2.67423 15.227C2.41923 15.227 2.16523 15.193 1.91623 15.127C-0.698773 14.426 -1.73077 10.386 -0.483773 5.72902C0.717227 1.25302 3.58823 -1.59598 6.22523 -0.893979C6.78523 -0.743979 7.29623 -0.436979 7.72423 0.00402117H9.30623C9.72523 -0.418979 10.2212 -0.714979 10.7662 -0.860979C13.4112 -1.56698 16.3212 1.27602 17.5222 5.76302C18.0752 7.82502 18.1852 9.89102 17.8322 11.578C17.4302 13.504 16.4642 14.763 15.1132 15.125C13.3762 15.593 11.4262 14.403 9.94423 12.004H7.08123C5.81023 14.059 4.20223 15.227 2.67423 15.227Z" fill="#404040"/>
</g>
</svg>
