<svg width="18" height="18" xmlns="http://www.w3.org/2000/svg" xmlns:xlink="http://www.w3.org/1999/xlink">
  <defs>
    <path d="M17.92 6.22c.13.37.08.78-.11 1.13L16.85 9l.96 1.65c.2.35.24.76.12 1.13-.13.38-.41.68-.79.85l-1.78.8-.24 1.87c-.05.4-.27.75-.6.98-.33.23-.75.32-1.16.24l-1.93-.36-1.36 1.39A1.5 1.5 0 0 1 9 18c-.41 0-.8-.16-1.08-.45l-1.35-1.39-1.92.36c-.4.08-.82 0-1.16-.24a1.4 1.4 0 0 1-.6-.98l-.23-1.87-1.8-.8a1.44 1.44 0 0 1-.78-.85c-.12-.37-.08-.78.12-1.13L1.14 9 .2 7.35C-.01 7-.05 6.6.07 6.22c.13-.37.4-.68.78-.85l1.79-.8.24-1.87c.05-.4.26-.75.6-.98.33-.23.75-.32 1.15-.24l1.93.36L7.92.45A1.5 1.5 0 0 1 9 0c.4 0 .8.16 1.08.45l1.35 1.39 1.93-.36c.4-.08.82 0 1.15.24.33.23.55.59.6.98l.24 1.87 1.79.8c.37.17.65.48.78.85Zm-5.93-.02c.14-.17.16-.39.08-.58a.61.61 0 0 0-1.03-.12L6 11.81c-.2.26-.14.62.12.81.27.2.65.14.84-.11L12 6.2Zm-.4 2.88c-1.05 0-1.9.82-1.9 1.82v.38c0 .66.36 1.26.95 1.59.58.32 1.31.32 1.9 0 .59-.33.95-.93.95-1.59v-.38c0-1-.85-1.82-1.9-1.82Zm.7 2.2a.7.7 0 0 1-.7.68.7.7 0 0 1-.7-.67v-.39a.7.7 0 0 1 .7-.67c.39 0 .7.3.7.67v.39ZM8.32 6.74c0-1.01-.85-1.83-1.9-1.83-1.06 0-1.91.82-1.91 1.83v.38c0 1 .85 1.82 1.9 1.82 1.06 0 1.91-.82 1.91-1.82v-.38Zm-2.61.38v-.38a.7.7 0 0 1 .7-.68c.4 0 .71.3.71.68v.38a.7.7 0 0 1-.7.67.7.7 0 0 1-.71-.67Z" id="a"/>
  </defs>
  <use fill-rule="nonzero" xlink:href="#a"/>
</svg>
