<svg xmlns="http://www.w3.org/2000/svg" viewBox="0 0 32 32" id="epic"><g fill-rule="evenodd"><path d="M6.18 3h19.64c1.5 0 2.1.53 2.17 1.92l.01.28v19.57l-.03.25c-.03.35-.04.69-.36 1.07l-.36.29-.32.15-9.86 4.16c-.5.22-.7.31-1.08.31-.3 0-.5-.06-.84-.21l-.23-.1-9.67-4.08c-.2-.08-.33-.14-.5-.23l-.36-.29c-.33-.38-.33-.72-.37-1.07L4 24.77V5.2c0-1.5.52-2.13 1.9-2.2h.28zm14.8 24h-9.7l4.74 1.67L20.98 27zM9.12 19.46H8.84l-.05.02h-.1l-.09.02-.03.01-.05.01-.05.02h-.04l-.03.03-.09.02-.13.06-.2.12-.03.03-.04.02-.2.18-.03.04-.06.07-.06.07-.14.23-.02.04-.01.05-.08.17v.05l-.06.17v.06l-.02.14v.3l.01.04v.09l.02.09v.05l.02.04.03.13.03.04.08.21.1.16.02.03.02.04.06.07.06.06.03.04.1.1.14.1.2.12.16.08.13.04.27.07h.13l.05.02h.24l.25-.03h.05l.17-.04.13-.04.05-.01.04-.02.03-.02.05-.02.04-.02.05-.01.05-.03.04-.02.12-.07.22-.15.07-.06v-1.52H8.97v.68h.67v.43l-.11.06-.04.02-.04.02-.13.04-.1.01h-.3l-.14-.04h-.05l-.04-.03-.08-.03-.03-.03-.04-.02-.11-.08-.06-.08-.03-.02-.05-.08-.05-.08-.07-.21-.02-.09v-.05l-.01-.04v-.14l.02-.15.03-.14.04-.09.03-.07.05-.08.1-.14.05-.02.06-.06.03-.03.04-.02.04-.03.16-.06.13-.03h.2l.04.01h.06l.17.05.16.06.15.1.14.11.06-.07.03-.04.15-.18.03-.04.09-.1.11-.15.04-.03.02-.04-.07-.06-.07-.06-.04-.02-.04-.04-.04-.01-.04-.03-.04-.02-.04-.03-.03-.02-.05-.02-.2-.09-.25-.05-.05-.02h-.04l-.1-.02h-.15zm14.52 0h-.2l-.04.01-.15.01-.04.01h-.04l-.17.05-.03.02-.1.03-.04.03-.04.01-.08.05-.14.11-.03.04-.03.03-.1.12-.01.04-.03.05-.05.12-.01.04-.02.04-.02.09V20.75l.01.04.01.05.05.12.06.11.08.1.1.1.03.02.11.07.06.02.08.05.05.01.1.05h.03l.08.04.14.04.14.03.05.01.1.02.24.07.1.04.08.04.04.03.06.06.01.05v.11l-.01.04-.02.04-.06.06-.08.03-.04.02h-.04l-.04.02h-.25l-.05-.02h-.1l-.09-.03-.04-.02h-.05l-.09-.05h-.04l-.16-.08-.11-.08-.04-.02-.16-.11-.06.07-.02.04-.07.06-.02.04-.04.04-.05.07-.07.07-.02.04-.06.07-.03.04-.06.07.14.12.04.02.03.03.08.05.12.07.16.08.09.04h.05l.08.04.18.05h.05l.1.03h.04l.04.01h.1l.05.02h.3l.08-.01h.05l.05-.01h.04l.09-.02.03-.02h.06l.08-.03.05-.01.09-.04.12-.07.04-.03.07-.04.1-.1.11-.14.02-.04.03-.04.05-.12.05-.17v-.06l.01-.21-.01-.14-.02-.1-.03-.08-.07-.12-.05-.08-.14-.14-.03-.02-.04-.03-.08-.05-.05-.02-.04-.03-.05-.01-.04-.03-.13-.05h-.05l-.08-.04-.4-.1h-.05l-.12-.04-.03-.01-.06-.03-.05-.01-.08-.04-.04-.03-.03-.03-.05-.08V20.41l.02-.04.03-.04.07-.06.04-.02.09-.02H23.69l.1.03h.04l.15.05.15.07.04.02.04.02.04.02.04.02.03.03.12.07.14-.2.02-.03.05-.07.02-.04.06-.08.08-.11.03-.04.02-.04.03-.04-.11-.08-.04-.02-.04-.04-.16-.09-.13-.05-.04-.02-.08-.04h-.05l-.08-.03-.23-.05h-.05l-.04-.02h-.1l-.1-.01zm-1.87.06h-2.66v3.43h2.69v-.77H20v-.6h1.6v-.72h-1.61v-.57h1.78v-.77zm-3.34 0h-.94l-.1.16-.04.08-.03.04-.07.11-.03.04-.02.04-.17.28-.03.04-.04.08-.15.24-.02.03-.03.04-.02.05-.03.04-.04.08-.1-.17-.14-.23-.07-.12-.03-.04-.02-.04-.03-.04-.02-.04-.03-.04-.14-.24-.02-.03-.02-.04-.03-.04-.1-.17-.02-.04-.02-.04-.03-.03h-.95v3.42h.88v-2.02l.03.05.1.16.02.03.03.04.02.05.04.04.01.04.13.2.03.04.03.04.07.12.02.04.03.04.31.48h.02l.12-.2.03-.04.02-.04.1-.15.02-.04.03-.04.05-.08.03-.04.02-.04.03-.04.12-.2.02-.03.03-.04.03-.04.03-.04.04-.08.03-.04.02-.04.03-.04.02-.03.05-.08v2.03h.89v-3.43zm-5.32-.03h-.86l-.05.13-.02.05-.05.13-.02.04-.1.26-.03.04-.05.13-.02.04-.07.18-.05.12-.02.04-.01.05-.2.47-.02.05-.02.04-.02.05-.07.16-.01.05-.08.17-.03.1-.02.03-.07.17-.03.09-.08.17-.03.1-.03.03-.08.22-.02.04-.12.3h.93l.1-.26.01-.04.04-.09.02-.04v-.04l.03-.05.03-.08.02-.04h1.32l.03.08.02.04.03.1.12.3.02.04.01.04.03.05H14.53l-.03-.1-.02-.03-.04-.1-.1-.25-.02-.05-.11-.25-.07-.18-.02-.04-.05-.13-.02-.03-.03-.1-.02-.04-.07-.17-.03-.05v-.04l-.03-.04-.05-.13-.02-.05-.02-.04-.05-.13-.02-.03-.03-.1-.03-.04-.1-.26-.02-.04-.1-.26-.02-.04-.1-.26-.03-.04-.07-.18-.02-.04-.03-.09-.05-.13zm-.46 1.06l.06.17.02.05.02.04.01.05.04.08.05.13.01.05.12.3.02.04.01.05.02.04h-.78l.03-.04.06-.18.02-.04.06-.18.03-.04.2-.52zM22.86 5.33h-.82l-.27.01c-1.2.09-1.8.78-1.8 2.1v7.32l.02.27c.08 1.23.76 1.83 2.05 1.83h1.1c1.2-.1 1.8-.79 1.8-2.1v-2.64h-1.67v2.55l-.01.16c-.05.35-.25.5-.62.5h-.47c-.34-.05-.5-.26-.5-.66V7.51l.01-.15c.05-.34.26-.5.64-.5H22.76c.32.05.48.26.48.65v2.22h1.66V7.15c-.09-1.23-.75-1.82-2.04-1.82zm-11.81.1H7.28v11.34h3.8v-1.58h-2.1v-3.42h2v-1.56h-2V7h2.07V5.43zm8.03 0h-1.7v11.34h1.7V5.43zm-4.52 0h-2.65v11.34h1.69v-4.12h1.23c1.2-.1 1.8-.79 1.8-2.1V7.53l-.01-.27c-.09-1.22-.77-1.83-2.06-1.83zm-.3 1.52h.15c.32.05.48.26.48.66v2.85l-.01.16c-.05.34-.25.5-.62.5h-.7V6.95h.7z"/></g></svg>
