<svg width="50" height="74" xmlns="http://www.w3.org/2000/svg" id="esrb-teen">
  <g id="RATING-/-ESRB-/-T" fill="none" fill-rule="evenodd">
    <g id="Page-1" transform="translate(1)">
      <path id="Fill-1" fill="#FEFEFE" d="M0 0V73.42H48.61V0z"/>
      <path id="Fill-2" fill="#231F20" d="M.7 72.63h47.2V.8H.7z"/>
      <path id="Fill-3" fill="#FEFEFE" d="M3.08 15.25H45.2V3.35H3.1z"/>
      <path id="Fill-4" fill="#FEFEFE" d="M3.06 61.65H45.2v-43.8H3.06z"/>
      <path id="Fill-5" fill="#FEFEFE" d="M3.07 70.04v-5.82h8.46v1.37H6.47v.83h4.28v1.35H6.47v.91h5.26v1.36z"/>
      <g id="Group-24" transform="translate(3.67 5.58)">
        <path d="M15.24 60.33c-.06-.19-.24-.32-.5-.39-.23-.07-.53-.1-.87-.1-.75 0-1.08.12-1.08.33 0 .86 5.96.32 5.96 2.44 0 1.35-2 2-4.85 2-2.74 0-4.52-.9-4.6-1.94h3.26c.07.2.27.36.56.45.28.1.63.15.97.15.85 0 1.41-.15 1.41-.43 0-.88-5.97-.27-5.97-2.49 0-1.23 1.9-1.85 4.5-1.85 2.88 0 4.2.82 4.44 1.83h-3.23z" id="Fill-6" fill="#FEFEFE"/>
        <path d="M23.84 62.43v2.03h-3.4v-5.82h4.9c3.45 0 4.6.53 4.6 1.66 0 .68-.54 1.23-1.75 1.43 1.1.22 1.76.36 1.76 1.53 0 .76-.04 1.02.36 1.02v.18h-3.45c-.08-.13-.16-.5-.16-1.02 0-.76-.24-1.01-1.82-1.01h-1.04zm0-1.27h1.34c1.05 0 1.62-.15 1.62-.55 0-.41-.58-.6-1.37-.6h-1.59v1.15z" id="Fill-8" fill="#FEFEFE"/>
        <path d="M32.02 64.46v-5.82h4.96c2.34 0 4.2.32 4.2 1.47 0 .6-.7 1.03-1.36 1.26 1.12.16 1.72.7 1.72 1.33 0 1.3-1.76 1.76-4.46 1.76h-5.06zm3.4-2.43v1.07h1.48c.85 0 1.48-.1 1.48-.53 0-.51-.8-.54-1.88-.54h-1.08zm0-2.03v.98h1.42c.67 0 1.16-.18 1.16-.51 0-.46-.67-.47-1.38-.47h-1.2z" id="Fill-10" fill="#FEFEFE"/>
        <path id="Fill-12" fill="#231F20" d="M2.9 22.9l32.6-8.19 2.5 8.75-10.47 2.63 7.03 24.57L22.9 53.6 15.87 29 5.41 31.64z"/>
        <path id="Fill-14" fill="#231F20" d="M31.63.34h2.77l3.2 3.68-.1-1.54V.34h2.83v6.74h-2.77L34.35 3.4 34.4 5l.06 2.08h-2.83z"/>
        <path id="Fill-16" fill="#231F20" d="M21.66.34H29V1.9h-4.4v.97h3.72v1.58h-3.71V5.5h4.56v1.58h-7.51z"/>
        <path id="Fill-18" fill="#231F20" d="M11.34.34h7.34V1.9H14.3v.97H18v1.58H14.3V5.5h4.57v1.58h-7.52z"/>
        <path id="Fill-20" fill="#231F20" d="M.58.34h8.25V2.1H6.18v4.97H3.23V2.1H.58z"/>
        <path d="M35.65 52.62c0-1.19 1.03-2.15 2.32-2.15 1.27 0 2.3.96 2.3 2.15 0 1.2-1.03 2.16-2.3 2.16-1.29 0-2.32-.96-2.32-2.16zm4.2 0c0-.98-.84-1.77-1.88-1.77-1.05 0-1.9.8-1.9 1.77 0 .98.85 1.78 1.9 1.78 1.04 0 1.89-.8 1.89-1.78zm-2.38.15v1.09h-.42v-2.54h.88c.5 0 1 .13 1 .7 0 .3-.18.53-.54.6.37.07.41.23.46.5.04.25.06.51.15.74h-.53c-.03-.14-.08-.31-.1-.46-.02-.21-.02-.42-.15-.54-.1-.1-.24-.08-.4-.1h-.35zm.45-.4c.4-.01.5-.18.5-.36 0-.19-.1-.3-.44-.3h-.5v.66h.44z" id="Fill-22" fill="#231F20"/>
      </g>
    </g>
  </g>
</svg>