<svg width="50" height="74" xmlns="http://www.w3.org/2000/svg" xmlns:xlink="http://www.w3.org/1999/xlink" id="esrb-everyone10plus">
  <defs>
    <path id="path-1" d="M-24 0h74v74h-74z"/>
  </defs>
  <g id="RATING-/-ESRB-/-E10" fill="none" fill-rule="evenodd">
    <mask id="mask-2" fill="#fff">
      <use xlink:href="#path-1"/>
    </mask>
    <g id="Page-1" mask="url(#mask-2)">
      <g transform="translate(1)">
        <path id="Fill-1" fill="#FEFEFE" d="M0 0V73.42H48.61V0z"/>
        <path id="Fill-2" fill="#231F20" d="M.7 72.63h47.2V.8H.7z"/>
        <path id="Fill-3" fill="#FEFEFE" d="M3.08 15.25H45.2V3.35H3.1z"/>
        <path id="Fill-4" fill="#FEFEFE" d="M3.06 61.65H45.2v-43.8H3.06z"/>
        <path id="Fill-5" fill="#FEFEFE" d="M3.07 70.04v-5.81h8.46v1.36H6.47v.83h4.28v1.35H6.47v.91h5.26v1.36z"/>
        <g id="Group-40" transform="translate(3.67 5.58)">
          <path d="M15.24 60.34c-.06-.2-.24-.33-.5-.4-.23-.07-.53-.1-.87-.1-.75 0-1.08.12-1.08.34 0 .86 5.96.32 5.96 2.43 0 1.35-2 2-4.85 2-2.74 0-4.52-.9-4.6-1.94h3.26c.07.2.27.36.56.46.28.1.63.14.97.14.85 0 1.41-.15 1.41-.42 0-.88-5.97-.28-5.97-2.5 0-1.23 1.9-1.85 4.5-1.85 2.88 0 4.2.82 4.44 1.84h-3.23z" id="Fill-6" fill="#FEFEFE"/>
          <path d="M23.84 62.43v2.03h-3.4v-5.82h4.9c3.45 0 4.6.54 4.6 1.67 0 .67-.54 1.23-1.75 1.42 1.1.22 1.76.36 1.76 1.53 0 .76-.04 1.02.36 1.02v.18h-3.45c-.08-.13-.17-.5-.17-1.02 0-.76-.23-1-1.81-1h-1.04zm0-1.26h1.34c1.05 0 1.61-.16 1.61-.56s-.57-.6-1.36-.6h-1.59v1.16z" id="Fill-8" fill="#FEFEFE"/>
          <path d="M32.02 64.46v-5.82h4.96c2.34 0 4.2.32 4.2 1.47 0 .6-.7 1.04-1.36 1.26 1.12.17 1.72.71 1.72 1.33 0 1.3-1.76 1.76-4.46 1.76h-5.06zm3.4-2.43v1.07h1.48c.84 0 1.48-.1 1.48-.53 0-.5-.8-.54-1.88-.54h-1.08zm0-2.03v.98h1.42c.67 0 1.17-.18 1.17-.51 0-.46-.67-.47-1.39-.47h-1.2z" id="Fill-10" fill="#FEFEFE"/>
          <path d="M35.66 52.62c0-1.19 1.02-2.15 2.3-2.15 1.28 0 2.3.96 2.3 2.15 0 1.2-1.02 2.16-2.3 2.16-1.28 0-2.3-.96-2.3-2.16zm4.2 0c0-.98-.85-1.77-1.9-1.77-1.05 0-1.9.8-1.9 1.77 0 .98.85 1.79 1.9 1.79 1.05 0 1.9-.8 1.9-1.79zm-2.39.15v1.09h-.42v-2.54h.88c.5 0 1 .13 1 .7 0 .3-.18.53-.54.6.36.07.41.24.46.51.04.24.06.5.16.73h-.54c-.04-.14-.08-.3-.1-.45-.02-.22-.02-.43-.14-.55-.11-.09-.25-.08-.4-.09h-.36zm.45-.4c.4 0 .5-.17.5-.36 0-.19-.1-.3-.44-.3h-.5v.66h.44z" id="Fill-12" fill="#231F20"/>
          <path d="M3.55 42.97c1.25-.37 2.5-.9 3.18-1.54v8.51h2.39V39.27H6.79a8.33 8.33 0 0 1-3.24 1.64v2.06zM2.58 22.4l25.52-7.67 2.56 8.14-12.79 3.84 1.05 3.32 11.81-3.54 2.55 8.14-11.8 3.54 1.1 3.5 13.2-3.96 2.56 8.13-25.93 7.8-9.83-31.24zm17.66 22.46c0-3.53-1.88-5.62-5-5.62-4.22 0-5.26 2.9-5.26 5.62 0 3.33 1.66 5.63 5.13 5.63 3.46 0 5.13-2.3 5.13-5.63zm2.89.45H21.3v1h1.82v1.78h1.02v-1.77h1.83v-1h-1.83v-1.79h-1.02v1.78z" id="Fill-14" fill="#231F20"/>
          <path d="M12.18 44.75c.02-3.57 1.43-4.4 3.04-4.39 1.8.01 2.82 1.37 2.8 4.5 0 1.94-.53 4.34-2.83 4.32-2.26 0-3.02-1.82-3-4.43" id="Fill-16" fill="#231F20"/>
          <path id="Fill-18" fill="#231F20" d="M.6 7.1V.34h2.62v1.04H1.6v1.66h1.5v1.04H1.6v1.98h1.68V7.1z"/>
          <path id="Fill-20" fill="#231F20" d="M3.54.34H4.6l.75 4.91h.01L6.2.34h1L5.9 7.1H4.73z"/>
          <path id="Fill-22" fill="#231F20" d="M7.64 7.1V.34h2.63v1.04H8.65v1.66h1.5v1.04h-1.5v1.98h1.67V7.1z"/>
          <path d="M11.97 3.26h.44c.1 0 .18-.03.25-.1a.67.67 0 0 0 .16-.23c.04-.1.07-.2.08-.32l.03-.34c0-.33-.05-.56-.14-.7a.43.43 0 0 0-.38-.19h-.44v1.88zm0 3.84h-1.01V.34h1.86c.35 0 .62.15.82.45.2.3.3.74.3 1.32 0 .43-.06.8-.2 1.1a.96.96 0 0 1-.69.56v.01l.23.06c.1.02.2.08.3.17.09.09.17.22.24.39.07.17.1.4.1.71l.01.45a14.64 14.64 0 0 0 .11 1.54h-.99c-.06-.2-.1-.42-.1-.65a60.8 60.8 0 0 1 0-1.23c-.01-.18-.03-.34-.07-.48a.67.67 0 0 0-.22-.32c-.1-.08-.24-.12-.43-.12h-.26v2.8z" id="Fill-24" fill="#231F20"/>
          <path id="Fill-26" fill="#231F20" d="M15.48 4.76L14.2.34h1.1l.73 2.85.76-2.85h1.03l-1.35 4.42V7.1h-1z"/>
          <path d="M19.91 6.2c.15 0 .26-.05.34-.15a1 1 0 0 0 .2-.44c.04-.2.07-.46.09-.77a26.78 26.78 0 0 0 0-2.24 4.5 4.5 0 0 0-.1-.77 1 1 0 0 0-.19-.45.43.43 0 0 0-.34-.14.43.43 0 0 0-.34.14 1 1 0 0 0-.19.45c-.04.2-.07.45-.09.77a24.8 24.8 0 0 0 .1 3c.04.2.1.36.18.45.09.1.2.15.34.15m0 1c-.4 0-.73-.09-.96-.29-.22-.2-.39-.45-.5-.78-.1-.33-.15-.7-.17-1.12a33.89 33.89 0 0 1 0-2.6c.02-.41.08-.78.18-1.1.1-.33.27-.59.5-.79.22-.2.54-.3.95-.3.42 0 .74.1.97.3.22.2.39.46.49.78.1.33.16.7.18 1.12a31.68 31.68 0 0 1 0 2.59c-.02.42-.08.8-.18 1.12-.1.33-.27.59-.5.78-.22.2-.54.3-.96.3" id="Fill-28" fill="#231F20"/>
          <path id="Fill-30" fill="#231F20" d="M22.38 7.1V.34h1.37l1.28 4.68h.01V.34h.94V7.1h-1.33l-1.31-4.95h-.01V7.1z"/>
          <path id="Fill-32" fill="#231F20" d="M26.83 7.1V.34h2.63v1.04h-1.62v1.66h1.5v1.04h-1.5v1.98h1.67V7.1z"/>
          <path d="M31.56 1.4c.16-.13.33-.28.48-.44.16-.17.3-.37.42-.6h.89V7.1h-1V1.92a4.01 4.01 0 0 1-.8.75V1.41z" id="Fill-34" fill="#231F20"/>
          <path d="M35.67 1.26c-.1 0-.18.04-.23.1a.79.79 0 0 0-.12.36c-.03.18-.04.43-.05.75a161.9 161.9 0 0 0 0 2.5 5 5 0 0 0 .06.76c.03.18.07.3.12.37.05.07.13.1.22.1.1 0 .17-.03.22-.1.05-.07.1-.2.12-.37.04-.18.05-.43.06-.75a80.07 80.07 0 0 0 0-2.5c0-.33-.02-.58-.05-.76a.74.74 0 0 0-.12-.36.29.29 0 0 0-.23-.1m0-.98c.28 0 .52.06.7.17.17.12.31.31.4.58.1.27.17.63.2 1.06a23.38 23.38 0 0 1 .02 3.05c-.02.43-.08.8-.17 1.1-.1.3-.23.54-.41.7-.18.16-.43.24-.74.24-.32 0-.56-.08-.74-.24a1.5 1.5 0 0 1-.4-.7c-.1-.3-.15-.67-.17-1.1a27.88 27.88 0 0 1 .01-3.05c.03-.43.1-.79.2-1.06s.23-.46.4-.58c.18-.11.41-.17.7-.17" id="Fill-36" fill="#231F20"/>
          <path id="Fill-38" fill="#231F20" d="M38.46 1.65h.74V3.5h1.12v1.04H39.2v1.85h-.74V4.53h-1.14V3.5h1.14z"/>
        </g>
      </g>
    </g>
  </g>
</svg>
