<svg width="50" height="74" xmlns="http://www.w3.org/2000/svg" id="esrb-everyone">
  <g id="RATING-/-ESRB-/-E" fill="none" fill-rule="evenodd">
    <g id="Page-1" transform="translate(1)">
      <path id="Fill-1" fill="#FEFEFE" d="M0 0V73.42H48.61V0z"/>
      <path id="Fill-2" fill="#231F20" d="M.7 72.63h47.2V.8H.7z"/>
      <path id="Fill-3" fill="#FEFEFE" d="M3.08 15.25H45.2V3.35H3.1z"/>
      <path id="Fill-4" fill="#FEFEFE" d="M3.06 61.65H45.2v-43.8H3.06z"/>
      <path id="Fill-5" fill="#FEFEFE" d="M3.07 70.04v-5.81h8.46v1.36H6.47v.83h4.28v1.35H6.47v.91h5.26v1.36z"/>
      <g id="Group-32" transform="translate(3.67 5.58)">
        <path d="M15.24 60.34c-.05-.2-.24-.33-.5-.4-.23-.07-.53-.1-.87-.1-.75 0-1.08.12-1.08.33 0 .86 5.96.32 5.96 2.44 0 1.35-2 2-4.85 2-2.74 0-4.52-.9-4.6-1.94h3.26c.07.2.27.36.56.46.28.1.63.14.97.14.85 0 1.41-.15 1.41-.42 0-.89-5.97-.28-5.97-2.5 0-1.23 1.9-1.85 4.5-1.85 2.88 0 4.2.82 4.44 1.84h-3.23z" id="Fill-6" fill="#FEFEFE"/>
        <path d="M23.84 62.43v2.03h-3.4v-5.82h4.9c3.45 0 4.6.53 4.6 1.66 0 .68-.54 1.23-1.75 1.43 1.1.22 1.76.36 1.76 1.53 0 .76-.04 1.02.36 1.02v.18h-3.45c-.08-.13-.17-.5-.17-1.02 0-.76-.23-1-1.81-1h-1.04zm0-1.27h1.34c1.05 0 1.61-.15 1.61-.55 0-.41-.57-.6-1.36-.6h-1.59v1.15z" id="Fill-8" fill="#FEFEFE"/>
        <path d="M32.02 64.46v-5.82h4.96c2.34 0 4.2.32 4.2 1.47 0 .6-.7 1.03-1.36 1.26 1.12.17 1.72.7 1.72 1.33 0 1.3-1.76 1.76-4.46 1.76h-5.06zm3.4-2.43v1.07h1.48c.85 0 1.48-.1 1.48-.53 0-.5-.8-.54-1.88-.54h-1.08zm0-2.03v.98h1.42c.67 0 1.17-.18 1.17-.51 0-.46-.67-.47-1.39-.47h-1.2z" id="Fill-10" fill="#FEFEFE"/>
        <path d="M35.66 52.62c0-1.19 1.02-2.15 2.3-2.15 1.28 0 2.3.96 2.3 2.15 0 1.2-1.02 2.16-2.3 2.16-1.28 0-2.3-.96-2.3-2.16zm4.2 0c0-.98-.85-1.77-1.9-1.77-1.05 0-1.9.8-1.9 1.77 0 .98.85 1.78 1.9 1.78 1.05 0 1.9-.8 1.9-1.78zm-2.39.15v1.09h-.42v-2.54h.88c.5 0 1 .13 1 .7 0 .3-.18.53-.54.6.36.07.41.24.46.5.04.25.06.51.15.74h-.53c-.04-.14-.08-.31-.1-.45-.02-.22-.02-.43-.14-.55-.11-.1-.25-.08-.4-.1h-.36zm.45-.4c.4-.01.5-.17.5-.36 0-.19-.1-.3-.44-.3h-.5v.66h.44z" id="Fill-12" fill="#231F20"/>
        <path id="Fill-14" fill="#231F20" d="M2.54 22.4l25.5-7.68 2.55 8.13-12.77 3.84 1.04 3.33 11.8-3.55 2.56 8.14-11.8 3.54 1.1 3.5 13.2-3.97 2.55 8.13-25.91 7.8z"/>
        <path id="Fill-16" fill="#231F20" d="M.58 7.09V.34h3.61v1.04H1.96v1.66h2.06v1.04H1.96v1.97h2.3v1.04z"/>
        <path id="Fill-18" fill="#231F20" d="M4.63.34h1.44l1.03 4.9h.02L8.27.35h1.37L7.9 7.1H6.26z"/>
        <path id="Fill-20" fill="#231F20" d="M10.26 7.09V.34h3.62v1.04h-2.23v1.66h2.05v1.04h-2.05v1.97h2.3v1.04z"/>
        <path d="M16.2 3.26h.62a.6.6 0 0 0 .34-.1c.1-.06.17-.14.22-.24a1 1 0 0 0 .12-.32l.03-.33c0-.33-.06-.56-.19-.69a.68.68 0 0 0-.52-.2h-.61v1.88zm0 3.83h-1.38V.34h2.56c.48 0 .86.15 1.14.45.27.3.41.74.41 1.32 0 .43-.1.8-.28 1.09-.18.3-.5.49-.95.56v.02l.32.06c.13.02.26.08.4.16.12.1.24.22.34.4.1.16.14.4.14.7a24.07 24.07 0 0 0 .08 1.62c.02.18.05.3.08.37H17.7a1.6 1.6 0 0 1-.14-.65 60.75 60.75 0 0 1 0-1.23c-.01-.18-.04-.34-.1-.47a.69.69 0 0 0-.3-.33 1.22 1.22 0 0 0-.6-.12h-.35v2.8z" id="Fill-22" fill="#231F20"/>
        <path id="Fill-24" fill="#231F20" d="M21.03 4.75L19.3.35h1.51l1 2.84L22.85.34h1.41l-1.85 4.41V7.1h-1.39z"/>
        <path d="M27.13 6.19c.2 0 .36-.05.47-.14.12-.1.2-.25.27-.45.06-.2.1-.46.12-.77a18.24 18.24 0 0 0 0-2.23 3.42 3.42 0 0 0-.12-.77.92.92 0 0 0-.27-.45.7.7 0 0 0-.47-.14.7.7 0 0 0-.46.14c-.12.1-.21.25-.27.45-.06.2-.1.45-.12.77a19.43 19.43 0 0 0 0 2.23c.02.31.06.57.12.77.06.2.15.35.27.45.11.1.27.14.46.14m0 1c-.57 0-1-.09-1.32-.29-.3-.2-.54-.45-.68-.78s-.22-.7-.24-1.12a23.06 23.06 0 0 1 0-2.59c.02-.41.1-.78.24-1.1.14-.33.37-.6.68-.79.32-.2.75-.3 1.32-.3.57 0 1.01.1 1.32.3.32.2.54.46.68.78.14.33.23.7.25 1.11a22.23 22.23 0 0 1 0 2.6c-.02.41-.1.78-.25 1.1-.14.34-.36.6-.68.8-.3.2-.75.29-1.32.29" id="Fill-26" fill="#231F20"/>
        <path id="Fill-28" fill="#231F20" d="M30.53 7.09V.34h1.87l1.76 4.67h.02V.34h1.3V7.1h-1.83l-1.81-4.94h-.02V7.1z"/>
        <path id="Fill-30" fill="#231F20" d="M36.64 7.09V.34h3.61v1.04h-2.23v1.66h2.06v1.04h-2.06v1.97h2.3v1.04z"/>
      </g>
    </g>
  </g>
</svg>