
<svg width="12" height="12" xmlns="http://www.w3.org/2000/svg" id="external-link">
  <path d="M12 6v3.86c0 1.18-.96 2.14-2.14 2.14H2.14A2.14 2.14 0 010 9.86V2.14C0 .96.96 0 2.14 0H6c.24 0 .46.26.46.5S6.24 1 6 1H2.14c-.7 0-1.13.43-1.13 1.14v7.72c0 .7.42 1.14 1.13 1.14h7.72c.7 0 1.16-.43 1.16-1.14V6c0-.24.24-.5.47-.5.24 0 .51.26.51.5zM8.57 1h1.83L5.7 5.63c-.09.08-.13.26-.13.37 0 .11.04.22.13.3.08.09.19.13.3.13.11 0 .33-.04.41-.13l4.62-4.7v1.83c0 .24.22.43.46.43h.08c.24 0 .43-.2.43-.43v-3a.43.43 0 00-.12-.3.43.43 0 00-.3-.13h-3c-.25 0-.49.28-.49.52s.24.48.48.48z" />
</svg>