<svg width="16" height="8" fill="none" xmlns="http://www.w3.org/2000/svg"><path fill-rule="evenodd" clip-rule="evenodd" d="M7.97 4a.5.5 0 0 1 .05 0c3.56 0 5.71-1.79 6.74-3.7.1-.18.28-.3.48-.3.36 0 .61.37.44.7a7.79 7.79 0 0 1-1.6 2.09l1.04 2.46a.5.5 0 1 1-.92.39l-.93-2.2c-.52.38-1.12.7-1.78.95l.5 1.99a.5.5 0 1 1-.97.24l-.49-1.93c-.62.16-1.3.27-2.03.3v2a.5.5 0 0 1-1 0V5a9.95 9.95 0 0 1-2.03-.3l-.49 1.93a.5.5 0 1 1-.97-.24l.5-1.99a8.08 8.08 0 0 1-1.78-.95l-.93 2.2a.5.5 0 1 1-.92-.39L1.92 2.8A7.79 7.79 0 0 1 .32.69C.15.37.4 0 .76 0c.2 0 .38.12.48.3C2.26 2.2 4.42 4 7.97 4Z" fill="#B8B8B8"/></svg>
