<svg width="16" height="16" viewBox="0 0 16 16" fill="none" xmlns="http://www.w3.org/2000/svg">
<path fill-rule="evenodd" clip-rule="evenodd" d="M4.73244 4C4.38663 4.5978 3.74028 5 3 5C1.89543 5 1 4.10457 1 3C1 1.89543 1.89543 1 3 1C3.74028 1 4.38663 1.4022 4.73244 2H14C14.5523 2 15 2.44772 15 3C15 3.55228 14.5523 4 14 4H4.73244ZM2 7C1.44772 7 1 7.44772 1 8C1 8.55228 1.44772 9 2 9H11.2676C11.6134 9.5978 12.2597 10 13 10C14.1046 10 15 9.10457 15 8C15 6.89543 14.1046 6 13 6C12.2597 6 11.6134 6.4022 11.2676 7H2ZM1 13C1 12.4477 1.44772 12 2 12H6.26756C6.61337 11.4022 7.25972 11 8 11C8.74028 11 9.38663 11.4022 9.73244 12H14C14.5523 12 15 12.4477 15 13C15 13.5523 14.5523 14 14 14H9.73244C9.38663 14.5978 8.74028 15 8 15C7.25972 15 6.61337 14.5978 6.26756 14H2C1.44772 14 1 13.5523 1 13Z" fill="#FAFAFA"/>
</svg>
