<svg width="24" height="24" viewBox="0 0 24 24" fill="none" xmlns="http://www.w3.org/2000/svg">
<path fill-rule="evenodd" clip-rule="evenodd" d="M2 5C2 4.44772 2.44772 4 3 4H6C6.48329 4 6.89742 4.34562 6.98387 4.82111L8.83458 15H18.2192L19.7192 9H11C10.4477 9 10 8.55228 10 8C10 7.44772 10.4477 7 11 7H21C21.3079 7 21.5987 7.14187 21.7882 7.38459C21.9777 7.6273 22.0448 7.94379 21.9701 8.24254L19.9701 16.2425C19.8589 16.6877 19.4589 17 19 17H8C7.51671 17 7.10258 16.6544 7.01613 16.1789L5.16542 6H3C2.44772 6 2 5.55228 2 5ZM11 20C11 21.1046 10.1046 22 9 22C7.89543 22 7 21.1046 7 20C7 18.8954 7.89543 18 9 18C10.1046 18 11 18.8954 11 20ZM18 22C19.1046 22 20 21.1046 20 20C20 18.8954 19.1046 18 18 18C16.8954 18 16 18.8954 16 20C16 21.1046 16.8954 22 18 22Z" fill="#212121"/>
</svg>
