<svg width="18" height="13" viewBox="0 0 18 13" fill="none" xmlns="http://www.w3.org/2000/svg">
<path fill-rule="evenodd" clip-rule="evenodd" d="M9.01396 3L5.89664 6.11731L2 3L3 11H15L16 3L12.1189 6.10491L9.01396 3ZM9.01396 4.41421L12.0446 7.44491L14.7024 5.31872L14.1172 10H3.88278L3.29762 5.31872L5.97086 7.45731L9.01396 4.41421Z" fill="#404040"/>
<path fill-rule="evenodd" clip-rule="evenodd" d="M7 2C7 3.10457 7.89543 4 9 4C10.1046 4 11 3.10457 11 2C11 0.89543 10.1046 0 9 0C7.89543 0 7 0.89543 7 2ZM10 2C10 2.55228 9.55228 3 9 3C8.44772 3 8 2.55228 8 2C8 1.44772 8.44772 1 9 1C9.55228 1 10 1.44772 10 2Z" fill="#404040"/>
<path fill-rule="evenodd" clip-rule="evenodd" d="M14 2C14 3.10457 14.8954 4 16 4C17.1046 4 18 3.10457 18 2C18 0.89543 17.1046 0 16 0C14.8954 0 14 0.89543 14 2ZM17 2C17 2.55228 16.5523 3 16 3C15.4477 3 15 2.55228 15 2C15 1.44772 15.4477 1 16 1C16.5523 1 17 1.44772 17 2Z" fill="#404040"/>
<path fill-rule="evenodd" clip-rule="evenodd" d="M0 2C0 3.10457 0.89543 4 2 4C3.10457 4 4 3.10457 4 2C4 0.89543 3.10457 0 2 0C0.89543 0 0 0.89543 0 2ZM3 2C3 2.55228 2.55228 3 2 3C1.44772 3 1 2.55228 1 2C1 1.44772 1.44772 1 2 1C2.55228 1 3 1.44772 3 2Z" fill="#404040"/>
<path fill-rule="evenodd" clip-rule="evenodd" d="M15 10H3V13H15V10ZM14 12H4V11H14V12Z" fill="#404040"/>
</svg>
