<svg width="15" height="16" viewBox="0 0 15 16" fill="none" xmlns="http://www.w3.org/2000/svg">
<path fill-rule="evenodd" clip-rule="evenodd" d="M6.63971 5.31846C6.49981 5.31846 6.38558 5.09941 6.38558 4.83059C6.38558 4.56052 6.49981 4.34147 6.63971 4.34147C6.7796 4.34147 6.89383 4.56052 6.89383 4.83059C6.89383 5.09941 6.7796 5.31846 6.63971 5.31846ZM7.4776 5.31846C7.33642 5.31846 7.22347 5.09941 7.22347 4.83059C7.22347 4.56052 7.33642 4.34147 7.4776 4.34147C7.61878 4.34147 7.73172 4.56052 7.73172 4.83059C7.73172 5.09941 7.61878 5.31846 7.4776 5.31846ZM7.96058 6.2679C7.94261 6.31644 7.92592 6.35502 7.92592 6.35502C7.92592 6.35502 7.46644 6.97482 7.31371 7.14532C7.16226 7.31583 7.0275 7.28472 7.0275 7.28472C7.0275 7.28472 6.8645 7.31583 6.71305 7.14532C6.56032 6.97482 6.08672 6.35502 6.08672 6.35502C6.08672 6.35502 6.07389 6.32889 6.05849 6.29155C4.50293 7.4938 4.09094 10.3177 4.17693 10.9189C4.18848 10.9898 4.20645 11.0695 4.22827 11.1516C4.45031 11.108 4.30143 11.4478 4.60047 11.4478C5.76329 11.4478 6.63733 11.8784 6.75284 12.4248C6.80033 12.5082 6.82728 12.599 6.82728 12.6936C6.82728 12.8019 6.79134 12.9039 6.72974 12.996H7.35735C7.29574 12.9039 7.25852 12.8019 7.25852 12.6936C7.25852 12.5667 7.30858 12.4484 7.39072 12.3451C7.59864 11.8361 8.41236 11.4478 9.51742 11.4478C9.81775 11.4478 9.66758 11.108 9.8909 11.1516C9.91272 11.0707 9.92941 10.9898 9.94224 10.9189C10.0282 10.3202 9.74844 7.65311 7.96058 6.2679ZM8.79429 6.05504C9.21142 5.87582 9.50405 5.46138 9.50405 4.97973C9.50405 4.33256 8.97911 3.80859 8.33096 3.80859C7.85608 3.80859 7.44024 4.08987 7.25542 4.4956L7.05264 4.29149L6.8537 4.4956C6.6676 4.08987 6.26074 3.80859 5.78586 3.80859C5.13771 3.80859 4.61149 4.33256 4.61149 4.97973C4.61149 5.46138 4.90412 5.87582 5.32253 6.05504L6.03485 6.22181C6.0233 6.18199 6.01817 6.14092 6.01688 6.09611C6.0156 6.07993 6.01175 6.06624 6.01303 6.04882C6.01817 5.9953 6.03357 5.94427 6.07849 5.90569C6.23892 5.76755 6.44941 5.62815 6.51743 5.61695H7.02697H7.51212C7.58014 5.62815 7.76496 5.76755 7.92539 5.90569C7.96518 5.94054 7.98571 5.98534 7.99341 6.03264C8.00111 6.08118 7.99598 6.13096 7.98571 6.17825L8.79429 6.05504ZM13.9398 9.62084C13.6266 9.84113 12.9297 9.43291 12.5742 9.21137C12.2187 8.99109 11.9479 9.04585 11.9479 9.04585C11.9569 9.68058 11.5333 10.7683 11.3459 11.189L11.1496 11.6258C11.8144 11.8175 12.8193 12.1436 12.8193 12.5145C12.8193 12.5257 12.8155 12.5369 12.8155 12.5481C12.8335 12.6165 12.8424 12.6887 12.8424 12.7621C12.8424 13.3234 12.2918 13.7777 11.6129 13.7777H8.58263C8.14754 13.7777 7.76892 13.5898 7.54945 13.3085H6.56888C6.35069 13.5898 5.9695 13.7777 5.53313 13.7777H2.50416C1.82392 13.7777 1.27332 13.3185 1.27332 12.7584C1.27332 12.6837 1.28359 12.609 1.30155 12.5394C1.30027 12.5282 1.29642 12.5095 1.29642 12.4983C1.29642 12.1262 2.30265 11.7839 2.96749 11.5922L2.76983 11.1218C2.58245 10.8094 2.16147 9.64822 2.16917 9.01224V9.04585C2.16917 9.04585 1.89965 8.99109 1.54413 9.21137C1.18733 9.43291 0.49169 9.84113 0.178526 9.62084C-0.133356 9.3993 0.0103921 9.21262 0.251683 8.94006C0.494257 8.66625 2.8032 6.7994 2.86096 6.2941C2.91743 5.78756 3.03038 4.05637 3.07915 3.86097C3.12535 3.66682 3.8903 1.39424 6.96419 1.33699V1.3345C6.96419 1.3345 6.78707 1.3345 6.58172 1.33325H6.57145C6.64461 1.33325 6.72161 1.33325 6.80632 1.33325C6.88333 1.3345 6.96675 1.3345 7.05403 1.3345C7.14131 1.3345 7.22216 1.3345 7.30045 1.33325C7.36591 1.33325 7.42238 1.33325 7.48271 1.33325H7.47372C7.29147 1.3345 7.13489 1.3345 7.13489 1.3345V1.33699C10.3795 1.3905 10.984 3.66682 11.0315 3.86097C11.079 4.05637 11.2073 5.78756 11.2651 6.2941C11.3215 6.7994 13.6266 8.66625 13.8679 8.94006C14.1105 9.21262 14.253 9.3993 13.9398 9.62084Z" fill="#404040"/>
</svg>
