<svg width="60" height="74" xmlns="http://www.w3.org/2000/svg" xmlns:xlink="http://www.w3.org/1999/xlink" id="pegi-18">
  <defs>
    <path id="path-1" d="M0 73.8h60V0H0z"/>
  </defs>
  <g id="RATING-/-PEGI-/-18" fill="none" fill-rule="evenodd">
    <g id="Group">
      <path id="Fill-1" fill="#EC2124" d="M0 60.48h60V0H0z"/>
      <g id="Group-6" transform="translate(4.8 7.26)" fill="#FEFEFE">
        <path d="M16.32 44.64H6.96V11.85H.84V6.29c4.2.06 6.96-1.7 8.46-5.81h7.02v44.16z" id="Fill-2"/>
        <path d="M37.02 8.46c-1.98 0-2.46.97-2.46 5.14 0 4.18.48 5.15 2.46 5.15s2.46-.97 2.46-5.15c0-4.17-.48-5.14-2.46-5.14m0 17.42c-2.16 0-2.7 1.52-2.7 5.63 0 4.17.54 5.63 2.7 5.63s2.7-1.46 2.7-5.63c0-4.11-.54-5.63-2.7-5.63m-12.06 6.17c0-4.35.96-7.44 4.5-10.16-2.94-2.96-4.02-5.56-4.02-9.56C25.44 5.38 29.82.48 37.02.48S48.6 5.38 48.6 12.33c0 4-1.08 6.6-4.02 9.56 3.54 2.72 4.5 5.8 4.5 10.16 0 7.93-2.46 13.31-12.06 13.31-9.6 0-12.06-5.38-12.06-13.3" id="Fill-4"/>
      </g>
      <path d="M0 73.8h60V0H0v73.8zm1.2-14.52h57.6V1.2H1.2v58.07z" id="Fill-7" fill="#231F20"/>
      <path d="M57.6 5.9h-.56V3.16h-.01l-.96 2.74h-.45l-.91-2.74h-.02V5.9h-.56V2.42h.89L55.88 5h.01l.84-2.6h.87V5.9zm-3.87-3.48v.45h-.95V5.9h-.55V2.87h-.95v-.45h2.45z" id="Fill-8" fill="#231F20"/>
      <path id="Fill-9" fill="#FEFEFE" d="M3.81 69.26h1.02l.93-4.6h.03l.97 4.6h.96l1.32-5.62h-.92l-.86 4.6h-.02l-.93-4.6H5.3l-.95 4.6h-.02l-.9-4.6h-.9z"/>
      <path id="Fill-10" fill="#FEFEFE" d="M10.55 69.26h1.01l.94-4.6h.02l.98 4.6h.95l1.32-5.62h-.91l-.86 4.6h-.02l-.93-4.6h-1.03l-.94 4.6h-.02l-.9-4.6h-.91z"/>
      <path id="Fill-11" fill="#FEFEFE" d="M17.28 69.26h1.02l.94-4.6h.02l.97 4.6h.96l1.32-5.62h-.91l-.87 4.6h-.02l-.92-4.6h-1.03l-.95 4.6h-.02l-.9-4.6H16z"/>
      <path id="Fill-12" fill="#FEFEFE" d="M23 69.26h.96v-1.11H23z"/>
      <path d="M25.3 71.1v-7.46h.83v.7h.02c.12-.43.6-.85 1.2-.85 1.33 0 1.82 1.19 1.82 2.85 0 1.28-.37 3.06-1.81 3.06-.5 0-.97-.3-1.17-.78h-.02v2.48h-.87zm.82-4.65c0 1.09.19 2.2 1.12 2.2.81 0 1.02-.86 1.02-2.3 0-1.24-.2-2.1-1.02-2.1-.96 0-1.12.92-1.12 2.2z" id="Fill-13" fill="#FEFEFE"/>
      <path d="M33.77 66.55v-.35c0-1.2-.16-2.7-1.86-2.7-1.71 0-1.99 1.62-1.99 3.02 0 1.93.58 2.88 1.94 2.88 1.51 0 1.87-1.4 1.87-1.99h-.87c0 .42-.12 1.3-.95 1.3-1.07 0-1.07-1.3-1.07-2.16h2.93zm-2.9-.69v-.2c0-.34.1-1.47 1.02-1.47.77 0 .97.74.97 1.37v.3h-1.99z" id="Fill-15" fill="#FEFEFE"/>
      <path d="M38.4 63.64h-.84v.71h-.02c-.11-.43-.6-.86-1.2-.86-1.42 0-1.82 1.44-1.82 2.96 0 .74.1 2.8 1.72 2.8.55 0 1.07-.28 1.26-.75h.02v.74c0 .38.04 1.25-1.08 1.25-.46 0-.85-.2-.9-.7h-.87c.15 1.4 1.49 1.4 1.83 1.4 1.12 0 1.9-.61 1.9-2.29v-5.26zm-1.95.61c.93 0 1.12 1.1 1.12 2.2 0 1.15-.19 2.05-1.13 2.05-.87 0-1-1.14-1-2.05 0-1.34.2-2.2 1.01-2.2z" id="Fill-17" fill="#FEFEFE"/>
      <mask id="mask-2" fill="#fff">
        <use xlink:href="#path-1"/>
      </mask>
      <path d="M39.6 62.78h.86v-1h-.87v1zm0 6.48h.86v-5.62h-.87v5.62z" id="Fill-19" fill="#FEFEFE" mask="url(#mask-2)"/>
      <path id="Fill-21" fill="#FEFEFE" mask="url(#mask-2)" d="M41.85 69.26h.96v-1.11h-.96z"/>
      <path d="M44.2 62.78h.88v-1h-.88v1zm0 6.48h.88v-5.62h-.88v5.62z" id="Fill-22" fill="#FEFEFE" mask="url(#mask-2)"/>
      <path d="M46.27 69.26h.87v-3.88c0-.82.64-1.13 1.1-1.13.8 0 .83.7.83 1.13v3.88h.87v-3.98c0-.66 0-1.79-1.47-1.79-.53 0-1.12.3-1.35.81h-.02v-.66h-.83v5.62z" id="Fill-23" fill="#FEFEFE" mask="url(#mask-2)"/>
      <path d="M51.34 69.26h.88v-4.93h.95v-.69h-.95v-.66c0-.39.19-.53.56-.53h.4v-.76h-.63c-.84 0-1.2.44-1.2 1.3v.65h-.82v.7h.81v4.92z" id="Fill-24" fill="#FEFEFE" mask="url(#mask-2)"/>
      <path d="M55.5 68.71c-.9 0-1.08-1.05-1.08-2.26 0-1.22.19-2.26 1.07-2.26.94 0 1.11 1.04 1.11 2.26 0 1.21-.18 2.26-1.1 2.26m-2-2.26c0 1.58.4 2.95 2.01 2.95 1.6 0 2-1.37 2-2.95s-.39-2.96-2-2.96c-1.6 0-2 1.38-2 2.96" id="Fill-25" fill="#FEFEFE" mask="url(#mask-2)"/>
    </g>
  </g>
</svg>