<svg width="60" height="74" xmlns="http://www.w3.org/2000/svg" xmlns:xlink="http://www.w3.org/1999/xlink" id="pegi-exclamation">
  <defs>
    <path id="path-1" d="M0 73.8h60V0H0z"/>
  </defs>
  <g id="RATING-/-PEGI-/-!" fill="none" fill-rule="evenodd">
    <g id="Group">
      <path id="Fill-1" fill="#F8A01B" d="M1.2 59.27h57.6V1.21H1.2z"/>
      <path id="Stroke-2" stroke="#F8A01B" stroke-width=".5" d="M1.2 59.27h57.6V1.21H1.2z"/>
      <path d="M26.3 51.76h8.45v-8.14H26.3v8.14zm0-29.74V7.71h8.45v14.31l-1.17 17.46h-6.11L26.3 22.02z" id="Fill-3" fill="#FEFEFE"/>
      <path d="M0 73.8h60V0H0v73.8zm1.2-14.52h57.6V1.2H1.2v58.07z" id="Fill-4" fill="#231F20"/>
      <path d="M57.6 5.9h-.56V3.16h-.01l-.96 2.74h-.45l-.91-2.74h-.02V5.9h-.56V2.42h.89L55.88 5h.01l.84-2.6h.87V5.9zm-3.87-3.48v.45h-.95V5.9h-.55V2.87h-.95v-.45h2.45z" id="Fill-5" fill="#231F20"/>
      <path id="Fill-6" fill="#FEFEFE" d="M3.81 69.26h1.02l.93-4.6h.03l.97 4.6h.96l1.32-5.62h-.92l-.86 4.6h-.02l-.93-4.6H5.3l-.95 4.6h-.02l-.9-4.6h-.9z"/>
      <path id="Fill-7" fill="#FEFEFE" d="M10.55 69.26h1.01l.94-4.6h.02l.98 4.6h.95l1.32-5.62h-.91l-.86 4.6h-.02l-.93-4.6h-1.03l-.94 4.6h-.02l-.9-4.6h-.91z"/>
      <path id="Fill-8" fill="#FEFEFE" d="M17.28 69.26h1.02l.94-4.6h.02l.97 4.6h.96l1.32-5.62h-.91l-.87 4.6h-.02l-.92-4.6h-1.03l-.95 4.6h-.02l-.9-4.6H16z"/>
      <path id="Fill-9" fill="#FEFEFE" d="M23 69.26h.96v-1.11H23z"/>
      <path d="M25.3 71.1v-7.46h.83v.7h.02c.12-.43.6-.85 1.2-.85 1.33 0 1.82 1.19 1.82 2.85 0 1.28-.37 3.06-1.81 3.06-.5 0-.97-.3-1.17-.78h-.02v2.48h-.87zm.82-4.65c0 1.09.19 2.2 1.12 2.2.81 0 1.02-.86 1.02-2.3 0-1.24-.2-2.1-1.02-2.1-.96 0-1.12.92-1.12 2.2z" id="Fill-10" fill="#FEFEFE"/>
      <path d="M33.77 66.55v-.35c0-1.2-.16-2.7-1.86-2.7-1.71 0-1.99 1.62-1.99 3.02 0 1.93.58 2.88 1.94 2.88 1.51 0 1.87-1.4 1.87-1.99h-.87c0 .42-.12 1.3-.95 1.3-1.07 0-1.07-1.3-1.07-2.16h2.93zm-2.9-.69v-.2c0-.34.1-1.47 1.02-1.47.77 0 .97.74.97 1.37v.3h-1.99z" id="Fill-12" fill="#FEFEFE"/>
      <path d="M38.4 63.64h-.84v.71h-.02c-.11-.43-.6-.86-1.2-.86-1.42 0-1.82 1.44-1.82 2.96 0 .74.1 2.8 1.72 2.8.55 0 1.07-.28 1.26-.75h.02v.74c0 .38.04 1.25-1.08 1.25-.46 0-.85-.2-.9-.7h-.87c.15 1.4 1.49 1.4 1.83 1.4 1.12 0 1.9-.61 1.9-2.29v-5.26zm-1.95.61c.93 0 1.12 1.1 1.12 2.2 0 1.15-.19 2.05-1.13 2.05-.87 0-1-1.14-1-2.05 0-1.34.2-2.2 1.01-2.2z" id="Fill-14" fill="#FEFEFE"/>
      <mask id="mask-2" fill="#fff">
        <use xlink:href="#path-1"/>
      </mask>
      <path d="M39.6 62.78h.86v-1h-.87v1zm0 6.48h.86v-5.62h-.87v5.62z" id="Fill-16" fill="#FEFEFE" mask="url(#mask-2)"/>
      <path id="Fill-18" fill="#FEFEFE" mask="url(#mask-2)" d="M41.85 69.26h.96v-1.11h-.96z"/>
      <path d="M44.2 62.78h.88v-1h-.88v1zm0 6.48h.88v-5.62h-.88v5.62z" id="Fill-19" fill="#FEFEFE" mask="url(#mask-2)"/>
      <path d="M46.27 69.26h.87v-3.88c0-.82.64-1.13 1.1-1.13.8 0 .83.7.83 1.13v3.88h.87v-3.98c0-.66 0-1.79-1.47-1.79-.53 0-1.12.3-1.35.81h-.02v-.66h-.83v5.62z" id="Fill-20" fill="#FEFEFE" mask="url(#mask-2)"/>
      <path d="M51.34 69.26h.88v-4.93h.95v-.69h-.95v-.66c0-.39.19-.53.56-.53h.4v-.76h-.63c-.84 0-1.2.44-1.2 1.3v.65h-.82v.7h.81v4.92z" id="Fill-21" fill="#FEFEFE" mask="url(#mask-2)"/>
      <path d="M55.5 68.71c-.9 0-1.08-1.05-1.08-2.26 0-1.22.19-2.26 1.07-2.26.94 0 1.11 1.04 1.11 2.26 0 1.21-.18 2.26-1.1 2.26m-2-2.26c0 1.58.4 2.95 2.01 2.95 1.6 0 2-1.37 2-2.95s-.39-2.96-2-2.96c-1.6 0-2 1.38-2 2.96" id="Fill-22" fill="#FEFEFE" mask="url(#mask-2)"/>
    </g>
  </g>
</svg>