<svg xmlns="http://www.w3.org/2000/svg" viewBox="0 0 19 16"><path d="M10 14.5c3.842 0 6.5-2.672 6.5-6.5S13.842 1.5 10 1.5c-3.66 0-6.257 2.366-6.5 6H5c.474.006.843.663.5 1l-2 2c-.207.203-1.056.192-1.264-.013L.188 8.473a.535.535 0 01.348-.941h1.482C2.263 3.306 5.783 0 10.035 0c4.434 0 8.03 3.582 8.03 8s-3.596 8-8.03 8c-.706 0-.74-1.5-.035-1.5zM9.516 4.143c0-.707 1.129-.707 1.129 0v.842c.496.071.857.188.86.189.705.215.362 1.237-.344 1.021a4.79 4.79 0 00-.516-.126v1.554c2.597.614 2.032 3.153 0 3.414v.82c0 .707-1.13.707-1.13 0v-.862a6.6 6.6 0 01-1.367-.413c-.68-.282-.229-1.265.45-.983.337.14.643.237.918.3V8.475c-2.708-.635-1.996-3.295 0-3.521v-.81zm1.065 4.631v1.29c1.014-.187 1.05-.986 0-1.29zm-.775-1.548v-1.29c-.97.183-1.093 1 0 1.29z" fill-rule="nonzero"/></svg>