<svg width="13" height="15" viewBox="0 0 13 15" fill="none" xmlns="http://www.w3.org/2000/svg">
<path fill-rule="evenodd" clip-rule="evenodd" d="M3 3.5C3 5.433 4.567 7 6.5 7C8.433 7 10 5.433 10 3.5C10 1.567 8.433 0 6.5 0C4.567 0 3 1.567 3 3.5ZM9 3.5C9 4.88071 7.88071 6 6.5 6C5.11929 6 4 4.88071 4 3.5C4 2.11929 5.11929 1 6.5 1C7.88071 1 9 2.11929 9 3.5Z" fill="#404040"/>
<path fill-rule="evenodd" clip-rule="evenodd" d="M0 12.5C0 12.6686 0.00642213 12.8358 0.0190352 13.0012C1.86444 14.2624 4.09608 15 6.5 15C8.90392 15 11.1356 14.2624 12.981 13.0012C12.9936 12.8358 13 12.6686 13 12.5C13 8.91015 10.0899 6 6.5 6C2.91015 6 0 8.91015 0 12.5ZM11.9997 12.4464C10.3621 13.4557 8.47282 14 6.5 14C4.52718 14 2.63788 13.4557 1.00026 12.4464C1.02904 9.4335 3.48033 7 6.5 7C9.51967 7 11.971 9.4335 11.9997 12.4464Z" fill="#404040"/>
</svg>
