<svg width="18" height="16" viewBox="-0.5 0 19 16" fill="none" xmlns="http://www.w3.org/2000/svg">
<path d="M8.49652 0.0301079C9.15675 0.47972 10.1825 2.69337 11.1089 5.28781C11.134 5.35893 11.2003 5.4071 11.2745 5.40939C13.8572 5.49656 16.0389 5.70646 16.6969 6.03793C16.7825 6.08152 16.8225 6.1813 16.7871 6.27077C16.409 7.21013 14.9298 8.83654 12.8269 10.5168C12.7709 10.5616 12.7458 10.6361 12.764 10.7061C13.3694 13.0769 13.6219 14.834 13.623 15.817C13.623 15.9477 13.4905 16.0361 13.3706 15.9856C12.1849 15.4901 10.6314 14.9361 8.49538 13.6538C8.43827 13.6194 8.36516 13.6194 8.3069 13.6538C6.17086 14.9361 4.61623 15.4901 3.4317 15.9856C3.31176 16.0361 3.17926 15.9477 3.17926 15.817C3.17926 14.834 3.4317 13.0769 4.03824 10.7061C4.05652 10.6361 4.03139 10.5616 3.97542 10.5168C1.86908 8.83654 0.390979 7.21013 0.0128882 6.27077C-0.0225221 6.1813 0.0174573 6.08152 0.103128 6.03793C0.761075 5.70646 2.94281 5.49656 5.52548 5.40939C5.59973 5.4071 5.66598 5.35893 5.69111 5.28781C6.61635 2.69337 7.6421 0.47972 8.30234 0.0301079C8.36059 -0.010036 8.43827 -0.010036 8.49652 0.0301079Z" fill="#F9A51E" stroke="#F9A51E"/>
</svg>
