<svg width="74" height="74" xmlns="http://www.w3.org/2000/svg" id="usk-6">
  <g id="RATING-/-USK-/-6+" fill="none" fill-rule="evenodd">
    <g id="Page-1">
      <g id="Group-9">
        <path d="M73.23 67.06c0 3.4-2.76 6.17-6.17 6.17H6.94a6.17 6.17 0 0 1-6.17-6.17V6.94C.77 3.54 3.53.77 6.94.77h60.12c3.4 0 6.17 2.76 6.17 6.17v60.12z" id="Fill-1" fill="#F5F582"/>
        <path d="M6.94 1.54a5.4 5.4 0 0 0-5.4 5.4v60.12a5.4 5.4 0 0 0 5.4 5.4h60.12a5.4 5.4 0 0 0 5.4-5.4V6.94a5.4 5.4 0 0 0-5.4-5.4H6.94zM67.06 74H6.94A6.95 6.95 0 0 1 0 67.06V6.94A6.95 6.95 0 0 1 6.94 0h60.12A6.95 6.95 0 0 1 74 6.94v60.12A6.95 6.95 0 0 1 67.06 74z" id="Fill-3" fill="#FFF000"/>
        <path d="M68.92 34.03a4.2 4.2 0 0 1 0 5.94L39.97 68.9a4.2 4.2 0 0 1-5.94 0L5.08 39.97a4.2 4.2 0 0 1 0-5.94L34.03 5.08a4.2 4.2 0 0 1 5.94 0l28.95 28.95z" id="Fill-5" fill="#FFF000"/>
        <path d="M37 4.63c-.88 0-1.76.33-2.42 1L5.63 34.57a3.43 3.43 0 0 0 0 4.85l28.95 28.95a3.51 3.51 0 0 0 4.84 0l28.95-28.95a3.4 3.4 0 0 0 0-4.85L39.42 5.63c-.66-.67-1.54-1-2.42-1m0 66.29a4.94 4.94 0 0 1-3.51-1.46L4.54 40.51a4.98 4.98 0 0 1 0-7.02L33.49 4.54a4.98 4.98 0 0 1 7.02 0l28.95 28.95a4.93 4.93 0 0 1 0 7.02L40.51 69.46A4.94 4.94 0 0 1 37 70.92" id="Fill-7" fill="#000"/>
      </g>
      <g id="Group-18" transform="translate(21.58 20.04)" fill="#000">
        <path d="M.93 1.19h2v5.38c0 .85.03 1.4.08 1.66.09.4.3.73.62.97.32.25.76.37 1.32.37.57 0 1-.11 1.29-.35.29-.23.46-.51.52-.85.06-.34.09-.9.09-1.69v-5.5h2V6.4c0 1.2-.05 2.04-.16 2.53-.11.5-.3.9-.6 1.25-.3.33-.68.6-1.17.8-.49.2-1.12.3-1.9.3a5.5 5.5 0 0 1-2.17-.32c-.49-.22-.87-.5-1.16-.86A2.75 2.75 0 0 1 1.13 9C1 8.44.93 7.6.93 6.5v-5.3z" id="Fill-10"/>
        <path d="M11.01 7.89l1.95-.2c.12.66.36 1.14.72 1.45.36.3.84.46 1.45.46.65 0 1.13-.14 1.46-.4.33-.28.5-.6.5-.97a.92.92 0 0 0-.21-.6c-.14-.16-.38-.3-.73-.43-.23-.08-.77-.22-1.6-.43a5.45 5.45 0 0 1-2.26-.98 2.59 2.59 0 0 1-.49-3.42c.29-.44.7-.78 1.24-1 .54-.24 1.2-.35 1.96-.35 1.24 0 2.18.27 2.81.82a2.9 2.9 0 0 1 1 2.18l-2.01.1c-.09-.52-.27-.88-.55-1.1-.29-.23-.71-.34-1.27-.34-.59 0-1.04.12-1.37.36a.72.72 0 0 0-.32.61c0 .24.1.44.3.6.25.22.86.44 1.84.67.98.23 1.7.47 2.17.71.46.25.83.59 1.1 1.01.25.43.39.96.39 1.59a2.93 2.93 0 0 1-1.82 2.7 5.6 5.6 0 0 1-2.16.36 4.3 4.3 0 0 1-2.9-.87 3.79 3.79 0 0 1-1.2-2.53" id="Fill-12"/>
        <path id="Fill-14" d="M21.36 11.12V1.19h2v4.4l4.05-4.4h2.7l-3.74 3.86 3.94 6.07h-2.59l-2.73-4.66-1.63 1.66v3z"/>
        <path d="M17.6 32.8c-.55.64-1.23.96-2.05.96-.86 0-1.61-.4-2.28-1.18-.66-.78-1-1.9-1-3.34 0-1.3.3-2.3.89-2.97.59-.67 1.31-1 2.17-1 .88 0 1.62.35 2.21 1.05.59.7.88 1.8.88 3.31 0 1.47-.27 2.52-.82 3.16M16.02 22a5.2 5.2 0 0 0-4.12 1.97c.16-2.67.57-4.42 1.22-5.27a3.28 3.28 0 0 1 2.59-1.26 3 3 0 0 1 2.84 1.74l3.52-2.16c-.97-1.67-3.4-3.23-6.3-3.23a7.6 7.6 0 0 0-6.12 2.81c-1.57 1.88-2.35 4.94-2.35 9.18 0 4.15.75 7.13 2.26 8.94a7.16 7.16 0 0 0 5.77 2.73c2.18 0 3.96-.71 5.35-2.15 1.4-1.43 2.1-3.33 2.1-5.7 0-2.24-.67-4.06-2-5.47A6.3 6.3 0 0 0 16.03 22" id="Fill-16"/>
      </g>
    </g>
  </g>
</svg>