<svg width="74" height="74" xmlns="http://www.w3.org/2000/svg" id="usk-18">
  <g id="RATING-/-USK-/-18+" fill="none" fill-rule="evenodd">
    <g id="Page-1">
      <g id="Group-9">
        <path d="M73.23 67.06c0 3.4-2.76 6.17-6.17 6.17H6.94a6.17 6.17 0 0 1-6.17-6.17V6.94C.77 3.54 3.53.77 6.94.77h60.12c3.4 0 6.17 2.76 6.17 6.17v60.12z" id="Fill-1" fill="#E65A50"/>
        <path d="M6.94 1.54a5.4 5.4 0 0 0-5.4 5.4v60.12a5.4 5.4 0 0 0 5.4 5.4h60.12a5.4 5.4 0 0 0 5.4-5.4V6.94a5.4 5.4 0 0 0-5.4-5.4H6.94zM67.06 74H6.94A6.95 6.95 0 0 1 0 67.06V6.94A6.95 6.95 0 0 1 6.94 0h60.12A6.95 6.95 0 0 1 74 6.94v60.12A6.95 6.95 0 0 1 67.06 74z" id="Fill-3" fill="#DC281E"/>
        <path d="M68.92 34.03a4.2 4.2 0 0 1 0 5.94L39.97 68.9a4.2 4.2 0 0 1-5.94 0L5.08 39.97a4.2 4.2 0 0 1 0-5.94L34.03 5.08a4.2 4.2 0 0 1 5.94 0l28.95 28.95z" id="Fill-5" fill="#DC281E"/>
        <path d="M37 4.63a3.4 3.4 0 0 0-2.42 1L5.63 34.57a3.43 3.43 0 0 0 0 4.85l28.95 28.95a3.4 3.4 0 0 0 4.85 0l28.94-28.95a3.4 3.4 0 0 0 0-4.85L39.42 5.63a3.4 3.4 0 0 0-2.42-1zm0 66.29a4.93 4.93 0 0 1-3.51-1.46L4.54 40.51a4.98 4.98 0 0 1 0-7.02L33.49 4.54a5.09 5.09 0 0 1 7.02 0l28.95 28.95a4.94 4.94 0 0 1 0 7.02L40.51 69.46A4.93 4.93 0 0 1 37 70.92z" id="Fill-7" fill="#000"/>
      </g>
      <g id="Group-20" transform="translate(21.58 20.04)" fill="#000">
        <path d="M.93 1.19h2v5.38c0 .85.03 1.4.08 1.66.09.4.3.73.62.97.32.25.76.37 1.32.37.57 0 1-.11 1.29-.35.29-.23.46-.51.52-.85.06-.34.09-.9.09-1.69v-5.5h2V6.4c0 1.2-.05 2.04-.16 2.53-.1.5-.31.9-.6 1.25-.3.33-.68.6-1.17.8-.49.2-1.12.3-1.9.3-.96 0-1.68-.1-2.17-.32s-.87-.5-1.16-.86A2.74 2.74 0 0 1 1.13 9C1 8.44.93 7.6.93 6.5v-5.3z" id="Fill-10"/>
        <path d="M11.01 7.89l1.95-.2c.12.66.36 1.14.72 1.45.36.3.84.46 1.45.46.65 0 1.13-.14 1.46-.4.33-.28.5-.6.5-.97a.92.92 0 0 0-.21-.6c-.14-.16-.38-.3-.73-.43-.23-.08-.77-.22-1.6-.43a5.46 5.46 0 0 1-2.27-.98 2.6 2.6 0 0 1-.48-3.42c.29-.44.7-.78 1.24-1 .54-.24 1.2-.35 1.96-.35 1.24 0 2.18.27 2.81.82a2.9 2.9 0 0 1 1 2.18l-2.01.1c-.09-.52-.27-.88-.55-1.1-.29-.23-.7-.34-1.27-.34-.59 0-1.04.12-1.37.36a.72.72 0 0 0-.32.61c0 .24.1.44.3.6.25.22.86.44 1.84.67.97.23 1.7.47 2.16.71.47.25.84.59 1.1 1.01.26.43.4.96.4 1.59a2.92 2.92 0 0 1-1.82 2.7c-.58.24-1.3.36-2.16.36a4.3 4.3 0 0 1-2.9-.87 3.79 3.79 0 0 1-1.2-2.53" id="Fill-12"/>
        <path id="Fill-14" d="M21.36 11.12V1.19h2v4.4l4.05-4.4h2.7l-3.74 3.86 3.94 6.07h-2.59l-2.73-4.66-1.63 1.66v3z"/>
        <path d="M10.23 37.05H5.79V20.3a15.3 15.3 0 0 1-5.74 3.36v-4.03c1.16-.38 2.42-1.1 3.78-2.16a8.2 8.2 0 0 0 2.8-3.7h3.6v23.27z" id="Fill-16"/>
        <path d="M18.36 20.07c0 .88.25 1.57.75 2.07.5.5 1.17.74 2 .74.84 0 1.52-.25 2.02-.75s.76-1.2.76-2.08c0-.83-.25-1.5-.75-2a2.7 2.7 0 0 0-1.98-.75c-.86 0-1.54.26-2.04.76s-.76 1.18-.76 2M17.95 30c0 1.22.31 2.17.94 2.86.62.68 1.4 1.03 2.34 1.03.92 0 1.68-.33 2.28-1 .6-.65.9-1.6.9-2.85a3.7 3.7 0 0 0-.91-2.61 3.03 3.03 0 0 0-2.33-.99c-1.08 0-1.9.37-2.43 1.12-.53.75-.8 1.56-.8 2.44m-.5-5.46a5.18 5.18 0 0 1-2.5-2 5.22 5.22 0 0 1-.79-2.79c0-1.73.6-3.15 1.81-4.28 1.21-1.13 2.93-1.7 5.15-1.7 2.2 0 3.91.57 5.13 1.7a5.6 5.6 0 0 1 1.82 4.28 5.06 5.06 0 0 1-3.19 4.8 6.22 6.22 0 0 1 2.93 2.25c.67 1 1 2.14 1 3.43 0 2.14-.68 3.88-2.04 5.22-1.37 1.34-3.18 2-5.45 2-2.1 0-3.86-.55-5.26-1.65a6.48 6.48 0 0 1-2.48-5.38c0-1.25.3-2.4.93-3.45a6 6 0 0 1 2.94-2.43" id="Fill-18"/>
      </g>
    </g>
  </g>
</svg>