<svg width="15" height="16" viewBox="0 0 15 16" fill="none" xmlns="http://www.w3.org/2000/svg">
<path fill-rule="evenodd" clip-rule="evenodd" d="M1.76035 6.83186C2.6336 6.19646 4.22238 6.41157 4.22238 6.41157C5.21616 6.33448 6.48949 7.17381 6.48949 7.17381C6.61644 7.33048 6.81135 6.9276 6.81135 6.9276L7.89874 2.45119C8.01543 2.13784 7.86669 2.06572 7.86669 2.06572C6.86649 1.36815 5.17769 1.33333 5.17769 1.33333C3.54404 1.42908 2.84775 1.99236 2.84775 1.99236C2.84775 1.99236 2.36688 2.30447 2.28225 2.66507C2.03861 3.76303 1.23973 6.76222 1.23973 6.76222C1.09612 7.10542 1.76035 6.83186 1.76035 6.83186ZM6.36487 8.16481C5.36468 7.46724 3.83489 7.20736 3.83489 7.20736C2.80904 7.28694 1.53058 7.60899 1.53058 7.60899C1.53058 7.60899 1.051 7.9211 0.965088 8.2817C0.722732 9.37966 0.0200289 12.5728 0.0200289 12.5728C-0.122307 12.9173 0.540645 12.6437 0.540645 12.6437C1.56264 11.8715 2.87957 11.9101 2.87957 11.9101C3.87336 11.8317 5.21336 12.8302 5.21336 12.8302C5.34031 12.9857 5.5365 12.5828 5.5365 12.5828L6.39693 8.55028C6.5149 8.23569 6.36487 8.16481 6.36487 8.16481ZM12.4123 8.30777C11.3903 9.07995 10.031 8.93571 10.031 8.93571C9.03854 9.01281 7.7447 8.19959 7.7447 8.19959C7.61775 8.04292 7.42284 8.4458 7.42284 8.4458L6.40341 12.7096C6.28672 13.0229 6.43546 13.095 6.43546 13.095C7.43694 13.7926 9.12061 13.7777 9.12061 13.7777C10.1452 13.6981 11.4557 13.1672 11.4557 13.1672C11.4557 13.1672 11.9353 12.8551 12.0212 12.4957C12.2635 11.3977 12.9329 8.37865 12.9329 8.37865C13.0752 8.03421 12.4123 8.30777 12.4123 8.30777ZM13.5509 2.29815C12.1596 2.88133 11.3286 2.90247 11.3286 2.90247C10.3348 2.97956 9.06408 2.42623 9.06408 2.42623C8.93714 2.2708 8.74222 2.67367 8.74222 2.67367L7.74716 6.84171C7.63047 7.15506 7.77921 7.22593 7.77921 7.22593C8.78069 7.92475 10.4144 7.91978 10.4144 7.91978C11.4389 7.84144 12.7982 7.2993 12.7982 7.2993C12.7982 7.2993 13.279 6.98719 13.3649 6.62784C13.6073 5.52987 14.0715 2.37027 14.0715 2.37027C14.2138 2.02584 13.5509 2.29815 13.5509 2.29815Z" fill="#404040"/>
</svg>
